SplineFontDB: 3.0
FontName: ArchivoNarrowDevanagari-Bold
FullName: Archivo Narrow Devanagari Bold
FamilyName: Archivo Narrow Devanagari
Weight: Bold
Copyright: Copyright (c) 2012-2014, Omnibus-Type (www.omnibus-type.com omnibus.type@gmail.com) with Reserved Font Name 'Archivo'
Version: 1.004
FONDName: Archivo Narrow Devanagari
ItalicAngle: 0
UnderlinePosition: -100
UnderlineWidth: 50
Ascent: 800
Descent: 200
UFOAscent: 827
UFODescent: -404
LayerCount: 2
Layer: 0 0 "Back"  1
Layer: 1 0 "Fore"  0
FSType: 0
OS2Version: 0
OS2_WeightWidthSlopeOnly: 0
OS2_UseTypoMetrics: 0
CreationTime: 1405895961
ModificationTime: 1405897111
PfmFamily: 0
TTFWeight: 700
TTFWidth: 5
LineGap: 0
VLineGap: 0
Panose: 0 0 0 0 0 0 0 0 0 0
OS2TypoAscent: 827
OS2TypoAOffset: 0
OS2TypoDescent: -404
OS2TypoDOffset: 0
OS2TypoLinegap: 0
OS2WinAscent: 827
OS2WinAOffset: 0
OS2WinDescent: 404
OS2WinDOffset: 0
HheadAscent: 827
HheadAOffset: 0
HheadDescent: -404
HheadDOffset: 0
OS2SubXSize: 700
OS2SubYSize: 650
OS2SubXOff: 0
OS2SubYOff: 140
OS2SupXSize: 700
OS2SupYSize: 650
OS2SupXOff: 0
OS2SupYOff: 477
OS2StrikeYSize: 50
OS2StrikeYPos: 250
OS2Vendor: 'Omni'
OS2CodePages: 20000093.00000000
OS2UnicodeRanges: a000806f.400020fb.00000000.00000000
Lookup: 258 0 0 "'kern' Horizontal Kerning lookup 0"  {"'kern' Horizontal Kerning lookup 0 subtable"  } ['kern' ('DFLT' <'dflt' > ) ]
Lookup: 258 0 0 "'kern' Horizontal Kerning in Latin lookup 0"  {"'kern' Horizontal Kerning in Latin lookup 0 subtable"  } ['kern' ('latn' <'dflt' > ) ]
DEI: 91125
LangName: 1033 "" "" "" "" "" "Version 1.004" "" "" "Hector Gatti, Marcela Romero, Pablo Cosgaya and Nicolas Silva" "Hector Gatti, Marcela Romero, Pablo Cosgaya and Nicolas Silva" "" "http://www.omnibus-type.com" "" "This Font Software is licensed under the SIL Open Font License, Version 1.1. This license is available with a FAQ at: http://scripts.sil.org/OFL" "http://scripts.sil.org/OFL" "" "" "" "Archivo Narrow Devanagari Bold" 
PickledData: "(dp1
S'public.glyphOrder'
p2

StartChar: .notdef
Encoding: 65536 -1 0
Width: 442
VWidth: 0
Flags: W
PickledData: "(dp1
S'org.robofab.postScriptHintData'
p2
(dp3
S'vHints'
p4
((I0
I44
t(I398
I44
ttp5
sS'hHints'
p6
((I0
I44
t(I575
I44
ttp7
ss."
LayerCount: 2
Fore
SplineSet
0 619 m 257
 0 0 l 257
 442 0 l 257
 442 619 l 257
 0 619 l 257
371 575 m 257
 221 349 l 257
 71 575 l 257
 371 575 l 257
44 535 m 257
 194 309 l 257
 44 84 l 257
 44 535 l 257
398 535 m 257
 398 84 l 257
 248 309 l 257
 398 535 l 257
221 270 m 257
 371 44 l 257
 71 44 l 257
 221 270 l 257
EndSplineSet
EndChar

StartChar: A
Encoding: 65 65 1
Width: 523
VWidth: 0
Flags: W
PickledData: "(dp1
S'org.robofab.postScriptHintData'
p2
(dp3
S'vHints'
p4
((I0
I522
ttp5
sS'hHints'
p6
((I21
I-21
t(I119
I101
t(I505
I101
ttp7
ss."
AnchorPoint: "top" 262 606 basechar 0
AnchorPoint: "ogonek" 471 9 basechar 0
LayerCount: 2
Fore
SplineSet
407 0 m 257
 522 0 l 257
 327 606 l 257
 195 606 l 257
 0 0 l 257
 110 0 l 257
 146 119 l 257
 370 119 l 257
 407 0 l 257
260 505 m 257
 260 505 268 454 278 423 c 258
 339 220 l 257
 177 220 l 257
 239 423 l 258
 248 451 256 505 256 505 c 257
 260 505 l 257
EndSplineSet
EndChar

StartChar: AE
Encoding: 198 198 2
Width: 725
VWidth: 0
Flags: W
PickledData: "(dp1
S'org.robofab.postScriptHintData'
p2
(dp3
S'replaceTable'
p4
((dp5
S'index'
p6
I0
sS'type'
p7
I255
s(dp8
g6
I0
sg7
I2
s(dp9
g6
I0
sg7
I1
s(dp10
g6
I1
sg7
I1
s(dp11
g6
I2
sg7
I1
s(dp12
g6
I6
sg7
I255
s(dp13
g6
I0
sg7
I2
s(dp14
g6
I0
sg7
I1
s(dp15
g6
I3
sg7
I1
s(dp16
g6
I1
sg7
I1
s(dp17
g6
I2
sg7
I1
s(dp18
g6
I8
sg7
I255
s(dp19
g6
I0
sg7
I2
s(dp20
g6
I0
sg7
I1
s(dp21
g6
I1
sg7
I1
s(dp22
g6
I2
sg7
I1
s(dp23
g6
I18
sg7
I255
s(dp24
g6
I0
sg7
I2
s(dp25
g6
I0
sg7
I1
s(dp26
g6
I3
sg7
I1
s(dp27
g6
I1
sg7
I1
s(dp28
g6
I2
sg7
I1
s(dp29
g6
I21
sg7
I255
s(dp30
g6
I0
sg7
I2
s(dp31
g6
I0
sg7
I1
s(dp32
g6
I1
sg7
I1
s(dp33
g6
I2
sg7
I1
stp34
sS'vHints'
p35
((I-7
I694
ttp36
sS'hHints'
p37
((I0
I101
t(I260
I101
t(I506
I100
t(I119
I101
ttp38
ss."
AnchorPoint: "top" 362 606 basechar 0
LayerCount: 2
Fore
SplineSet
387 506 m 257
 682 506 l 257
 682 606 l 257
 225 606 l 257
 -7 0 l 257
 98 0 l 257
 142 119 l 257
 366 119 l 257
 395 0 l 257
 687 0 l 257
 687 101 l 257
 486 101 l 257
 447 260 l 257
 643 260 l 257
 643 361 l 257
 423 361 l 257
 387 506 l 257
280 483 m 257
 283 472 286 461 288 450 c 258
 342 220 l 257
 179 220 l 257
 264 450 l 258
 269 461 272 472 277 483 c 257
 280 483 l 257
EndSplineSet
EndChar

StartChar: AEacute
Encoding: 508 508 3
Width: 725
VWidth: 0
Flags: W
PickledData: "(dp1
S'org.robofab.postScriptHintData'
p2
(dp3
S'replaceTable'
p4
((dp5
S'index'
p6
I0
sS'type'
p7
I255
s(dp8
g6
I0
sg7
I2
s(dp9
g6
I0
sg7
I1
s(dp10
g6
I1
sg7
I1
s(dp11
g6
I2
sg7
I1
s(dp12
g6
I3
sg7
I1
s(dp13
g6
I11
sg7
I255
s(dp14
g6
I0
sg7
I2
s(dp15
g6
I0
sg7
I1
s(dp16
g6
I4
sg7
I1
s(dp17
g6
I1
sg7
I1
s(dp18
g6
I2
sg7
I1
s(dp19
g6
I3
sg7
I1
s(dp20
g6
I13
sg7
I255
s(dp21
g6
I0
sg7
I2
s(dp22
g6
I0
sg7
I1
s(dp23
g6
I1
sg7
I1
s(dp24
g6
I2
sg7
I1
s(dp25
g6
I3
sg7
I1
s(dp26
g6
I23
sg7
I255
s(dp27
g6
I0
sg7
I2
s(dp28
g6
I0
sg7
I1
s(dp29
g6
I4
sg7
I1
s(dp30
g6
I1
sg7
I1
s(dp31
g6
I2
sg7
I1
s(dp32
g6
I3
sg7
I1
s(dp33
g6
I26
sg7
I255
s(dp34
g6
I0
sg7
I2
s(dp35
g6
I0
sg7
I1
s(dp36
g6
I1
sg7
I1
s(dp37
g6
I2
sg7
I1
s(dp38
g6
I3
sg7
I1
stp39
sS'vHints'
p40
((I-7
I694
ttp41
sS'hHints'
p42
((I0
I101
t(I260
I101
t(I506
I100
t(I664
I117
t(I119
I101
ttp43
ss."
LayerCount: 2
Fore
SplineSet
389 664 m 257
 484 778 l 257
 484 781 l 257
 377 781 l 257
 301 664 l 257
 389 664 l 257
387 506 m 257
 682 506 l 257
 682 606 l 257
 225 606 l 257
 -7 0 l 257
 98 0 l 257
 142 119 l 257
 366 119 l 257
 395 0 l 257
 687 0 l 257
 687 101 l 257
 486 101 l 257
 447 260 l 257
 643 260 l 257
 643 361 l 257
 423 361 l 257
 387 506 l 257
280 483 m 257
 284 469 286 455 290 442 c 258
 342 220 l 257
 179 220 l 257
 261 439 l 258
 266 453 271 469 277 483 c 257
 280 483 l 257
EndSplineSet
EndChar

StartChar: Aacute
Encoding: 193 193 4
Width: 523
VWidth: 0
Flags: W
PickledData: "(dp1
S'org.robofab.postScriptHintData'
p2
(dp3
S'vHints'
p4
((I0
I522
ttp5
sS'hHints'
p6
((I21
I-21
t(I119
I101
t(I505
I101
t(I664
I117
ttp7
ss."
LayerCount: 2
Fore
SplineSet
288 664 m 257
 384 778 l 257
 383 781 l 257
 277 781 l 257
 201 664 l 257
 288 664 l 257
407 0 m 257
 522 0 l 257
 327 606 l 257
 195 606 l 257
 0 0 l 257
 110 0 l 257
 146 119 l 257
 370 119 l 257
 407 0 l 257
260 505 m 257
 260 505 268 454 278 423 c 258
 339 220 l 257
 177 220 l 257
 239 423 l 258
 248 451 256 505 256 505 c 257
 260 505 l 257
EndSplineSet
EndChar

StartChar: Abreve
Encoding: 258 258 5
Width: 523
VWidth: 0
Flags: W
PickledData: "(dp1
S'org.robofab.postScriptHintData'
p2
(dp3
S'vHints'
p4
((I0
I522
ttp5
sS'hHints'
p6
((I21
I-21
t(I119
I101
t(I505
I101
t(I686
I95
ttp7
ss."
LayerCount: 2
Fore
SplineSet
314 781 m 257
 313 768 292 751 261 751 c 256
 232 751 212 768 210 781 c 257
 144 781 l 257
 144 736 188 686 261 686 c 256
 334 686 380 736 380 781 c 257
 314 781 l 257
407 0 m 257
 522 0 l 257
 327 606 l 257
 195 606 l 257
 0 0 l 257
 110 0 l 257
 146 119 l 257
 370 119 l 257
 407 0 l 257
260 505 m 257
 260 505 268 454 278 423 c 258
 339 220 l 257
 177 220 l 257
 239 423 l 258
 248 451 256 505 256 505 c 257
 260 505 l 257
EndSplineSet
EndChar

StartChar: Acircumflex
Encoding: 194 194 6
Width: 523
VWidth: 0
Flags: W
PickledData: "(dp1
S'org.robofab.postScriptHintData'
p2
(dp3
S'vHints'
p4
((I0
I522
ttp5
sS'hHints'
p6
((I21
I-21
t(I119
I101
t(I505
I101
t(I661
I120
ttp7
ss."
LayerCount: 2
Fore
SplineSet
301 661 m 257
 381 661 l 257
 306 781 l 257
 219 781 l 257
 143 661 l 257
 222 661 l 257
 262 722 l 257
 301 661 l 257
407 0 m 257
 522 0 l 257
 327 606 l 257
 195 606 l 257
 0 0 l 257
 110 0 l 257
 146 119 l 257
 370 119 l 257
 407 0 l 257
260 505 m 257
 260 505 268 454 278 423 c 258
 339 220 l 257
 177 220 l 257
 239 423 l 258
 248 451 256 505 256 505 c 257
 260 505 l 257
EndSplineSet
EndChar

StartChar: Adieresis
Encoding: 196 196 7
Width: 523
VWidth: 0
Flags: W
PickledData: "(dp1
S'org.robofab.postScriptHintData'
p2
(dp3
S'vHints'
p4
((I141
I88
t(I294
I90
ttp5
sS'hHints'
p6
((I21
I-21
t(I119
I101
t(I505
I101
t(I684
I97
ttp7
ss."
LayerCount: 2
Fore
SplineSet
141 684 m 257
 229 684 l 257
 229 781 l 257
 141 781 l 257
 141 684 l 257
294 684 m 257
 384 684 l 257
 384 781 l 257
 294 781 l 257
 294 684 l 257
407 0 m 257
 522 0 l 257
 327 606 l 257
 195 606 l 257
 0 0 l 257
 110 0 l 257
 146 119 l 257
 370 119 l 257
 407 0 l 257
260 505 m 257
 260 505 268 454 278 423 c 258
 339 220 l 257
 177 220 l 257
 239 423 l 258
 248 451 256 505 256 505 c 257
 260 505 l 257
EndSplineSet
EndChar

StartChar: Agrave
Encoding: 192 192 8
Width: 523
VWidth: 0
Flags: W
PickledData: "(dp1
S'org.robofab.postScriptHintData'
p2
(dp3
S'vHints'
p4
((I0
I522
ttp5
sS'hHints'
p6
((I21
I-21
t(I119
I101
t(I505
I101
t(I664
I117
ttp7
ss."
LayerCount: 2
Fore
SplineSet
235 664 m 257
 323 664 l 257
 247 781 l 257
 141 781 l 257
 140 778 l 257
 235 664 l 257
407 0 m 257
 522 0 l 257
 327 606 l 257
 195 606 l 257
 0 0 l 257
 110 0 l 257
 146 119 l 257
 370 119 l 257
 407 0 l 257
260 505 m 257
 260 505 268 454 278 423 c 258
 339 220 l 257
 177 220 l 257
 239 423 l 258
 248 451 256 505 256 505 c 257
 260 505 l 257
EndSplineSet
EndChar

StartChar: Amacron
Encoding: 256 256 9
Width: 523
VWidth: 0
Flags: W
PickledData: "(dp1
S'org.robofab.postScriptHintData'
p2
(dp3
S'vHints'
p4
((I149
I226
ttp5
sS'hHints'
p6
((I21
I-21
t(I119
I101
t(I505
I101
t(I671
I77
ttp7
ss."
LayerCount: 2
Fore
SplineSet
149 671 m 257
 375 671 l 257
 375 748 l 257
 149 748 l 257
 149 671 l 257
407 0 m 257
 522 0 l 257
 327 606 l 257
 195 606 l 257
 0 0 l 257
 110 0 l 257
 146 119 l 257
 370 119 l 257
 407 0 l 257
260 505 m 257
 260 505 268 454 278 423 c 258
 339 220 l 257
 177 220 l 257
 239 423 l 258
 248 451 256 505 256 505 c 257
 260 505 l 257
EndSplineSet
EndChar

StartChar: Aogonek
Encoding: 260 260 10
Width: 523
VWidth: 0
Flags: W
PickledData: "(dp1
S'org.robofab.postScriptHintData'
p2
(dp3
S'replaceTable'
p4
((dp5
S'index'
p6
I0
sS'type'
p7
I255
s(dp8
g6
I0
sg7
I2
s(dp9
g6
I0
sg7
I1
s(dp10
g6
I1
sg7
I1
s(dp11
g6
I2
sg7
I1
s(dp12
g6
I3
sg7
I1
s(dp13
g6
I12
sg7
I255
s(dp14
g6
I0
sg7
I2
s(dp15
g6
I4
sg7
I1
s(dp16
g6
I1
sg7
I1
s(dp17
g6
I2
sg7
I1
s(dp18
g6
I3
sg7
I1
s(dp19
g6
I14
sg7
I255
s(dp20
g6
I0
sg7
I2
s(dp21
g6
I5
sg7
I1
s(dp22
g6
I1
sg7
I1
s(dp23
g6
I2
sg7
I1
s(dp24
g6
I3
sg7
I1
stp25
sS'vHints'
p26
((I409
I87
ttp27
sS'hHints'
p28
((I-156
I49
t(I21
I-21
t(I119
I101
t(I505
I101
t(I-168
I61
t(I-135
I-21
ttp29
ss."
LayerCount: 2
Fore
SplineSet
555 -107 m 257
 536 -107 l 258
 507 -107 496 -85 496 -62 c 256
 496 -34 512 -10 522 0 c 257
 327 606 l 257
 195 606 l 257
 0 0 l 257
 110 0 l 257
 146 119 l 257
 370 119 l 257
 407 0 l 257
 449 0 l 257
 430 -24 409 -44 409 -88 c 256
 409 -149 456 -168 497 -168 c 256
 516 -168 535 -164 555 -156 c 257
 555 -107 l 257
339 220 m 257
 177 220 l 257
 239 423 l 258
 248 451 256 505 256 505 c 257
 260 505 l 257
 260 505 268 454 278 423 c 258
 339 220 l 257
EndSplineSet
EndChar

StartChar: Aring
Encoding: 197 197 11
Width: 523
VWidth: 0
Flags: W
PickledData: "(dp1
S'org.robofab.postScriptHintData'
p2
(dp3
S'vHints'
p4
((I177
I44
t(I302
I45
ttp5
sS'hHints'
p6
((I21
I-21
t(I119
I101
t(I505
I101
t(I637
I45
t(I763
I44
ttp7
ss."
LayerCount: 2
Fore
SplineSet
262 807 m 256
 215 807 177 769 177 722 c 256
 177 674 216 637 262 637 c 256
 309 637 347 675 347 722 c 256
 347 768 309 807 262 807 c 256
262 763 m 256
 284 763 302 745 302 722 c 256
 302 699 284 682 262 682 c 256
 239 682 221 699 221 722 c 256
 221 745 239 763 262 763 c 256
407 0 m 257
 522 0 l 257
 327 606 l 257
 195 606 l 257
 0 0 l 257
 110 0 l 257
 146 119 l 257
 370 119 l 257
 407 0 l 257
260 505 m 257
 260 505 268 454 278 423 c 258
 339 220 l 257
 177 220 l 257
 239 423 l 258
 248 451 256 505 256 505 c 257
 260 505 l 257
EndSplineSet
EndChar

StartChar: Aringacute
Encoding: 506 506 12
Width: 523
VWidth: 0
Flags: W
PickledData: "(dp1
S'org.robofab.postScriptHintData'
p2
(dp3
S'replaceTable'
p4
((dp5
S'index'
p6
I0
sS'type'
p7
I255
s(dp8
g6
I0
sg7
I2
s(dp9
g6
I1
sg7
I2
s(dp10
g6
I0
sg7
I1
s(dp11
g6
I1
sg7
I1
s(dp12
g6
I2
sg7
I1
s(dp13
g6
I12
sg7
I255
s(dp14
g6
I0
sg7
I2
s(dp15
g6
I1
sg7
I2
s(dp16
g6
I0
sg7
I1
s(dp17
g6
I1
sg7
I1
s(dp18
g6
I3
sg7
I1
s(dp19
g6
I2
sg7
I1
stp20
sS'vHints'
p21
((I177
I44
t(I302
I45
ttp22
sS'hHints'
p23
((I21
I-21
t(I119
I101
t(I750
I96
t(I682
I44
ttp24
ss."
LayerCount: 2
Fore
SplineSet
224 750 m 257
 311 750 l 257
 392 843 l 257
 392 846 l 257
 286 846 l 257
 224 750 l 257
0 0 m 257
 110 0 l 257
 146 119 l 257
 370 119 l 257
 407 0 l 257
 522 0 l 257
 331 595 l 257
 340 609 347 626 347 644 c 256
 347 688 309 726 262 726 c 256
 215 726 177 689 177 644 c 256
 177 626 182 609 192 596 c 257
 0 0 l 257
262 682 m 256
 284 682 302 666 302 644 c 256
 302 621 284 604 262 604 c 256
 239 604 221 621 221 644 c 256
 221 666 239 682 262 682 c 256
260 505 m 257
 260 505 268 454 278 423 c 258
 339 220 l 257
 177 220 l 257
 239 423 l 258
 248 451 256 505 256 505 c 257
 260 505 l 257
EndSplineSet
EndChar

StartChar: Atilde
Encoding: 195 195 13
Width: 523
VWidth: 0
Flags: W
PickledData: "(dp1
S'org.robofab.postScriptHintData'
p2
(dp3
S'replaceTable'
p4
((dp5
S'index'
p6
I0
sS'type'
p7
I255
s(dp8
g6
I0
sg7
I2
s(dp9
g6
I0
sg7
I1
s(dp10
g6
I1
sg7
I1
s(dp11
g6
I2
sg7
I1
s(dp12
g6
I3
sg7
I1
s(dp13
g6
I1
sg7
I255
s(dp14
g6
I0
sg7
I2
s(dp15
g6
I0
sg7
I1
s(dp16
g6
I1
sg7
I1
s(dp17
g6
I2
sg7
I1
s(dp18
g6
I4
sg7
I1
s(dp19
g6
I2
sg7
I255
s(dp20
g6
I0
sg7
I2
s(dp21
g6
I0
sg7
I1
s(dp22
g6
I1
sg7
I1
s(dp23
g6
I2
sg7
I1
s(dp24
g6
I3
sg7
I1
s(dp25
g6
I3
sg7
I255
s(dp26
g6
I0
sg7
I2
s(dp27
g6
I0
sg7
I1
s(dp28
g6
I1
sg7
I1
s(dp29
g6
I2
sg7
I1
s(dp30
g6
I4
sg7
I1
s(dp31
g6
I5
sg7
I255
s(dp32
g6
I0
sg7
I2
s(dp33
g6
I0
sg7
I1
s(dp34
g6
I1
sg7
I1
s(dp35
g6
I2
sg7
I1
s(dp36
g6
I3
sg7
I1
s(dp37
g6
I6
sg7
I255
s(dp38
g6
I0
sg7
I2
s(dp39
g6
I0
sg7
I1
s(dp40
g6
I1
sg7
I1
s(dp41
g6
I2
sg7
I1
s(dp42
g6
I4
sg7
I1
s(dp43
g6
I7
sg7
I255
s(dp44
g6
I0
sg7
I2
s(dp45
g6
I0
sg7
I1
s(dp46
g6
I1
sg7
I1
s(dp47
g6
I2
sg7
I1
s(dp48
g6
I3
sg7
I1
stp49
sS'vHints'
p50
((I0
I522
ttp51
sS'hHints'
p52
((I21
I-21
t(I119
I101
t(I505
I101
t(I705
I76
t(I673
I75
ttp53
ss."
LayerCount: 2
Fore
SplineSet
352 781 m 257
 348 756 336 748 317 748 c 256
 278 748 243 781 200 781 c 256
 138 781 113 721 113 673 c 257
 171 673 l 257
 175 697 187 705 206 705 c 256
 246 705 280 673 323 673 c 256
 385 673 410 732 410 781 c 257
 352 781 l 257
407 0 m 257
 522 0 l 257
 327 606 l 257
 195 606 l 257
 0 0 l 257
 110 0 l 257
 146 119 l 257
 370 119 l 257
 407 0 l 257
260 505 m 257
 260 505 268 454 278 423 c 258
 339 220 l 257
 177 220 l 257
 239 423 l 258
 248 451 256 505 256 505 c 257
 260 505 l 257
EndSplineSet
EndChar

StartChar: B
Encoding: 66 66 14
Width: 523
VWidth: 0
Flags: W
PickledData: "(dp1
S'org.robofab.postScriptHintData'
p2
(dp3
S'replaceTable'
p4
((dp5
S'index'
p6
I0
sS'type'
p7
I255
s(dp8
g6
I0
sg7
I2
s(dp9
g6
I1
sg7
I2
s(dp10
g6
I0
sg7
I1
s(dp11
g6
I1
sg7
I1
s(dp12
g6
I2
sg7
I1
s(dp13
g6
I6
sg7
I255
s(dp14
g6
I0
sg7
I2
s(dp15
g6
I2
sg7
I2
s(dp16
g6
I0
sg7
I1
s(dp17
g6
I1
sg7
I1
s(dp18
g6
I2
sg7
I1
s(dp19
g6
I15
sg7
I255
s(dp20
g6
I0
sg7
I2
s(dp21
g6
I1
sg7
I2
s(dp22
g6
I0
sg7
I1
s(dp23
g6
I1
sg7
I1
s(dp24
g6
I2
sg7
I1
stp25
sS'vHints'
p26
((I53
I113
t(I377
I116
t(I363
I116
ttp27
sS'hHints'
p28
((I0
I101
t(I261
I100
t(I506
I100
ttp29
ss."
LayerCount: 2
Fore
SplineSet
53 606 m 257
 53 0 l 257
 314 0 l 258
 411 0 493 61 493 163 c 256
 493 240 446 296 386 315 c 257
 386 318 l 257
 438 337 479 386 479 456 c 256
 479 545 409 606 314 606 c 258
 53 606 l 257
166 361 m 257
 166 506 l 257
 288 506 l 258
 333 506 363 482 363 436 c 256
 363 395 337 361 283 361 c 258
 166 361 l 257
166 101 m 257
 166 261 l 257
 290 261 l 258
 349 261 377 224 377 177 c 256
 377 127 342 101 295 101 c 258
 166 101 l 257
EndSplineSet
EndChar

StartChar: C
Encoding: 67 67 15
Width: 523
VWidth: 0
Flags: W
PickledData: "(dp1
S'org.robofab.postScriptHintData'
p2
(dp3
S'vHints'
p4
((I30
I117
t(I384
I110
ttp5
sS'hHints'
p6
((I-11
I98
t(I520
I97
ttp7
ss."
AnchorPoint: "top" 262 606 basechar 0
AnchorPoint: "bottom" 262 0 basechar 0
LayerCount: 2
Fore
SplineSet
384 225 m 257
 384 131 340 87 275 87 c 256
 188 87 147 160 147 281 c 258
 147 325 l 258
 147 446 187 520 271 520 c 256
 335 520 378 475 378 381 c 257
 494 381 l 257
 494 545 398 617 271 617 c 256
 119 617 30 517 30 303 c 256
 30 89 119 -11 271 -11 c 256
 400 -11 494 65 494 225 c 257
 384 225 l 257
EndSplineSet
EndChar

StartChar: Cacute
Encoding: 262 262 17
Width: 523
VWidth: 0
Flags: W
PickledData: "(dp1
S'org.robofab.postScriptHintData'
p2
(dp3
S'vHints'
p4
((I30
I117
t(I384
I110
ttp5
sS'hHints'
p6
((I-11
I98
t(I520
I97
t(I664
I117
ttp7
ss."
LayerCount: 2
Fore
SplineSet
298 664 m 257
 393 778 l 257
 392 781 l 257
 286 781 l 257
 210 664 l 257
 298 664 l 257
384 225 m 257
 384 131 340 87 275 87 c 256
 188 87 147 160 147 281 c 258
 147 325 l 258
 147 446 187 520 271 520 c 256
 335 520 378 475 378 381 c 257
 494 381 l 257
 494 545 398 617 271 617 c 256
 119 617 30 517 30 303 c 256
 30 89 119 -11 271 -11 c 256
 400 -11 494 65 494 225 c 257
 384 225 l 257
EndSplineSet
EndChar

StartChar: Ccaron
Encoding: 268 268 18
Width: 523
VWidth: 0
Flags: W
PickledData: "(dp1
S'org.robofab.postScriptHintData'
p2
(dp3
S'vHints'
p4
((I30
I117
t(I384
I110
ttp5
sS'hHints'
p6
((I-11
I98
t(I520
I97
t(I661
I120
ttp7
ss."
LayerCount: 2
Fore
SplineSet
152 781 m 257
 228 661 l 257
 315 661 l 257
 390 781 l 257
 311 781 l 257
 271 720 l 257
 232 781 l 257
 152 781 l 257
384 225 m 257
 384 131 340 87 275 87 c 256
 188 87 147 160 147 281 c 258
 147 325 l 258
 147 446 187 520 271 520 c 256
 335 520 378 475 378 381 c 257
 494 381 l 257
 494 545 398 617 271 617 c 256
 119 617 30 517 30 303 c 256
 30 89 119 -11 271 -11 c 256
 400 -11 494 65 494 225 c 257
 384 225 l 257
EndSplineSet
EndChar

StartChar: Ccedilla
Encoding: 199 199 19
Width: 523
VWidth: 0
Flags: W
PickledData: "(dp1
S'org.robofab.postScriptHintData'
p2
(dp3
S'replaceTable'
p4
((dp5
S'index'
p6
I0
sS'type'
p7
I255
s(dp8
g6
I0
sg7
I2
s(dp9
g6
I1
sg7
I2
s(dp10
g6
I2
sg7
I2
s(dp11
g6
I0
sg7
I1
s(dp12
g6
I1
sg7
I1
s(dp13
g6
I2
sg7
I1
s(dp14
g6
I3
sg7
I1
s(dp15
g6
I1
sg7
I255
s(dp16
g6
I0
sg7
I2
s(dp17
g6
I3
sg7
I2
s(dp18
g6
I2
sg7
I2
s(dp19
g6
I0
sg7
I1
s(dp20
g6
I1
sg7
I1
s(dp21
g6
I2
sg7
I1
s(dp22
g6
I3
sg7
I1
s(dp23
g6
I5
sg7
I255
s(dp24
g6
I0
sg7
I2
s(dp25
g6
I1
sg7
I2
s(dp26
g6
I2
sg7
I2
s(dp27
g6
I4
sg7
I1
s(dp28
g6
I2
sg7
I1
s(dp29
g6
I3
sg7
I1
s(dp30
g6
I6
sg7
I255
s(dp31
g6
I0
sg7
I2
s(dp32
g6
I3
sg7
I2
s(dp33
g6
I2
sg7
I2
s(dp34
g6
I0
sg7
I1
s(dp35
g6
I1
sg7
I1
s(dp36
g6
I2
sg7
I1
s(dp37
g6
I3
sg7
I1
s(dp38
g6
I9
sg7
I255
s(dp39
g6
I0
sg7
I2
s(dp40
g6
I1
sg7
I2
s(dp41
g6
I2
sg7
I2
s(dp42
g6
I0
sg7
I1
s(dp43
g6
I5
sg7
I1
s(dp44
g6
I3
sg7
I1
s(dp45
g6
I12
sg7
I255
s(dp46
g6
I0
sg7
I2
s(dp47
g6
I1
sg7
I2
s(dp48
g6
I2
sg7
I2
s(dp49
g6
I0
sg7
I1
s(dp50
g6
I1
sg7
I1
s(dp51
g6
I2
sg7
I1
s(dp52
g6
I3
sg7
I1
s(dp53
g6
I20
sg7
I255
s(dp54
g6
I0
sg7
I2
s(dp55
g6
I1
sg7
I2
s(dp56
g6
I2
sg7
I2
s(dp57
g6
I0
sg7
I1
s(dp58
g6
I2
sg7
I1
s(dp59
g6
I3
sg7
I1
stp60
sS'vHints'
p61
((I30
I117
t(I228
I62
t(I384
I110
t(I284
I76
ttp62
sS'hHints'
p63
((I-161
I50
t(I-68
I39
t(I13
I-21
t(I520
I97
t(I-133
I-21
t(I11
I-21
ttp64
ss."
LayerCount: 2
Fore
SplineSet
225 -68 m 257
 254 -68 l 258
 277 -68 284 -75 284 -89 c 256
 284 -106 271 -111 252 -111 c 258
 189 -111 l 257
 189 -154 l 257
 210 -158 239 -161 263 -161 c 256
 301 -161 360 -149 360 -89 c 256
 360 -49 328 -32 290 -29 c 257
 292 -10 l 257
 409 -2 494 74 494 225 c 257
 384 225 l 257
 384 131 340 87 275 87 c 256
 188 87 147 160 147 281 c 258
 147 325 l 258
 147 446 187 520 271 520 c 256
 335 520 378 475 378 381 c 257
 494 381 l 257
 494 545 398 617 271 617 c 256
 119 617 30 517 30 303 c 256
 30 108 103 8 232 -8 c 257
 225 -68 l 257
EndSplineSet
EndChar

StartChar: Ccircumflex
Encoding: 264 264 20
Width: 523
VWidth: 0
Flags: W
PickledData: "(dp1
S'org.robofab.postScriptHintData'
p2
(dp3
S'vHints'
p4
((I30
I117
t(I384
I110
ttp5
sS'hHints'
p6
((I-11
I98
t(I520
I97
t(I661
I120
ttp7
ss."
LayerCount: 2
Fore
SplineSet
271 722 m 257
 311 661 l 257
 390 661 l 257
 315 781 l 257
 228 781 l 257
 152 661 l 257
 232 661 l 257
 271 722 l 257
384 225 m 257
 384 131 340 87 275 87 c 256
 188 87 147 160 147 281 c 258
 147 325 l 258
 147 446 187 520 271 520 c 256
 335 520 378 475 378 381 c 257
 494 381 l 257
 494 545 398 617 271 617 c 256
 119 617 30 517 30 303 c 256
 30 89 119 -11 271 -11 c 256
 400 -11 494 65 494 225 c 257
 384 225 l 257
EndSplineSet
EndChar

StartChar: Cdotaccent
Encoding: 266 266 21
Width: 523
VWidth: 0
Flags: W
PickledData: "(dp1
S'org.robofab.postScriptHintData'
p2
(dp3
S'vHints'
p4
((I30
I117
t(I224
I94
t(I384
I110
ttp5
sS'hHints'
p6
((I-11
I98
t(I520
I97
t(I679
I102
ttp7
ss."
LayerCount: 2
Fore
SplineSet
224 781 m 257
 224 679 l 257
 318 679 l 257
 318 781 l 257
 224 781 l 257
384 225 m 257
 384 131 340 87 275 87 c 256
 188 87 147 160 147 281 c 258
 147 325 l 258
 147 446 187 520 271 520 c 256
 335 520 378 475 378 381 c 257
 494 381 l 257
 494 545 398 617 271 617 c 256
 119 617 30 517 30 303 c 256
 30 89 119 -11 271 -11 c 256
 400 -11 494 65 494 225 c 257
 384 225 l 257
EndSplineSet
EndChar

StartChar: D
Encoding: 68 68 22
Width: 523
VWidth: 0
Flags: W
PickledData: "(dp1
S'org.robofab.postScriptHintData'
p2
(dp3
S'vHints'
p4
((I53
I113
t(I377
I116
ttp5
sS'hHints'
p6
((I0
I101
t(I506
I100
ttp7
ss."
AnchorPoint: "top" 262 606 basechar 0
AnchorPoint: "center" 262 303 basechar 0
LayerCount: 2
Fore
SplineSet
53 606 m 257
 53 0 l 257
 250 0 l 258
 401 0 493 104 493 312 c 256
 493 507 401 606 250 606 c 258
 53 606 l 257
166 101 m 257
 166 506 l 257
 240 506 l 258
 324 506 377 448 377 334 c 258
 377 290 l 258
 377 164 324 101 240 101 c 258
 166 101 l 257
EndSplineSet
EndChar

StartChar: Dcaron
Encoding: 270 270 23
Width: 523
VWidth: 0
Flags: W
PickledData: "(dp1
S'org.robofab.postScriptHintData'
p2
(dp3
S'vHints'
p4
((I53
I113
t(I377
I116
ttp5
sS'hHints'
p6
((I0
I101
t(I506
I100
t(I661
I120
ttp7
ss."
LayerCount: 2
Fore
SplineSet
105 781 m 257
 181 661 l 257
 268 661 l 257
 343 781 l 257
 263 781 l 257
 225 720 l 257
 185 781 l 257
 105 781 l 257
53 606 m 257
 53 0 l 257
 250 0 l 258
 401 0 493 104 493 312 c 256
 493 507 401 606 250 606 c 258
 53 606 l 257
166 101 m 257
 166 506 l 257
 240 506 l 258
 324 506 377 448 377 334 c 258
 377 290 l 258
 377 164 324 101 240 101 c 258
 166 101 l 257
EndSplineSet
EndChar

StartChar: Dcroat
Encoding: 272 272 24
Width: 523
VWidth: 0
Flags: W
PickledData: "(dp1
S'org.robofab.postScriptHintData'
p2
(dp3
S'vHints'
p4
((I53
I113
t(I377
I116
ttp5
sS'hHints'
p6
((I0
I101
t(I276
I75
t(I506
I100
ttp7
ss."
LayerCount: 2
Fore
SplineSet
53 606 m 257
 53 351 l 257
 9 351 l 257
 9 276 l 257
 53 276 l 257
 53 0 l 257
 250 0 l 258
 401 0 493 104 493 312 c 256
 493 507 401 606 250 606 c 258
 53 606 l 257
277 351 m 257
 166 351 l 257
 166 506 l 257
 240 506 l 258
 324 506 377 448 377 334 c 258
 377 290 l 258
 377 164 324 101 240 101 c 258
 166 101 l 257
 166 276 l 257
 277 276 l 257
 277 351 l 257
EndSplineSet
EndChar

StartChar: Delta
Encoding: 916 916 25
Width: 521
VWidth: 0
Flags: W
PickledData: "(dp1
S'org.robofab.postScriptHintData'
p2
(dp3
S'replaceTable'
p4
((dp5
S'index'
p6
I0
sS'type'
p7
I255
s(dp8
g6
I0
sg7
I2
s(dp9
g6
I0
sg7
I1
s(dp10
g6
I1
sg7
I1
s(dp11
g6
I7
sg7
I255
s(dp12
g6
I0
sg7
I2
s(dp13
g6
I0
sg7
I1
s(dp14
g6
I2
sg7
I1
stp15
sS'vHints'
p16
((I11
I491
ttp17
sS'hHints'
p18
((I0
I101
t(I606
I-20
t(I478
I128
ttp19
ss."
LayerCount: 2
Fore
SplineSet
502 0 m 257
 502 49 l 257
 323 606 l 257
 191 606 l 257
 11 49 l 257
 11 0 l 257
 502 0 l 257
136 101 m 257
 252 478 l 257
 255 478 l 257
 371 101 l 257
 136 101 l 257
EndSplineSet
EndChar

StartChar: E
Encoding: 69 69 26
Width: 484
VWidth: 0
Flags: W
PickledData: "(dp1
S'org.robofab.postScriptHintData'
p2
(dp3
S'vHints'
p4
((I53
I113
ttp5
sS'hHints'
p6
((I0
I101
t(I260
I101
t(I506
I100
ttp7
ss."
AnchorPoint: "top" 242 606 basechar 0
AnchorPoint: "ogonek" 435 9 basechar 0
AnchorPoint: "bottom" 242 0 basechar 0
LayerCount: 2
Fore
SplineSet
439 606 m 257
 53 606 l 257
 53 0 l 257
 445 0 l 257
 445 101 l 257
 166 101 l 257
 166 260 l 257
 400 260 l 257
 400 361 l 257
 166 361 l 257
 166 506 l 257
 439 506 l 257
 439 606 l 257
EndSplineSet
EndChar

StartChar: Eacute
Encoding: 201 201 27
Width: 484
VWidth: 0
Flags: W
PickledData: "(dp1
S'org.robofab.postScriptHintData'
p2
(dp3
S'vHints'
p4
((I53
I113
ttp5
sS'hHints'
p6
((I0
I101
t(I260
I101
t(I506
I100
t(I664
I117
ttp7
ss."
LayerCount: 2
Fore
SplineSet
269 664 m 257
 364 778 l 257
 363 781 l 257
 257 781 l 257
 181 664 l 257
 269 664 l 257
166 506 m 257
 439 506 l 257
 439 606 l 257
 53 606 l 257
 53 0 l 257
 445 0 l 257
 445 101 l 257
 166 101 l 257
 166 260 l 257
 400 260 l 257
 400 361 l 257
 166 361 l 257
 166 506 l 257
EndSplineSet
EndChar

StartChar: Ebreve
Encoding: 276 276 28
Width: 484
VWidth: 0
Flags: W
PickledData: "(dp1
S'org.robofab.postScriptHintData'
p2
(dp3
S'vHints'
p4
((I53
I113
ttp5
sS'hHints'
p6
((I0
I101
t(I260
I101
t(I506
I100
t(I686
I95
ttp7
ss."
LayerCount: 2
Fore
SplineSet
294 781 m 257
 293 768 271 751 241 751 c 256
 212 751 192 768 189 781 c 257
 124 781 l 257
 124 736 169 686 241 686 c 256
 315 686 360 736 360 781 c 257
 294 781 l 257
439 606 m 257
 53 606 l 257
 53 0 l 257
 445 0 l 257
 445 101 l 257
 166 101 l 257
 166 260 l 257
 400 260 l 257
 400 361 l 257
 166 361 l 257
 166 506 l 257
 439 506 l 257
 439 606 l 257
EndSplineSet
EndChar

StartChar: Ecaron
Encoding: 282 282 29
Width: 484
VWidth: 0
Flags: W
PickledData: "(dp1
S'org.robofab.postScriptHintData'
p2
(dp3
S'vHints'
p4
((I53
I113
ttp5
sS'hHints'
p6
((I0
I101
t(I260
I101
t(I506
I100
t(I661
I120
ttp7
ss."
LayerCount: 2
Fore
SplineSet
123 781 m 257
 199 661 l 257
 286 661 l 257
 361 781 l 257
 281 781 l 257
 242 720 l 257
 202 781 l 257
 123 781 l 257
439 606 m 257
 53 606 l 257
 53 0 l 257
 445 0 l 257
 445 101 l 257
 166 101 l 257
 166 260 l 257
 400 260 l 257
 400 361 l 257
 166 361 l 257
 166 506 l 257
 439 506 l 257
 439 606 l 257
EndSplineSet
EndChar

StartChar: Ecircumflex
Encoding: 202 202 30
Width: 484
VWidth: 0
Flags: W
PickledData: "(dp1
S'org.robofab.postScriptHintData'
p2
(dp3
S'vHints'
p4
((I53
I113
ttp5
sS'hHints'
p6
((I0
I101
t(I260
I101
t(I506
I100
t(I661
I120
ttp7
ss."
LayerCount: 2
Fore
SplineSet
242 722 m 257
 281 661 l 257
 361 661 l 257
 286 781 l 257
 199 781 l 257
 123 661 l 257
 202 661 l 257
 242 722 l 257
439 606 m 257
 53 606 l 257
 53 0 l 257
 445 0 l 257
 445 101 l 257
 166 101 l 257
 166 260 l 257
 400 260 l 257
 400 361 l 257
 166 361 l 257
 166 506 l 257
 439 506 l 257
 439 606 l 257
EndSplineSet
EndChar

StartChar: Edieresis
Encoding: 203 203 31
Width: 484
VWidth: 0
Flags: W
PickledData: "(dp1
S'org.robofab.postScriptHintData'
p2
(dp3
S'replaceTable'
p4
((dp5
S'index'
p6
I0
sS'type'
p7
I255
s(dp8
g6
I0
sg7
I2
s(dp9
g6
I1
sg7
I2
s(dp10
g6
I0
sg7
I1
s(dp11
g6
I1
sg7
I1
s(dp12
g6
I2
sg7
I1
s(dp13
g6
I3
sg7
I1
s(dp14
g6
I8
sg7
I255
s(dp15
g6
I2
sg7
I2
s(dp16
g6
I1
sg7
I2
s(dp17
g6
I0
sg7
I1
s(dp18
g6
I1
sg7
I1
s(dp19
g6
I2
sg7
I1
s(dp20
g6
I3
sg7
I1
stp21
sS'vHints'
p22
((I120
I89
t(I275
I88
t(I53
I113
ttp23
sS'hHints'
p24
((I0
I101
t(I260
I101
t(I506
I100
t(I684
I97
ttp25
ss."
LayerCount: 2
Fore
SplineSet
120 684 m 257
 209 684 l 257
 209 781 l 257
 120 781 l 257
 120 684 l 257
275 684 m 257
 363 684 l 257
 363 781 l 257
 275 781 l 257
 275 684 l 257
166 506 m 257
 439 506 l 257
 439 606 l 257
 53 606 l 257
 53 0 l 257
 445 0 l 257
 445 101 l 257
 166 101 l 257
 166 260 l 257
 400 260 l 257
 400 361 l 257
 166 361 l 257
 166 506 l 257
EndSplineSet
EndChar

StartChar: Edotaccent
Encoding: 278 278 32
Width: 484
VWidth: 0
Flags: W
PickledData: "(dp1
S'org.robofab.postScriptHintData'
p2
(dp3
S'replaceTable'
p4
((dp5
S'index'
p6
I0
sS'type'
p7
I255
s(dp8
g6
I0
sg7
I2
s(dp9
g6
I1
sg7
I2
s(dp10
g6
I0
sg7
I1
s(dp11
g6
I1
sg7
I1
s(dp12
g6
I2
sg7
I1
s(dp13
g6
I3
sg7
I1
s(dp14
g6
I5
sg7
I255
s(dp15
g6
I0
sg7
I2
s(dp16
g6
I0
sg7
I1
s(dp17
g6
I1
sg7
I1
s(dp18
g6
I2
sg7
I1
s(dp19
g6
I3
sg7
I1
stp20
sS'vHints'
p21
((I53
I113
t(I194
I95
ttp22
sS'hHints'
p23
((I0
I101
t(I260
I101
t(I506
I100
t(I679
I102
ttp24
ss."
LayerCount: 2
Fore
SplineSet
194 781 m 257
 194 679 l 257
 289 679 l 257
 289 781 l 257
 194 781 l 257
439 606 m 257
 53 606 l 257
 53 0 l 257
 445 0 l 257
 445 101 l 257
 166 101 l 257
 166 260 l 257
 400 260 l 257
 400 361 l 257
 166 361 l 257
 166 506 l 257
 439 506 l 257
 439 606 l 257
EndSplineSet
EndChar

StartChar: Egrave
Encoding: 200 200 33
Width: 484
VWidth: 0
Flags: W
PickledData: "(dp1
S'org.robofab.postScriptHintData'
p2
(dp3
S'vHints'
p4
((I53
I113
ttp5
sS'hHints'
p6
((I0
I101
t(I260
I101
t(I506
I100
t(I664
I117
ttp7
ss."
LayerCount: 2
Fore
SplineSet
215 664 m 257
 302 664 l 257
 226 781 l 257
 120 781 l 257
 119 778 l 257
 215 664 l 257
166 506 m 257
 439 506 l 257
 439 606 l 257
 53 606 l 257
 53 0 l 257
 445 0 l 257
 445 101 l 257
 166 101 l 257
 166 260 l 257
 400 260 l 257
 400 361 l 257
 166 361 l 257
 166 506 l 257
EndSplineSet
EndChar

StartChar: Emacron
Encoding: 274 274 34
Width: 484
VWidth: 0
Flags: W
PickledData: "(dp1
S'org.robofab.postScriptHintData'
p2
(dp3
S'replaceTable'
p4
((dp5
S'index'
p6
I0
sS'type'
p7
I255
s(dp8
g6
I0
sg7
I2
s(dp9
g6
I0
sg7
I1
s(dp10
g6
I1
sg7
I1
s(dp11
g6
I2
sg7
I1
s(dp12
g6
I3
sg7
I1
s(dp13
g6
I5
sg7
I255
s(dp14
g6
I1
sg7
I2
s(dp15
g6
I0
sg7
I1
s(dp16
g6
I1
sg7
I1
s(dp17
g6
I2
sg7
I1
s(dp18
g6
I3
sg7
I1
stp19
sS'vHints'
p20
((I129
I225
t(I53
I113
ttp21
sS'hHints'
p22
((I0
I101
t(I260
I101
t(I506
I100
t(I671
I77
ttp23
ss."
LayerCount: 2
Fore
SplineSet
129 748 m 257
 129 671 l 257
 354 671 l 257
 354 748 l 257
 129 748 l 257
439 606 m 257
 53 606 l 257
 53 0 l 257
 445 0 l 257
 445 101 l 257
 166 101 l 257
 166 260 l 257
 400 260 l 257
 400 361 l 257
 166 361 l 257
 166 506 l 257
 439 506 l 257
 439 606 l 257
EndSplineSet
EndChar

StartChar: Eng
Encoding: 330 330 35
Width: 524
VWidth: 0
Flags: W
PickledData: "(dp1
S'org.robofab.postScriptHintData'
p2
(dp3
S'vHints'
p4
((I53
I100
t(I370
I100
ttp5
sS'hHints'
p6
((I-161
I89
t(I21
I-21
t(I606
I-20
ttp7
ss."
LayerCount: 2
Fore
SplineSet
470 606 m 257
 370 606 l 257
 370 218 l 257
 368 216 l 257
 368 216 350 257 340 272 c 257
 153 606 l 257
 53 606 l 257
 53 0 l 257
 153 0 l 257
 153 338 l 258
 153 354 151 388 151 388 c 257
 155 391 l 257
 155 391 175 347 182 334 c 258
 367 0 l 257
 367 -29 l 258
 367 -57 353 -72 325 -72 c 258
 286 -72 l 257
 286 -150 l 257
 304 -156 336 -161 362 -161 c 256
 447 -161 470 -98 470 -36 c 258
 470 606 l 257
EndSplineSet
EndChar

StartChar: Eogonek
Encoding: 280 280 36
Width: 484
VWidth: 0
Flags: W
PickledData: "(dp1
S'org.robofab.postScriptHintData'
p2
(dp3
S'replaceTable'
p4
((dp5
S'index'
p6
I0
sS'type'
p7
I255
s(dp8
g6
I0
sg7
I2
s(dp9
g6
I1
sg7
I2
s(dp10
g6
I0
sg7
I1
s(dp11
g6
I1
sg7
I1
s(dp12
g6
I2
sg7
I1
s(dp13
g6
I3
sg7
I1
s(dp14
g6
I7
sg7
I255
s(dp15
g6
I0
sg7
I2
s(dp16
g6
I1
sg7
I2
s(dp17
g6
I4
sg7
I1
s(dp18
g6
I1
sg7
I1
s(dp19
g6
I2
sg7
I1
s(dp20
g6
I3
sg7
I1
s(dp21
g6
I9
sg7
I255
s(dp22
g6
I0
sg7
I2
s(dp23
g6
I1
sg7
I2
s(dp24
g6
I0
sg7
I1
s(dp25
g6
I1
sg7
I1
s(dp26
g6
I2
sg7
I1
s(dp27
g6
I3
sg7
I1
s(dp28
g6
I10
sg7
I255
s(dp29
g6
I0
sg7
I2
s(dp30
g6
I1
sg7
I2
s(dp31
g6
I5
sg7
I1
s(dp32
g6
I1
sg7
I1
s(dp33
g6
I2
sg7
I1
s(dp34
g6
I3
sg7
I1
stp35
sS'vHints'
p36
((I53
I113
t(I331
I146
ttp37
sS'hHints'
p38
((I-135
I-21
t(I0
I101
t(I260
I101
t(I506
I100
t(I-168
I61
t(I-156
I49
ttp39
ss."
LayerCount: 2
Fore
SplineSet
166 361 m 257
 166 506 l 257
 439 506 l 257
 439 606 l 257
 53 606 l 257
 53 0 l 257
 370 0 l 257
 349 -22 331 -47 331 -88 c 256
 331 -149 378 -168 419 -168 c 256
 438 -168 457 -164 477 -156 c 257
 477 -107 l 257
 458 -107 l 258
 429 -107 418 -85 418 -62 c 256
 418 -37 434 -12 445 0 c 257
 445 101 l 257
 166 101 l 257
 166 260 l 257
 400 260 l 257
 400 361 l 257
 166 361 l 257
EndSplineSet
EndChar

StartChar: Eth
Encoding: 208 208 37
Width: 523
VWidth: 0
Flags: W
PickledData: "(dp1
S'org.robofab.postScriptHintData'
p2
(dp3
S'vHints'
p4
((I53
I113
t(I377
I116
ttp5
sS'hHints'
p6
((I0
I101
t(I276
I75
t(I506
I100
ttp7
ss."
LayerCount: 2
Fore
SplineSet
53 606 m 257
 53 351 l 257
 9 351 l 257
 9 276 l 257
 53 276 l 257
 53 0 l 257
 250 0 l 258
 401 0 493 104 493 312 c 256
 493 507 401 606 250 606 c 258
 53 606 l 257
277 351 m 257
 166 351 l 257
 166 506 l 257
 240 506 l 258
 324 506 377 448 377 334 c 258
 377 290 l 258
 377 164 324 101 240 101 c 258
 166 101 l 257
 166 276 l 257
 277 276 l 257
 277 351 l 257
EndSplineSet
EndChar

StartChar: Euro
Encoding: 8364 8364 38
Width: 403
VWidth: 0
Flags: W
PickledData: "(dp1
S'org.robofab.postScriptHintData'
p2
(dp3
S'vHints'
p4
((I52
I106
ttp5
sS'hHints'
p6
((I-11
I90
t(I201
I71
t(I334
I72
t(I528
I89
ttp7
ss."
LayerCount: 2
Fore
SplineSet
9 406 m 257
 9 334 l 257
 52 334 l 257
 51 324 51 314 51 303 c 256
 51 293 51 282 52 272 c 257
 9 272 l 257
 9 201 l 257
 62 201 l 257
 93 70 186 -11 318 -11 c 256
 341 -11 362 -7 384 -1 c 257
 384 87 l 257
 366 81 347 79 327 79 c 256
 250 79 196 125 171 201 c 257
 331 201 l 257
 331 272 l 257
 158 272 l 257
 157 282 157 293 157 303 c 256
 157 314 157 324 158 334 c 257
 331 334 l 257
 331 406 l 257
 171 406 l 257
 196 481 250 528 327 528 c 256
 347 528 366 525 384 520 c 257
 384 608 l 257
 363 614 340 617 318 617 c 256
 186 617 93 537 62 406 c 257
 9 406 l 257
EndSplineSet
EndChar

StartChar: F
Encoding: 70 70 39
Width: 443
VWidth: 0
Flags: W
PickledData: "(dp1
S'org.robofab.postScriptHintData'
p2
(dp3
S'vHints'
p4
((I53
I113
ttp5
sS'hHints'
p6
((I21
I-21
t(I252
I101
t(I506
I100
ttp7
ss."
LayerCount: 2
Fore
SplineSet
409 606 m 257
 53 606 l 257
 53 0 l 257
 166 0 l 257
 166 252 l 257
 374 252 l 257
 374 353 l 257
 166 353 l 257
 166 506 l 257
 409 506 l 257
 409 606 l 257
EndSplineSet
EndChar

StartChar: G
Encoding: 71 71 40
Width: 564
VWidth: 0
Flags: W
PickledData: "(dp1
S'org.robofab.postScriptHintData'
p2
(dp3
S'replaceTable'
p4
((dp5
S'index'
p6
I0
sS'type'
p7
I255
s(dp8
g6
I0
sg7
I2
s(dp9
g6
I1
sg7
I2
s(dp10
g6
I0
sg7
I1
s(dp11
g6
I1
sg7
I1
s(dp12
g6
I2
sg7
I1
s(dp13
g6
I13
sg7
I255
s(dp14
g6
I0
sg7
I2
s(dp15
g6
I1
sg7
I2
s(dp16
g6
I3
sg7
I1
s(dp17
g6
I1
sg7
I1
s(dp18
g6
I2
sg7
I1
stp19
sS'vHints'
p20
((I30
I117
t(I403
I116
ttp21
sS'hHints'
p22
((I-11
I98
t(I232
I98
t(I520
I97
t(I21
I-21
ttp23
ss."
AnchorPoint: "top" 282 606 basechar 0
AnchorPoint: "bottom" 282 0 basechar 0
LayerCount: 2
Fore
SplineSet
267 330 m 257
 267 232 l 257
 403 232 l 257
 403 143 354 87 285 87 c 256
 190 87 147 157 147 281 c 258
 147 325 l 258
 147 446 189 520 284 520 c 256
 349 520 403 476 403 394 c 257
 519 394 l 257
 519 539 409 617 287 617 c 256
 124 617 30 517 30 303 c 256
 30 88 116 -11 264 -11 c 256
 328 -11 387 16 426 67 c 257
 446 0 l 257
 519 0 l 257
 519 330 l 257
 267 330 l 257
EndSplineSet
EndChar

StartChar: Gbreve
Encoding: 286 286 41
Width: 564
VWidth: 0
Flags: W
PickledData: "(dp1
S'org.robofab.postScriptHintData'
p2
(dp3
S'replaceTable'
p4
((dp5
S'index'
p6
I0
sS'type'
p7
I255
s(dp8
g6
I0
sg7
I2
s(dp9
g6
I1
sg7
I2
s(dp10
g6
I0
sg7
I1
s(dp11
g6
I1
sg7
I1
s(dp12
g6
I2
sg7
I1
s(dp13
g6
I3
sg7
I1
s(dp14
g6
I19
sg7
I255
s(dp15
g6
I0
sg7
I2
s(dp16
g6
I1
sg7
I2
s(dp17
g6
I4
sg7
I1
s(dp18
g6
I1
sg7
I1
s(dp19
g6
I2
sg7
I1
s(dp20
g6
I3
sg7
I1
stp21
sS'vHints'
p22
((I30
I117
t(I403
I116
ttp23
sS'hHints'
p24
((I-11
I98
t(I232
I98
t(I520
I97
t(I686
I95
t(I21
I-21
ttp25
ss."
LayerCount: 2
Fore
SplineSet
335 781 m 257
 333 768 312 751 282 751 c 256
 253 751 232 768 230 781 c 257
 164 781 l 257
 164 736 210 686 282 686 c 256
 355 686 400 736 400 781 c 257
 335 781 l 257
267 330 m 257
 267 232 l 257
 403 232 l 257
 403 143 354 87 285 87 c 256
 190 87 147 157 147 281 c 258
 147 325 l 258
 147 446 189 520 284 520 c 256
 349 520 403 476 403 394 c 257
 519 394 l 257
 519 539 409 617 287 617 c 256
 124 617 30 517 30 303 c 256
 30 88 116 -11 264 -11 c 256
 328 -11 387 16 426 67 c 257
 446 0 l 257
 519 0 l 257
 519 330 l 257
 267 330 l 257
EndSplineSet
EndChar

StartChar: Gcircumflex
Encoding: 284 284 42
Width: 564
VWidth: 0
Flags: W
PickledData: "(dp1
S'org.robofab.postScriptHintData'
p2
(dp3
S'replaceTable'
p4
((dp5
S'index'
p6
I0
sS'type'
p7
I255
s(dp8
g6
I0
sg7
I2
s(dp9
g6
I1
sg7
I2
s(dp10
g6
I0
sg7
I1
s(dp11
g6
I1
sg7
I1
s(dp12
g6
I2
sg7
I1
s(dp13
g6
I3
sg7
I1
s(dp14
g6
I20
sg7
I255
s(dp15
g6
I0
sg7
I2
s(dp16
g6
I1
sg7
I2
s(dp17
g6
I4
sg7
I1
s(dp18
g6
I1
sg7
I1
s(dp19
g6
I2
sg7
I1
s(dp20
g6
I3
sg7
I1
stp21
sS'vHints'
p22
((I30
I117
t(I403
I116
ttp23
sS'hHints'
p24
((I-11
I98
t(I232
I98
t(I520
I97
t(I661
I120
t(I21
I-21
ttp25
ss."
LayerCount: 2
Fore
SplineSet
243 661 m 257
 283 722 l 257
 322 661 l 257
 401 661 l 257
 326 781 l 257
 240 781 l 257
 164 661 l 257
 243 661 l 257
267 330 m 257
 267 232 l 257
 403 232 l 257
 403 143 354 87 285 87 c 256
 190 87 147 157 147 281 c 258
 147 325 l 258
 147 446 189 520 284 520 c 256
 349 520 403 476 403 394 c 257
 519 394 l 257
 519 539 409 617 287 617 c 256
 124 617 30 517 30 303 c 256
 30 88 116 -11 264 -11 c 256
 328 -11 387 16 426 67 c 257
 446 0 l 257
 519 0 l 257
 519 330 l 257
 267 330 l 257
EndSplineSet
EndChar

StartChar: Gcommaaccent
Encoding: 290 290 43
Width: 564
VWidth: 0
Flags: W
PickledData: "(dp1
S'org.robofab.postScriptHintData'
p2
(dp3
S'replaceTable'
p4
((dp5
S'index'
p6
I0
sS'type'
p7
I255
s(dp8
g6
I0
sg7
I2
s(dp9
g6
I1
sg7
I2
s(dp10
g6
I2
sg7
I2
s(dp11
g6
I0
sg7
I1
s(dp12
g6
I1
sg7
I1
s(dp13
g6
I2
sg7
I1
s(dp14
g6
I3
sg7
I1
s(dp15
g6
I13
sg7
I255
s(dp16
g6
I0
sg7
I2
s(dp17
g6
I1
sg7
I2
s(dp18
g6
I2
sg7
I2
s(dp19
g6
I0
sg7
I1
s(dp20
g6
I4
sg7
I1
s(dp21
g6
I2
sg7
I1
s(dp22
g6
I3
sg7
I1
stp23
sS'vHints'
p24
((I30
I117
t(I214
I109
t(I403
I116
ttp25
sS'hHints'
p26
((I-157
I108
t(I-11
I98
t(I232
I98
t(I520
I97
t(I21
I-21
ttp27
ss."
LayerCount: 2
Fore
SplineSet
267 330 m 257
 267 232 l 257
 403 232 l 257
 403 143 354 87 285 87 c 256
 190 87 147 157 147 281 c 258
 147 325 l 258
 147 446 189 520 284 520 c 256
 349 520 403 476 403 394 c 257
 519 394 l 257
 519 539 409 617 287 617 c 256
 124 617 30 517 30 303 c 256
 30 88 116 -11 264 -11 c 256
 328 -11 387 16 426 67 c 257
 446 0 l 257
 519 0 l 257
 519 330 l 257
 267 330 l 257
214 -49 m 257
 214 -157 l 257
 257 -157 l 257
 225 -232 l 257
 283 -232 l 257
 323 -148 l 257
 323 -49 l 257
 214 -49 l 257
EndSplineSet
EndChar

StartChar: Gdotaccent
Encoding: 288 288 44
Width: 564
VWidth: 0
Flags: W
PickledData: "(dp1
S'org.robofab.postScriptHintData'
p2
(dp3
S'replaceTable'
p4
((dp5
S'index'
p6
I0
sS'type'
p7
I255
s(dp8
g6
I0
sg7
I2
s(dp9
g6
I1
sg7
I2
s(dp10
g6
I2
sg7
I2
s(dp11
g6
I0
sg7
I1
s(dp12
g6
I1
sg7
I1
s(dp13
g6
I2
sg7
I1
s(dp14
g6
I3
sg7
I1
s(dp15
g6
I17
sg7
I255
s(dp16
g6
I0
sg7
I2
s(dp17
g6
I1
sg7
I2
s(dp18
g6
I2
sg7
I2
s(dp19
g6
I4
sg7
I1
s(dp20
g6
I1
sg7
I1
s(dp21
g6
I2
sg7
I1
s(dp22
g6
I3
sg7
I1
stp23
sS'vHints'
p24
((I30
I117
t(I235
I95
t(I403
I116
ttp25
sS'hHints'
p26
((I-11
I98
t(I232
I98
t(I520
I97
t(I679
I102
t(I21
I-21
ttp27
ss."
LayerCount: 2
Fore
SplineSet
330 679 m 257
 330 781 l 257
 235 781 l 257
 235 679 l 257
 330 679 l 257
267 330 m 257
 267 232 l 257
 403 232 l 257
 403 143 354 87 285 87 c 256
 190 87 147 157 147 281 c 258
 147 325 l 258
 147 446 189 520 284 520 c 256
 349 520 403 476 403 394 c 257
 519 394 l 257
 519 539 409 617 287 617 c 256
 124 617 30 517 30 303 c 256
 30 88 116 -11 264 -11 c 256
 328 -11 387 16 426 67 c 257
 446 0 l 257
 519 0 l 257
 519 330 l 257
 267 330 l 257
EndSplineSet
EndChar

StartChar: H
Encoding: 72 72 45
Width: 523
VWidth: 0
Flags: W
PickledData: "(dp1
S'org.robofab.postScriptHintData'
p2
(dp3
S'vHints'
p4
((I53
I113
t(I357
I113
ttp5
sS'hHints'
p6
((I21
I-21
t(I260
I101
t(I606
I-20
ttp7
ss."
AnchorPoint: "top" 262 606 basechar 0
AnchorPoint: "center" 262 303 basechar 0
LayerCount: 2
Fore
SplineSet
357 0 m 257
 470 0 l 257
 470 606 l 257
 357 606 l 257
 357 361 l 257
 166 361 l 257
 166 606 l 257
 53 606 l 257
 53 0 l 257
 166 0 l 257
 166 260 l 257
 357 260 l 257
 357 0 l 257
EndSplineSet
EndChar

StartChar: Hbar
Encoding: 294 294 46
Width: 523
VWidth: 0
Flags: W
PickledData: "(dp1
S'org.robofab.postScriptHintData'
p2
(dp3
S'replaceTable'
p4
((dp5
S'index'
p6
I0
sS'type'
p7
I255
s(dp8
g6
I0
sg7
I2
s(dp9
g6
I1
sg7
I2
s(dp10
g6
I0
sg7
I1
s(dp11
g6
I1
sg7
I1
s(dp12
g6
I2
sg7
I1
s(dp13
g6
I3
sg7
I255
s(dp14
g6
I0
sg7
I2
s(dp15
g6
I1
sg7
I2
s(dp16
g6
I0
sg7
I1
s(dp17
g6
I1
sg7
I1
s(dp18
g6
I3
sg7
I1
s(dp19
g6
I5
sg7
I255
s(dp20
g6
I0
sg7
I2
s(dp21
g6
I1
sg7
I2
s(dp22
g6
I0
sg7
I1
s(dp23
g6
I1
sg7
I1
s(dp24
g6
I2
sg7
I1
s(dp25
g6
I7
sg7
I255
s(dp26
g6
I0
sg7
I2
s(dp27
g6
I1
sg7
I2
s(dp28
g6
I0
sg7
I1
s(dp29
g6
I1
sg7
I1
s(dp30
g6
I3
sg7
I1
s(dp31
g6
I9
sg7
I255
s(dp32
g6
I0
sg7
I2
s(dp33
g6
I1
sg7
I2
s(dp34
g6
I0
sg7
I1
s(dp35
g6
I1
sg7
I1
s(dp36
g6
I2
sg7
I1
s(dp37
g6
I11
sg7
I255
s(dp38
g6
I0
sg7
I2
s(dp39
g6
I1
sg7
I2
s(dp40
g6
I0
sg7
I1
s(dp41
g6
I1
sg7
I1
s(dp42
g6
I3
sg7
I1
s(dp43
g6
I13
sg7
I255
s(dp44
g6
I0
sg7
I2
s(dp45
g6
I1
sg7
I2
s(dp46
g6
I0
sg7
I1
s(dp47
g6
I1
sg7
I1
s(dp48
g6
I2
sg7
I1
stp49
sS'vHints'
p50
((I53
I113
t(I357
I113
ttp51
sS'hHints'
p52
((I21
I-21
t(I254
I100
t(I433
I173
t(I433
I77
ttp53
ss."
LayerCount: 2
Fore
SplineSet
470 0 m 257
 470 433 l 257
 514 433 l 257
 514 510 l 257
 470 510 l 257
 470 606 l 257
 357 606 l 257
 357 510 l 257
 166 510 l 257
 166 606 l 257
 53 606 l 257
 53 510 l 257
 9 510 l 257
 9 433 l 257
 53 433 l 257
 53 0 l 257
 166 0 l 257
 166 254 l 257
 357 254 l 257
 357 0 l 257
 470 0 l 257
166 433 m 257
 357 433 l 257
 357 354 l 257
 166 354 l 257
 166 433 l 257
EndSplineSet
EndChar

StartChar: Hcircumflex
Encoding: 292 292 47
Width: 523
VWidth: 0
Flags: W
PickledData: "(dp1
S'org.robofab.postScriptHintData'
p2
(dp3
S'vHints'
p4
((I53
I113
t(I357
I113
ttp5
sS'hHints'
p6
((I21
I-21
t(I260
I101
t(I606
I-20
t(I661
I120
ttp7
ss."
LayerCount: 2
Fore
SplineSet
301 661 m 257
 381 661 l 257
 306 781 l 257
 219 781 l 257
 143 661 l 257
 222 661 l 257
 262 722 l 257
 301 661 l 257
357 0 m 257
 470 0 l 257
 470 606 l 257
 357 606 l 257
 357 361 l 257
 166 361 l 257
 166 606 l 257
 53 606 l 257
 53 0 l 257
 166 0 l 257
 166 260 l 257
 357 260 l 257
 357 0 l 257
EndSplineSet
EndChar

StartChar: I
Encoding: 73 73 48
Width: 202
VWidth: 0
Flags: W
PickledData: "(dp1
S'org.robofab.postScriptHintData'
p2
(dp3
S'vHints'
p4
((I44
I113
ttp5
sS'hHints'
p6
((I21
I-21
t(I606
I-20
ttp7
ss."
AnchorPoint: "top" 101 606 basechar 0
AnchorPoint: "ogonek" 181 9 basechar 0
LayerCount: 2
Fore
SplineSet
44 606 m 257
 44 0 l 257
 157 0 l 257
 157 606 l 257
 44 606 l 257
EndSplineSet
EndChar

StartChar: IJ
Encoding: 306 306 49
Width: 605
VWidth: 0
Flags: W
PickledData: "(dp1
S'org.robofab.postScriptHintData'
p2
(dp3
S'replaceTable'
p4
((dp5
S'index'
p6
I0
sS'type'
p7
I255
s(dp8
g6
I0
sg7
I2
s(dp9
g6
I1
sg7
I2
s(dp10
g6
I2
sg7
I2
s(dp11
g6
I0
sg7
I1
s(dp12
g6
I1
sg7
I1
s(dp13
g6
I6
sg7
I255
s(dp14
g6
I0
sg7
I2
s(dp15
g6
I1
sg7
I2
s(dp16
g6
I2
sg7
I2
s(dp17
g6
I2
sg7
I1
s(dp18
g6
I1
sg7
I1
s(dp19
g6
I9
sg7
I255
s(dp20
g6
I0
sg7
I2
s(dp21
g6
I1
sg7
I2
s(dp22
g6
I2
sg7
I2
s(dp23
g6
I0
sg7
I1
s(dp24
g6
I1
sg7
I1
s(dp25
g6
I12
sg7
I255
s(dp26
g6
I0
sg7
I2
s(dp27
g6
I1
sg7
I2
s(dp28
g6
I2
sg7
I2
s(dp29
g6
I2
sg7
I1
s(dp30
g6
I1
sg7
I1
stp31
sS'vHints'
p32
((I44
I113
t(I210
I112
t(I438
I114
ttp33
sS'hHints'
p34
((I0
I191
t(I606
I-20
t(I-11
I98
ttp35
ss."
LayerCount: 2
Fore
SplineSet
44 0 m 257
 157 0 l 257
 157 606 l 257
 44 606 l 257
 44 0 l 257
552 606 m 257
 438 606 l 257
 438 153 l 258
 438 110 419 87 381 87 c 256
 342 87 322 110 322 153 c 258
 322 191 l 257
 210 191 l 257
 210 144 l 258
 210 43 271 -11 381 -11 c 256
 491 -11 552 43 552 144 c 258
 552 606 l 257
EndSplineSet
EndChar

StartChar: Iacute
Encoding: 205 205 50
Width: 202
VWidth: 0
Flags: W
PickledData: "(dp1
S'org.robofab.postScriptHintData'
p2
(dp3
S'vHints'
p4
((I44
I113
ttp5
sS'hHints'
p6
((I21
I-21
t(I606
I-20
t(I664
I117
ttp7
ss."
LayerCount: 2
Fore
SplineSet
128 664 m 257
 223 778 l 257
 222 781 l 257
 116 781 l 257
 40 664 l 257
 128 664 l 257
44 0 m 257
 157 0 l 257
 157 606 l 257
 44 606 l 257
 44 0 l 257
EndSplineSet
EndChar

StartChar: Ibreve
Encoding: 300 300 51
Width: 202
VWidth: 0
Flags: W
PickledData: "(dp1
S'org.robofab.postScriptHintData'
p2
(dp3
S'vHints'
p4
((I44
I113
ttp5
sS'hHints'
p6
((I21
I-21
t(I606
I-20
t(I686
I95
ttp7
ss."
LayerCount: 2
Fore
SplineSet
154 781 m 257
 152 768 131 751 101 751 c 256
 72 751 51 768 49 781 c 257
 -18 781 l 257
 -18 736 28 686 101 686 c 256
 174 686 219 736 219 781 c 257
 154 781 l 257
44 606 m 257
 44 0 l 257
 157 0 l 257
 157 606 l 257
 44 606 l 257
EndSplineSet
EndChar

StartChar: Icircumflex
Encoding: 206 206 52
Width: 202
VWidth: 0
Flags: W
PickledData: "(dp1
S'org.robofab.postScriptHintData'
p2
(dp3
S'vHints'
p4
((I44
I113
ttp5
sS'hHints'
p6
((I21
I-21
t(I606
I-20
t(I661
I120
ttp7
ss."
LayerCount: 2
Fore
SplineSet
102 722 m 257
 141 661 l 257
 220 661 l 257
 145 781 l 257
 58 781 l 257
 -19 661 l 257
 62 661 l 257
 102 722 l 257
44 606 m 257
 44 0 l 257
 157 0 l 257
 157 606 l 257
 44 606 l 257
EndSplineSet
EndChar

StartChar: Idieresis
Encoding: 207 207 53
Width: 202
VWidth: 0
Flags: W
PickledData: "(dp1
S'org.robofab.postScriptHintData'
p2
(dp3
S'replaceTable'
p4
((dp5
S'index'
p6
I0
sS'type'
p7
I255
s(dp8
g6
I0
sg7
I2
s(dp9
g6
I1
sg7
I2
s(dp10
g6
I0
sg7
I1
s(dp11
g6
I1
sg7
I1
s(dp12
g6
I2
sg7
I1
s(dp13
g6
I8
sg7
I255
s(dp14
g6
I2
sg7
I2
s(dp15
g6
I0
sg7
I1
s(dp16
g6
I1
sg7
I1
s(dp17
g6
I2
sg7
I1
stp18
sS'vHints'
p19
((I-20
I88
t(I134
I89
t(I44
I113
ttp20
sS'hHints'
p21
((I21
I-21
t(I606
I-20
t(I684
I97
ttp22
ss."
LayerCount: 2
Fore
SplineSet
-20 684 m 257
 68 684 l 257
 68 781 l 257
 -20 781 l 257
 -20 684 l 257
134 684 m 257
 223 684 l 257
 223 781 l 257
 134 781 l 257
 134 684 l 257
44 0 m 257
 157 0 l 257
 157 606 l 257
 44 606 l 257
 44 0 l 257
EndSplineSet
EndChar

StartChar: Idotaccent
Encoding: 304 304 54
Width: 202
VWidth: 0
Flags: W
PickledData: "(dp1
S'org.robofab.postScriptHintData'
p2
(dp3
S'replaceTable'
p4
((dp5
S'index'
p6
I0
sS'type'
p7
I255
s(dp8
g6
I0
sg7
I2
s(dp9
g6
I0
sg7
I1
s(dp10
g6
I1
sg7
I1
s(dp11
g6
I2
sg7
I1
s(dp12
g6
I4
sg7
I255
s(dp13
g6
I1
sg7
I2
s(dp14
g6
I0
sg7
I1
s(dp15
g6
I1
sg7
I1
s(dp16
g6
I2
sg7
I1
stp17
sS'vHints'
p18
((I54
I95
t(I44
I113
ttp19
sS'hHints'
p20
((I21
I-21
t(I606
I-20
t(I679
I102
ttp21
ss."
LayerCount: 2
Fore
SplineSet
54 781 m 257
 54 679 l 257
 149 679 l 257
 149 781 l 257
 54 781 l 257
44 606 m 257
 44 0 l 257
 157 0 l 257
 157 606 l 257
 44 606 l 257
EndSplineSet
EndChar

StartChar: Igrave
Encoding: 204 204 55
Width: 202
VWidth: 0
Flags: W
PickledData: "(dp1
S'org.robofab.postScriptHintData'
p2
(dp3
S'vHints'
p4
((I44
I113
ttp5
sS'hHints'
p6
((I21
I-21
t(I606
I-20
t(I664
I117
ttp7
ss."
LayerCount: 2
Fore
SplineSet
74 664 m 257
 162 664 l 257
 86 781 l 257
 -20 781 l 257
 -21 778 l 257
 74 664 l 257
44 0 m 257
 157 0 l 257
 157 606 l 257
 44 606 l 257
 44 0 l 257
EndSplineSet
EndChar

StartChar: Imacron
Encoding: 298 298 56
Width: 202
VWidth: 0
Flags: W
PickledData: "(dp1
S'org.robofab.postScriptHintData'
p2
(dp3
S'vHints'
p4
((I44
I113
ttp5
sS'hHints'
p6
((I21
I-21
t(I606
I-20
t(I671
I77
ttp7
ss."
LayerCount: 2
Fore
SplineSet
-12 748 m 257
 -12 671 l 257
 214 671 l 257
 214 748 l 257
 -12 748 l 257
44 606 m 257
 44 0 l 257
 157 0 l 257
 157 606 l 257
 44 606 l 257
EndSplineSet
EndChar

StartChar: Iogonek
Encoding: 302 302 57
Width: 202
VWidth: 0
Flags: W
PickledData: "(dp1
S'org.robofab.postScriptHintData'
p2
(dp3
S'replaceTable'
p4
((dp5
S'index'
p6
I0
sS'type'
p7
I255
s(dp8
g6
I0
sg7
I2
s(dp9
g6
I0
sg7
I1
s(dp10
g6
I1
sg7
I1
s(dp11
g6
I2
sg7
I1
s(dp12
g6
I4
sg7
I255
s(dp13
g6
I0
sg7
I2
s(dp14
g6
I3
sg7
I1
s(dp15
g6
I1
sg7
I1
s(dp16
g6
I2
sg7
I1
s(dp17
g6
I6
sg7
I255
s(dp18
g6
I0
sg7
I2
s(dp19
g6
I0
sg7
I1
s(dp20
g6
I1
sg7
I1
s(dp21
g6
I2
sg7
I1
s(dp22
g6
I7
sg7
I255
s(dp23
g6
I0
sg7
I2
s(dp24
g6
I4
sg7
I1
s(dp25
g6
I1
sg7
I1
s(dp26
g6
I2
sg7
I1
stp27
sS'vHints'
p28
((I44
I113
ttp29
sS'hHints'
p30
((I-135
I-21
t(I21
I-21
t(I606
I-20
t(I-168
I61
t(I-156
I49
ttp31
ss."
LayerCount: 2
Fore
SplineSet
157 606 m 257
 44 606 l 257
 44 0 l 257
 83 0 l 257
 62 -22 44 -47 44 -88 c 256
 44 -149 92 -168 132 -168 c 256
 151 -168 170 -164 190 -156 c 257
 190 -107 l 257
 171 -107 l 258
 141 -107 131 -85 131 -62 c 256
 131 -37 148 -12 157 0 c 257
 157 606 l 257
EndSplineSet
EndChar

StartChar: Itilde
Encoding: 296 296 58
Width: 202
VWidth: 0
Flags: W
PickledData: "(dp1
S'org.robofab.postScriptHintData'
p2
(dp3
S'replaceTable'
p4
((dp5
S'index'
p6
I0
sS'type'
p7
I255
s(dp8
g6
I0
sg7
I2
s(dp9
g6
I0
sg7
I1
s(dp10
g6
I1
sg7
I1
s(dp11
g6
I2
sg7
I1
s(dp12
g6
I1
sg7
I255
s(dp13
g6
I0
sg7
I2
s(dp14
g6
I0
sg7
I1
s(dp15
g6
I1
sg7
I1
s(dp16
g6
I3
sg7
I1
s(dp17
g6
I2
sg7
I255
s(dp18
g6
I0
sg7
I2
s(dp19
g6
I0
sg7
I1
s(dp20
g6
I1
sg7
I1
s(dp21
g6
I2
sg7
I1
s(dp22
g6
I3
sg7
I255
s(dp23
g6
I0
sg7
I2
s(dp24
g6
I0
sg7
I1
s(dp25
g6
I1
sg7
I1
s(dp26
g6
I3
sg7
I1
s(dp27
g6
I5
sg7
I255
s(dp28
g6
I0
sg7
I2
s(dp29
g6
I0
sg7
I1
s(dp30
g6
I1
sg7
I1
s(dp31
g6
I2
sg7
I1
s(dp32
g6
I6
sg7
I255
s(dp33
g6
I0
sg7
I2
s(dp34
g6
I0
sg7
I1
s(dp35
g6
I1
sg7
I1
s(dp36
g6
I3
sg7
I1
s(dp37
g6
I7
sg7
I255
s(dp38
g6
I0
sg7
I2
s(dp39
g6
I0
sg7
I1
s(dp40
g6
I1
sg7
I1
s(dp41
g6
I2
sg7
I1
stp42
sS'vHints'
p43
((I44
I113
ttp44
sS'hHints'
p45
((I21
I-21
t(I606
I-20
t(I705
I76
t(I673
I75
ttp46
ss."
LayerCount: 2
Fore
SplineSet
191 781 m 257
 187 756 176 748 157 748 c 256
 117 748 83 781 39 781 c 256
 -23 781 -48 721 -48 673 c 257
 11 673 l 257
 15 697 27 705 46 705 c 256
 86 705 120 673 163 673 c 256
 225 673 250 732 250 781 c 257
 191 781 l 257
44 606 m 257
 44 0 l 257
 157 0 l 257
 157 606 l 257
 44 606 l 257
EndSplineSet
EndChar

StartChar: J
Encoding: 74 74 59
Width: 403
VWidth: 0
Flags: W
PickledData: "(dp1
S'org.robofab.postScriptHintData'
p2
(dp3
S'replaceTable'
p4
((dp5
S'index'
p6
I0
sS'type'
p7
I255
s(dp8
g6
I0
sg7
I2
s(dp9
g6
I1
sg7
I2
s(dp10
g6
I0
sg7
I1
s(dp11
g6
I1
sg7
I1
s(dp12
g6
I5
sg7
I255
s(dp13
g6
I0
sg7
I2
s(dp14
g6
I1
sg7
I2
s(dp15
g6
I2
sg7
I1
s(dp16
g6
I1
sg7
I1
s(dp17
g6
I8
sg7
I255
s(dp18
g6
I0
sg7
I2
s(dp19
g6
I1
sg7
I2
s(dp20
g6
I0
sg7
I1
s(dp21
g6
I1
sg7
I1
stp22
sS'vHints'
p23
((I8
I112
t(I237
I113
ttp24
sS'hHints'
p25
((I-11
I98
t(I606
I-20
t(I-11
I202
ttp26
ss."
AnchorPoint: "top" 202 606 basechar 0
LayerCount: 2
Fore
SplineSet
350 606 m 257
 237 606 l 257
 237 153 l 258
 237 110 217 87 179 87 c 256
 141 87 120 110 120 153 c 258
 120 191 l 257
 8 191 l 257
 8 144 l 258
 8 43 70 -11 179 -11 c 256
 289 -11 350 43 350 144 c 258
 350 606 l 257
EndSplineSet
EndChar

StartChar: Jcircumflex
Encoding: 308 308 60
Width: 403
VWidth: 0
Flags: W
PickledData: "(dp1
S'org.robofab.postScriptHintData'
p2
(dp3
S'replaceTable'
p4
((dp5
S'index'
p6
I0
sS'type'
p7
I255
s(dp8
g6
I0
sg7
I2
s(dp9
g6
I1
sg7
I2
s(dp10
g6
I0
sg7
I1
s(dp11
g6
I1
sg7
I1
s(dp12
g6
I2
sg7
I1
s(dp13
g6
I12
sg7
I255
s(dp14
g6
I0
sg7
I2
s(dp15
g6
I1
sg7
I2
s(dp16
g6
I3
sg7
I1
s(dp17
g6
I1
sg7
I1
s(dp18
g6
I2
sg7
I1
s(dp19
g6
I15
sg7
I255
s(dp20
g6
I0
sg7
I2
s(dp21
g6
I1
sg7
I2
s(dp22
g6
I0
sg7
I1
s(dp23
g6
I1
sg7
I1
s(dp24
g6
I2
sg7
I1
stp25
sS'vHints'
p26
((I8
I112
t(I237
I113
ttp27
sS'hHints'
p28
((I-11
I98
t(I606
I-20
t(I661
I120
t(I-11
I202
ttp29
ss."
LayerCount: 2
Fore
SplineSet
345 661 m 257
 423 661 l 257
 349 781 l 257
 262 781 l 257
 186 661 l 257
 265 661 l 257
 305 722 l 257
 345 661 l 257
350 606 m 257
 237 606 l 257
 237 153 l 258
 237 110 217 87 179 87 c 256
 141 87 120 110 120 153 c 258
 120 191 l 257
 8 191 l 257
 8 144 l 258
 8 43 70 -11 179 -11 c 256
 289 -11 350 43 350 144 c 258
 350 606 l 257
EndSplineSet
EndChar

StartChar: K
Encoding: 75 75 61
Width: 523
VWidth: 0
Flags: W
PickledData: "(dp1
S'org.robofab.postScriptHintData'
p2
(dp3
S'vHints'
p4
((I53
I114
ttp5
sS'hHints'
p6
((I21
I-21
t(I606
I-20
ttp7
ss."
AnchorPoint: "top" 262 606 basechar 0
AnchorPoint: "bottom" 262 0 basechar 0
LayerCount: 2
Fore
SplineSet
515 606 m 257
 389 606 l 257
 167 296 l 257
 167 606 l 257
 53 606 l 257
 53 0 l 257
 167 0 l 257
 167 155 l 257
 262 271 l 257
 393 0 l 257
 521 0 l 257
 336 360 l 257
 515 606 l 257
EndSplineSet
EndChar

StartChar: Kcommaaccent
Encoding: 310 310 62
Width: 523
VWidth: 0
Flags: W
PickledData: "(dp1
S'org.robofab.postScriptHintData'
p2
(dp3
S'vHints'
p4
((I53
I114
t(I207
I109
ttp5
sS'hHints'
p6
((I-157
I108
t(I21
I-21
t(I606
I-20
ttp7
ss."
LayerCount: 2
Fore
SplineSet
515 606 m 257
 389 606 l 257
 167 296 l 257
 167 606 l 257
 53 606 l 257
 53 0 l 257
 167 0 l 257
 167 155 l 257
 262 271 l 257
 393 0 l 257
 521 0 l 257
 336 360 l 257
 515 606 l 257
219 -232 m 257
 276 -232 l 257
 316 -148 l 257
 316 -49 l 257
 207 -49 l 257
 207 -157 l 257
 250 -157 l 257
 219 -232 l 257
EndSplineSet
EndChar

StartChar: L
Encoding: 76 76 63
Width: 443
VWidth: 0
Flags: W
PickledData: "(dp1
S'org.robofab.postScriptHintData'
p2
(dp3
S'vHints'
p4
((I53
I113
ttp5
sS'hHints'
p6
((I0
I106
t(I606
I-20
ttp7
ss."
AnchorPoint: "top" 222 606 basechar 0
AnchorPoint: "bottom" 222 0 basechar 0
LayerCount: 2
Fore
SplineSet
423 106 m 257
 166 106 l 257
 166 606 l 257
 53 606 l 257
 53 0 l 257
 423 0 l 257
 423 106 l 257
EndSplineSet
EndChar

StartChar: Lacute
Encoding: 313 313 64
Width: 443
VWidth: 0
Flags: W
PickledData: "(dp1
S'org.robofab.postScriptHintData'
p2
(dp3
S'vHints'
p4
((I53
I113
ttp5
sS'hHints'
p6
((I0
I106
t(I606
I-20
t(I664
I117
ttp7
ss."
LayerCount: 2
Fore
SplineSet
139 664 m 257
 234 778 l 257
 233 781 l 257
 127 781 l 257
 51 664 l 257
 139 664 l 257
423 106 m 257
 166 106 l 257
 166 606 l 257
 53 606 l 257
 53 0 l 257
 423 0 l 257
 423 106 l 257
EndSplineSet
EndChar

StartChar: Lcaron
Encoding: 317 317 65
Width: 443
VWidth: 0
Flags: W
PickledData: "(dp1
S'org.robofab.postScriptHintData'
p2
(dp3
S'vHints'
p4
((I53
I113
t(I301
I122
ttp5
sS'hHints'
p6
((I0
I106
t(I485
I121
ttp7
ss."
LayerCount: 2
Fore
SplineSet
423 106 m 257
 166 106 l 257
 166 606 l 257
 53 606 l 257
 53 0 l 257
 423 0 l 257
 423 106 l 257
364 347 m 257
 423 496 l 257
 423 606 l 257
 301 606 l 257
 301 485 l 257
 349 485 l 257
 301 347 l 257
 364 347 l 257
EndSplineSet
EndChar

StartChar: Lcommaaccent
Encoding: 315 315 66
Width: 443
VWidth: 0
Flags: W
PickledData: "(dp1
S'org.robofab.postScriptHintData'
p2
(dp3
S'replaceTable'
p4
((dp5
S'index'
p6
I0
sS'type'
p7
I255
s(dp8
g6
I0
sg7
I2
s(dp9
g6
I0
sg7
I1
s(dp10
g6
I1
sg7
I1
s(dp11
g6
I2
sg7
I1
s(dp12
g6
I6
sg7
I255
s(dp13
g6
I1
sg7
I2
s(dp14
g6
I0
sg7
I1
s(dp15
g6
I1
sg7
I1
s(dp16
g6
I2
sg7
I1
stp17
sS'vHints'
p18
((I53
I113
t(I167
I109
ttp19
sS'hHints'
p20
((I-157
I108
t(I0
I106
t(I606
I-20
ttp21
ss."
LayerCount: 2
Fore
SplineSet
423 106 m 257
 166 106 l 257
 166 606 l 257
 53 606 l 257
 53 0 l 257
 423 0 l 257
 423 106 l 257
236 -232 m 257
 276 -148 l 257
 276 -49 l 257
 167 -49 l 257
 167 -157 l 257
 210 -157 l 257
 179 -232 l 257
 236 -232 l 257
EndSplineSet
EndChar

StartChar: Ldot
Encoding: 319 319 67
Width: 443
VWidth: 0
Flags: W
PickledData: "(dp1
S'org.robofab.postScriptHintData'
p2
(dp3
S'vHints'
p4
((I53
I113
t(I277
I94
ttp5
sS'hHints'
p6
((I0
I106
t(I362
I101
t(I606
I-20
ttp7
ss."
LayerCount: 2
Fore
SplineSet
423 106 m 257
 166 106 l 257
 166 606 l 257
 53 606 l 257
 53 0 l 257
 423 0 l 257
 423 106 l 257
277 362 m 257
 371 362 l 257
 371 463 l 257
 277 463 l 257
 277 362 l 257
EndSplineSet
EndChar

StartChar: Lslash
Encoding: 321 321 68
Width: 443
VWidth: 0
Flags: W
PickledData: "(dp1
S'org.robofab.postScriptHintData'
p2
(dp3
S'vHints'
p4
((I53
I113
ttp5
sS'hHints'
p6
((I0
I106
t(I606
I-20
ttp7
ss."
LayerCount: 2
Fore
SplineSet
269 486 m 257
 166 394 l 257
 166 606 l 257
 53 606 l 257
 53 293 l 257
 0 247 l 257
 0 163 l 257
 53 210 l 257
 53 0 l 257
 423 0 l 257
 423 106 l 257
 166 106 l 257
 166 309 l 257
 269 400 l 257
 269 486 l 257
EndSplineSet
EndChar

StartChar: M
Encoding: 77 77 69
Width: 604
VWidth: 0
Flags: W
PickledData: "(dp1
S'org.robofab.postScriptHintData'
p2
(dp3
S'replaceTable'
p4
((dp5
S'index'
p6
I0
sS'type'
p7
I255
s(dp8
g6
I0
sg7
I2
s(dp9
g6
I1
sg7
I2
s(dp10
g6
I0
sg7
I1
s(dp11
g6
I1
sg7
I1
s(dp12
g6
I5
sg7
I255
s(dp13
g6
I0
sg7
I2
s(dp14
g6
I1
sg7
I2
s(dp15
g6
I2
sg7
I1
s(dp16
g6
I1
sg7
I1
stp17
sS'vHints'
p18
((I47
I96
t(I453
I104
ttp19
sS'hHints'
p20
((I21
I-21
t(I484
I122
t(I0
I135
ttp21
ss."
LayerCount: 2
Fore
SplineSet
453 0 m 257
 557 0 l 257
 557 606 l 257
 403 606 l 257
 329 272 l 258
 321 237 309 135 309 135 c 257
 305 135 l 257
 305 135 290 232 281 272 c 258
 206 606 l 257
 47 606 l 257
 47 0 l 257
 143 0 l 257
 143 386 l 258
 143 410 139 484 139 484 c 257
 142 484 l 257
 149 452 156 421 164 389 c 258
 249 0 l 257
 347 0 l 257
 438 415 l 258
 444 438 448 461 453 484 c 257
 457 484 l 257
 457 484 453 414 453 386 c 258
 453 0 l 257
EndSplineSet
EndChar

StartChar: N
Encoding: 78 78 70
Width: 523
VWidth: 0
Flags: W
PickledData: "(dp1
S'org.robofab.postScriptHintData'
p2
(dp3
S'vHints'
p4
((I53
I100
t(I370
I100
ttp5
sS'hHints'
p6
((I21
I-21
t(I606
I-20
ttp7
ss."
AnchorPoint: "top" 262 606 basechar 0
AnchorPoint: "bottom" 262 0 basechar 0
LayerCount: 2
Fore
SplineSet
370 0 m 257
 470 0 l 257
 470 606 l 257
 370 606 l 257
 370 218 l 257
 368 216 l 257
 368 216 350 257 340 272 c 257
 153 606 l 257
 53 606 l 257
 53 0 l 257
 153 0 l 257
 153 338 l 258
 153 354 151 388 151 388 c 257
 155 391 l 257
 155 391 175 347 182 334 c 258
 370 0 l 257
EndSplineSet
EndChar

StartChar: Nacute
Encoding: 323 323 72
Width: 523
VWidth: 0
Flags: W
PickledData: "(dp1
S'org.robofab.postScriptHintData'
p2
(dp3
S'vHints'
p4
((I53
I100
t(I370
I100
ttp5
sS'hHints'
p6
((I21
I-21
t(I606
I-20
t(I664
I117
ttp7
ss."
LayerCount: 2
Fore
SplineSet
370 0 m 257
 470 0 l 257
 470 606 l 257
 370 606 l 257
 370 218 l 257
 368 216 l 257
 368 216 350 257 340 272 c 257
 153 606 l 257
 53 606 l 257
 53 0 l 257
 153 0 l 257
 153 338 l 258
 153 354 151 388 151 388 c 257
 155 391 l 257
 155 391 175 347 182 334 c 258
 370 0 l 257
288 664 m 257
 384 778 l 257
 383 781 l 257
 277 781 l 257
 201 664 l 257
 288 664 l 257
EndSplineSet
EndChar

StartChar: Ncaron
Encoding: 327 327 73
Width: 523
VWidth: 0
Flags: W
PickledData: "(dp1
S'org.robofab.postScriptHintData'
p2
(dp3
S'vHints'
p4
((I53
I100
t(I370
I100
ttp5
sS'hHints'
p6
((I21
I-21
t(I606
I-20
t(I661
I120
ttp7
ss."
LayerCount: 2
Fore
SplineSet
370 0 m 257
 470 0 l 257
 470 606 l 257
 370 606 l 257
 370 218 l 257
 368 216 l 257
 368 216 350 257 340 272 c 257
 153 606 l 257
 53 606 l 257
 53 0 l 257
 153 0 l 257
 153 338 l 258
 153 354 151 388 151 388 c 257
 155 391 l 257
 155 391 175 347 182 334 c 258
 370 0 l 257
219 661 m 257
 306 661 l 257
 381 781 l 257
 301 781 l 257
 262 720 l 257
 222 781 l 257
 143 781 l 257
 219 661 l 257
EndSplineSet
EndChar

StartChar: Ncommaaccent
Encoding: 325 325 74
Width: 523
VWidth: 0
Flags: W
PickledData: "(dp1
S'org.robofab.postScriptHintData'
p2
(dp3
S'vHints'
p4
((I53
I100
t(I207
I109
t(I370
I100
ttp5
sS'hHints'
p6
((I-157
I108
t(I21
I-21
t(I606
I-20
ttp7
ss."
LayerCount: 2
Fore
SplineSet
370 0 m 257
 470 0 l 257
 470 606 l 257
 370 606 l 257
 370 218 l 257
 368 216 l 257
 368 216 350 257 340 272 c 257
 153 606 l 257
 53 606 l 257
 53 0 l 257
 153 0 l 257
 153 338 l 258
 153 354 151 388 151 388 c 257
 155 391 l 257
 155 391 175 347 182 334 c 258
 370 0 l 257
276 -232 m 257
 316 -148 l 257
 316 -49 l 257
 207 -49 l 257
 207 -157 l 257
 250 -157 l 257
 219 -232 l 257
 276 -232 l 257
EndSplineSet
EndChar

StartChar: Ntilde
Encoding: 209 209 75
Width: 523
VWidth: 0
Flags: W
PickledData: "(dp1
S'org.robofab.postScriptHintData'
p2
(dp3
S'replaceTable'
p4
((dp5
S'index'
p6
I0
sS'type'
p7
I255
s(dp8
g6
I0
sg7
I2
s(dp9
g6
I1
sg7
I2
s(dp10
g6
I0
sg7
I1
s(dp11
g6
I1
sg7
I1
s(dp12
g6
I2
sg7
I1
s(dp13
g6
I15
sg7
I255
s(dp14
g6
I0
sg7
I2
s(dp15
g6
I1
sg7
I2
s(dp16
g6
I0
sg7
I1
s(dp17
g6
I1
sg7
I1
s(dp18
g6
I3
sg7
I1
s(dp19
g6
I16
sg7
I255
s(dp20
g6
I0
sg7
I2
s(dp21
g6
I1
sg7
I2
s(dp22
g6
I0
sg7
I1
s(dp23
g6
I1
sg7
I1
s(dp24
g6
I2
sg7
I1
s(dp25
g6
I17
sg7
I255
s(dp26
g6
I0
sg7
I2
s(dp27
g6
I1
sg7
I2
s(dp28
g6
I0
sg7
I1
s(dp29
g6
I1
sg7
I1
s(dp30
g6
I3
sg7
I1
s(dp31
g6
I18
sg7
I255
s(dp32
g6
I0
sg7
I2
s(dp33
g6
I1
sg7
I2
s(dp34
g6
I0
sg7
I1
s(dp35
g6
I1
sg7
I1
s(dp36
g6
I2
sg7
I1
s(dp37
g6
I20
sg7
I255
s(dp38
g6
I0
sg7
I2
s(dp39
g6
I1
sg7
I2
s(dp40
g6
I0
sg7
I1
s(dp41
g6
I1
sg7
I1
s(dp42
g6
I3
sg7
I1
s(dp43
g6
I21
sg7
I255
s(dp44
g6
I0
sg7
I2
s(dp45
g6
I1
sg7
I2
s(dp46
g6
I0
sg7
I1
s(dp47
g6
I1
sg7
I1
s(dp48
g6
I2
sg7
I1
s(dp49
g6
I22
sg7
I255
s(dp50
g6
I0
sg7
I2
s(dp51
g6
I1
sg7
I2
s(dp52
g6
I0
sg7
I1
s(dp53
g6
I1
sg7
I1
s(dp54
g6
I3
sg7
I1
stp55
sS'vHints'
p56
((I53
I100
t(I370
I100
ttp57
sS'hHints'
p58
((I21
I-21
t(I606
I-20
t(I673
I75
t(I705
I76
ttp59
ss."
LayerCount: 2
Fore
SplineSet
370 0 m 257
 470 0 l 257
 470 606 l 257
 370 606 l 257
 370 218 l 257
 368 216 l 257
 368 216 350 257 340 272 c 257
 153 606 l 257
 53 606 l 257
 53 0 l 257
 153 0 l 257
 153 338 l 258
 153 354 151 388 151 388 c 257
 155 391 l 257
 155 391 175 347 182 334 c 258
 370 0 l 257
352 781 m 257
 348 756 336 748 317 748 c 256
 278 748 243 781 200 781 c 256
 138 781 113 721 113 673 c 257
 171 673 l 257
 175 697 187 705 206 705 c 256
 246 705 280 673 323 673 c 256
 385 673 410 732 410 781 c 257
 352 781 l 257
EndSplineSet
EndChar

StartChar: O
Encoding: 79 79 76
Width: 564
VWidth: 0
Flags: W
PickledData: "(dp1
S'org.robofab.postScriptHintData'
p2
(dp3
S'vHints'
p4
((I30
I117
t(I417
I117
ttp5
sS'hHints'
p6
((I-11
I98
t(I520
I97
ttp7
ss."
AnchorPoint: "top" 282 606 basechar 0
LayerCount: 2
Fore
SplineSet
282 617 m 256
 126 617 30 517 30 303 c 256
 30 89 126 -11 282 -11 c 256
 438 -11 534 89 534 303 c 256
 534 517 438 617 282 617 c 256
417 281 m 258
 417 160 372 87 282 87 c 256
 192 87 147 160 147 281 c 258
 147 325 l 258
 147 446 192 520 282 520 c 256
 372 520 417 446 417 325 c 258
 417 281 l 258
EndSplineSet
EndChar

StartChar: OE
Encoding: 338 338 77
Width: 725
VWidth: 0
Flags: W
PickledData: "(dp1
S'org.robofab.postScriptHintData'
p2
(dp3
S'replaceTable'
p4
((dp5
S'index'
p6
I0
sS'type'
p7
I255
s(dp8
g6
I0
sg7
I2
s(dp9
g6
I1
sg7
I2
s(dp10
g6
I0
sg7
I1
s(dp11
g6
I1
sg7
I1
s(dp12
g6
I2
sg7
I1
s(dp13
g6
I12
sg7
I255
s(dp14
g6
I0
sg7
I2
s(dp15
g6
I1
sg7
I2
s(dp16
g6
I3
sg7
I1
s(dp17
g6
I1
sg7
I1
s(dp18
g6
I4
sg7
I1
stp19
sS'vHints'
p20
((I27
I116
t(I360
I114
ttp21
sS'hHints'
p22
((I0
I101
t(I260
I101
t(I506
I100
t(I-11
I98
t(I520
I97
ttp23
ss."
AnchorPoint: "top" 362 606 basechar 0
LayerCount: 2
Fore
SplineSet
361 0 m 257
 700 0 l 257
 700 101 l 257
 474 101 l 257
 474 260 l 257
 656 260 l 257
 656 361 l 257
 474 361 l 257
 474 506 l 257
 694 506 l 257
 694 606 l 257
 361 606 l 257
 361 552 l 257
 327 596 282 617 228 617 c 256
 103 617 27 517 27 303 c 256
 27 89 103 -11 228 -11 c 256
 282 -11 327 10 361 54 c 257
 361 0 l 257
360 281 m 258
 360 142 324 87 251 87 c 256
 179 87 143 142 143 281 c 258
 143 325 l 258
 143 464 179 520 251 520 c 256
 324 520 360 464 360 325 c 258
 360 281 l 258
EndSplineSet
EndChar

StartChar: Oacute
Encoding: 211 211 78
Width: 564
VWidth: 0
Flags: W
PickledData: "(dp1
S'org.robofab.postScriptHintData'
p2
(dp3
S'vHints'
p4
((I30
I117
t(I417
I117
ttp5
sS'hHints'
p6
((I-11
I98
t(I520
I97
t(I664
I117
ttp7
ss."
LayerCount: 2
Fore
SplineSet
309 664 m 257
 405 778 l 257
 404 781 l 257
 297 781 l 257
 221 664 l 257
 309 664 l 257
282 617 m 256
 126 617 30 517 30 303 c 256
 30 89 126 -11 282 -11 c 256
 438 -11 534 89 534 303 c 256
 534 517 438 617 282 617 c 256
417 281 m 258
 417 160 372 87 282 87 c 256
 192 87 147 160 147 281 c 258
 147 325 l 258
 147 446 192 520 282 520 c 256
 372 520 417 446 417 325 c 258
 417 281 l 258
EndSplineSet
EndChar

StartChar: Obreve
Encoding: 334 334 79
Width: 564
VWidth: 0
Flags: W
PickledData: "(dp1
S'org.robofab.postScriptHintData'
p2
(dp3
S'vHints'
p4
((I30
I117
t(I417
I117
ttp5
sS'hHints'
p6
((I-11
I98
t(I520
I97
t(I686
I95
ttp7
ss."
LayerCount: 2
Fore
SplineSet
335 781 m 257
 333 768 312 751 282 751 c 256
 253 751 232 768 230 781 c 257
 164 781 l 257
 164 736 210 686 282 686 c 256
 355 686 400 736 400 781 c 257
 335 781 l 257
282 617 m 256
 126 617 30 517 30 303 c 256
 30 89 126 -11 282 -11 c 256
 438 -11 534 89 534 303 c 256
 534 517 438 617 282 617 c 256
417 281 m 258
 417 160 372 87 282 87 c 256
 192 87 147 160 147 281 c 258
 147 325 l 258
 147 446 192 520 282 520 c 256
 372 520 417 446 417 325 c 258
 417 281 l 258
EndSplineSet
EndChar

StartChar: Ocircumflex
Encoding: 212 212 80
Width: 564
VWidth: 0
Flags: W
PickledData: "(dp1
S'org.robofab.postScriptHintData'
p2
(dp3
S'vHints'
p4
((I30
I117
t(I417
I117
ttp5
sS'hHints'
p6
((I-11
I98
t(I520
I97
t(I661
I120
ttp7
ss."
LayerCount: 2
Fore
SplineSet
283 722 m 257
 322 661 l 257
 401 661 l 257
 326 781 l 257
 240 781 l 257
 164 661 l 257
 243 661 l 257
 283 722 l 257
282 617 m 256
 126 617 30 517 30 303 c 256
 30 89 126 -11 282 -11 c 256
 438 -11 534 89 534 303 c 256
 534 517 438 617 282 617 c 256
417 281 m 258
 417 160 372 87 282 87 c 256
 192 87 147 160 147 281 c 258
 147 325 l 258
 147 446 192 520 282 520 c 256
 372 520 417 446 417 325 c 258
 417 281 l 258
EndSplineSet
EndChar

StartChar: Odieresis
Encoding: 214 214 81
Width: 564
VWidth: 0
Flags: W
PickledData: "(dp1
S'org.robofab.postScriptHintData'
p2
(dp3
S'replaceTable'
p4
((dp5
S'index'
p6
I0
sS'type'
p7
I255
s(dp8
g6
I0
sg7
I2
s(dp9
g6
I1
sg7
I2
s(dp10
g6
I2
sg7
I2
s(dp11
g6
I3
sg7
I2
s(dp12
g6
I0
sg7
I1
s(dp13
g6
I1
sg7
I1
s(dp14
g6
I2
sg7
I1
s(dp15
g6
I8
sg7
I255
s(dp16
g6
I0
sg7
I2
s(dp17
g6
I3
sg7
I2
s(dp18
g6
I0
sg7
I1
s(dp19
g6
I1
sg7
I1
s(dp20
g6
I2
sg7
I1
stp21
sS'vHints'
p22
((I30
I117
t(I161
I88
t(I316
I88
t(I417
I117
ttp23
sS'hHints'
p24
((I-11
I98
t(I520
I97
t(I684
I97
ttp25
ss."
LayerCount: 2
Fore
SplineSet
161 684 m 257
 249 684 l 257
 249 781 l 257
 161 781 l 257
 161 684 l 257
316 684 m 257
 404 684 l 257
 404 781 l 257
 316 781 l 257
 316 684 l 257
282 617 m 256
 126 617 30 517 30 303 c 256
 30 89 126 -11 282 -11 c 256
 438 -11 534 89 534 303 c 256
 534 517 438 617 282 617 c 256
417 281 m 258
 417 160 372 87 282 87 c 256
 192 87 147 160 147 281 c 258
 147 325 l 258
 147 446 192 520 282 520 c 256
 372 520 417 446 417 325 c 258
 417 281 l 258
EndSplineSet
EndChar

StartChar: Ograve
Encoding: 210 210 82
Width: 564
VWidth: 0
Flags: W
PickledData: "(dp1
S'org.robofab.postScriptHintData'
p2
(dp3
S'vHints'
p4
((I30
I117
t(I417
I117
ttp5
sS'hHints'
p6
((I-11
I98
t(I520
I97
t(I664
I117
ttp7
ss."
LayerCount: 2
Fore
SplineSet
255 664 m 257
 343 664 l 257
 267 781 l 257
 161 781 l 257
 160 778 l 257
 255 664 l 257
282 617 m 256
 126 617 30 517 30 303 c 256
 30 89 126 -11 282 -11 c 256
 438 -11 534 89 534 303 c 256
 534 517 438 617 282 617 c 256
417 281 m 258
 417 160 372 87 282 87 c 256
 192 87 147 160 147 281 c 258
 147 325 l 258
 147 446 192 520 282 520 c 256
 372 520 417 446 417 325 c 258
 417 281 l 258
EndSplineSet
EndChar

StartChar: Ohm
Encoding: 8486 8486 83
Width: 679
VWidth: 0
Flags: W
PickledData: "(dp1
S'org.robofab.postScriptHintData'
p2
(dp3
S'vHints'
p4
((I87
I115
t(I474
I116
ttp5
sS'hHints'
p6
((I0
I101
t(I520
I97
ttp7
ss."
LayerCount: 2
Fore
SplineSet
87 101 m 257
 87 0 l 257
 305 0 l 257
 305 72 l 257
 238 91 202 159 202 262 c 258
 202 325 l 258
 202 446 248 520 339 520 c 256
 429 520 474 446 474 325 c 258
 474 262 l 258
 474 158 440 89 372 72 c 257
 372 0 l 257
 590 0 l 257
 590 101 l 257
 568 101 l 258
 554 101 528 92 502 88 c 257
 555 133 590 204 590 303 c 256
 590 517 495 617 339 617 c 256
 182 617 87 517 87 303 c 256
 87 204 121 133 174 88 c 257
 148 92 122 101 109 101 c 258
 87 101 l 257
EndSplineSet
EndChar

StartChar: Ohungarumlaut
Encoding: 336 336 84
Width: 564
VWidth: 0
Flags: W
PickledData: "(dp1
S'org.robofab.postScriptHintData'
p2
(dp3
S'vHints'
p4
((I30
I117
t(I417
I117
ttp5
sS'hHints'
p6
((I-11
I98
t(I520
I97
t(I664
I117
ttp7
ss."
LayerCount: 2
Fore
SplineSet
253 664 m 257
 327 778 l 257
 326 781 l 257
 238 781 l 257
 183 664 l 257
 253 664 l 257
377 664 m 257
 451 778 l 257
 450 781 l 257
 362 781 l 257
 307 664 l 257
 377 664 l 257
282 617 m 256
 126 617 30 517 30 303 c 256
 30 89 126 -11 282 -11 c 256
 438 -11 534 89 534 303 c 256
 534 517 438 617 282 617 c 256
417 281 m 258
 417 160 372 87 282 87 c 256
 192 87 147 160 147 281 c 258
 147 325 l 258
 147 446 192 520 282 520 c 256
 372 520 417 446 417 325 c 258
 417 281 l 258
EndSplineSet
EndChar

StartChar: Omacron
Encoding: 332 332 85
Width: 564
VWidth: 0
Flags: W
PickledData: "(dp1
S'org.robofab.postScriptHintData'
p2
(dp3
S'replaceTable'
p4
((dp5
S'index'
p6
I0
sS'type'
p7
I255
s(dp8
g6
I0
sg7
I2
s(dp9
g6
I1
sg7
I2
s(dp10
g6
I2
sg7
I2
s(dp11
g6
I0
sg7
I1
s(dp12
g6
I1
sg7
I1
s(dp13
g6
I2
sg7
I1
s(dp14
g6
I4
sg7
I255
s(dp15
g6
I0
sg7
I2
s(dp16
g6
I2
sg7
I2
s(dp17
g6
I0
sg7
I1
s(dp18
g6
I1
sg7
I1
s(dp19
g6
I2
sg7
I1
stp20
sS'vHints'
p21
((I30
I117
t(I170
I225
t(I417
I117
ttp22
sS'hHints'
p23
((I-11
I98
t(I520
I97
t(I671
I77
ttp24
ss."
LayerCount: 2
Fore
SplineSet
170 748 m 257
 170 671 l 257
 395 671 l 257
 395 748 l 257
 170 748 l 257
282 617 m 256
 126 617 30 517 30 303 c 256
 30 89 126 -11 282 -11 c 256
 438 -11 534 89 534 303 c 256
 534 517 438 617 282 617 c 256
417 281 m 258
 417 160 372 87 282 87 c 256
 192 87 147 160 147 281 c 258
 147 325 l 258
 147 446 192 520 282 520 c 256
 372 520 417 446 417 325 c 258
 417 281 l 258
EndSplineSet
EndChar

StartChar: Omega
Encoding: 937 937 86
Width: 679
VWidth: 0
Flags: W
PickledData: "(dp1
S'org.robofab.postScriptHintData'
p2
(dp3
S'vHints'
p4
((I87
I115
t(I474
I116
ttp5
sS'hHints'
p6
((I0
I101
t(I520
I97
ttp7
ss."
AnchorPoint: "topleft" 18 606 basechar 0
LayerCount: 2
Fore
SplineSet
87 101 m 257
 87 0 l 257
 305 0 l 257
 305 72 l 257
 238 91 202 159 202 262 c 258
 202 325 l 258
 202 446 248 520 339 520 c 256
 429 520 474 446 474 325 c 258
 474 262 l 258
 474 158 440 89 372 72 c 257
 372 0 l 257
 590 0 l 257
 590 101 l 257
 568 101 l 258
 554 101 528 92 502 88 c 257
 555 133 590 204 590 303 c 256
 590 517 495 617 339 617 c 256
 182 617 87 517 87 303 c 256
 87 204 121 133 174 88 c 257
 148 92 122 101 109 101 c 258
 87 101 l 257
EndSplineSet
EndChar

StartChar: Oslash
Encoding: 216 216 87
Width: 564
VWidth: 0
Flags: W
PickledData: "(dp1
S'org.robofab.postScriptHintData'
p2
(dp3
S'replaceTable'
p4
((dp5
S'index'
p6
I0
sS'type'
p7
I255
s(dp8
g6
I0
sg7
I2
s(dp9
g6
I1
sg7
I2
s(dp10
g6
I0
sg7
I1
s(dp11
g6
I1
sg7
I1
s(dp12
g6
I2
sg7
I255
s(dp13
g6
I0
sg7
I2
s(dp14
g6
I1
sg7
I2
s(dp15
g6
I0
sg7
I1
s(dp16
g6
I2
sg7
I1
s(dp17
g6
I11
sg7
I255
s(dp18
g6
I0
sg7
I2
s(dp19
g6
I1
sg7
I2
s(dp20
g6
I0
sg7
I1
s(dp21
g6
I3
sg7
I1
s(dp22
g6
I15
sg7
I255
s(dp23
g6
I0
sg7
I2
s(dp24
g6
I1
sg7
I2
s(dp25
g6
I0
sg7
I1
s(dp26
g6
I2
sg7
I1
stp27
sS'vHints'
p28
((I30
I117
t(I417
I117
ttp29
sS'hHints'
p30
((I-11
I98
t(I639
I-20
t(I520
I97
t(I539
I100
ttp31
ss."
AnchorPoint: "top" 282 606 basechar 0
LayerCount: 2
Fore
SplineSet
530 639 m 257
 455 639 l 257
 419 582 l 257
 381 606 335 617 282 617 c 256
 126 617 30 517 30 303 c 256
 30 196 54 118 97 66 c 257
 35 -33 l 257
 110 -33 l 257
 145 24 l 257
 183 1 229 -11 282 -11 c 256
 438 -11 534 89 534 303 c 256
 534 409 510 488 467 539 c 257
 530 639 l 257
163 171 m 257
 152 202 147 239 147 281 c 258
 147 325 l 258
 147 446 192 520 282 520 c 256
 315 520 342 510 362 492 c 257
 163 171 l 257
400 433 m 257
 412 404 417 367 417 325 c 258
 417 281 l 258
 417 160 372 87 282 87 c 256
 249 87 222 96 202 114 c 257
 400 433 l 257
EndSplineSet
EndChar

StartChar: Oslashacute
Encoding: 510 510 88
Width: 564
VWidth: 0
Flags: W
PickledData: "(dp1
S'org.robofab.postScriptHintData'
p2
(dp3
S'replaceTable'
p4
((dp5
S'index'
p6
I0
sS'type'
p7
I255
s(dp8
g6
I0
sg7
I2
s(dp9
g6
I1
sg7
I2
s(dp10
g6
I0
sg7
I1
s(dp11
g6
I1
sg7
I1
s(dp12
g6
I2
sg7
I1
s(dp13
g6
I5
sg7
I255
s(dp14
g6
I0
sg7
I2
s(dp15
g6
I1
sg7
I2
s(dp16
g6
I0
sg7
I1
s(dp17
g6
I3
sg7
I1
s(dp18
g6
I2
sg7
I1
s(dp19
g6
I7
sg7
I255
s(dp20
g6
I0
sg7
I2
s(dp21
g6
I1
sg7
I2
s(dp22
g6
I0
sg7
I1
s(dp23
g6
I1
sg7
I1
s(dp24
g6
I2
sg7
I1
s(dp25
g6
I16
sg7
I255
s(dp26
g6
I0
sg7
I2
s(dp27
g6
I1
sg7
I2
s(dp28
g6
I0
sg7
I1
s(dp29
g6
I4
sg7
I1
s(dp30
g6
I2
sg7
I1
s(dp31
g6
I20
sg7
I255
s(dp32
g6
I0
sg7
I2
s(dp33
g6
I1
sg7
I2
s(dp34
g6
I0
sg7
I1
s(dp35
g6
I1
sg7
I1
s(dp36
g6
I2
sg7
I1
stp37
sS'vHints'
p38
((I30
I117
t(I417
I117
ttp39
sS'hHints'
p40
((I-11
I98
t(I520
I97
t(I664
I117
t(I639
I-20
t(I539
I100
ttp41
ss."
LayerCount: 2
Fore
SplineSet
309 664 m 257
 405 778 l 257
 404 781 l 257
 297 781 l 257
 221 664 l 257
 309 664 l 257
530 639 m 257
 455 639 l 257
 419 582 l 257
 381 606 335 617 282 617 c 256
 126 617 30 517 30 303 c 256
 30 196 54 118 97 66 c 257
 35 -33 l 257
 110 -33 l 257
 145 24 l 257
 183 1 229 -11 282 -11 c 256
 438 -11 534 89 534 303 c 256
 534 409 510 488 467 539 c 257
 530 639 l 257
163 171 m 257
 152 202 147 239 147 281 c 258
 147 325 l 258
 147 446 192 520 282 520 c 256
 315 520 342 510 362 492 c 257
 163 171 l 257
400 433 m 257
 412 404 417 367 417 325 c 258
 417 281 l 258
 417 160 372 87 282 87 c 256
 249 87 222 96 202 114 c 257
 400 433 l 257
EndSplineSet
EndChar

StartChar: Otilde
Encoding: 213 213 89
Width: 564
VWidth: 0
Flags: W
PickledData: "(dp1
S'org.robofab.postScriptHintData'
p2
(dp3
S'replaceTable'
p4
((dp5
S'index'
p6
I0
sS'type'
p7
I255
s(dp8
g6
I0
sg7
I2
s(dp9
g6
I1
sg7
I2
s(dp10
g6
I0
sg7
I1
s(dp11
g6
I1
sg7
I1
s(dp12
g6
I2
sg7
I1
s(dp13
g6
I1
sg7
I255
s(dp14
g6
I0
sg7
I2
s(dp15
g6
I1
sg7
I2
s(dp16
g6
I0
sg7
I1
s(dp17
g6
I1
sg7
I1
s(dp18
g6
I3
sg7
I1
s(dp19
g6
I2
sg7
I255
s(dp20
g6
I0
sg7
I2
s(dp21
g6
I2
sg7
I2
s(dp22
g6
I0
sg7
I1
s(dp23
g6
I1
sg7
I1
s(dp24
g6
I2
sg7
I1
s(dp25
g6
I3
sg7
I255
s(dp26
g6
I0
sg7
I2
s(dp27
g6
I2
sg7
I2
s(dp28
g6
I0
sg7
I1
s(dp29
g6
I1
sg7
I1
s(dp30
g6
I3
sg7
I1
s(dp31
g6
I5
sg7
I255
s(dp32
g6
I0
sg7
I2
s(dp33
g6
I2
sg7
I2
s(dp34
g6
I0
sg7
I1
s(dp35
g6
I1
sg7
I1
s(dp36
g6
I2
sg7
I1
s(dp37
g6
I6
sg7
I255
s(dp38
g6
I0
sg7
I2
s(dp39
g6
I1
sg7
I2
s(dp40
g6
I0
sg7
I1
s(dp41
g6
I1
sg7
I1
s(dp42
g6
I3
sg7
I1
s(dp43
g6
I7
sg7
I255
s(dp44
g6
I0
sg7
I2
s(dp45
g6
I1
sg7
I2
s(dp46
g6
I0
sg7
I1
s(dp47
g6
I1
sg7
I1
s(dp48
g6
I2
sg7
I1
s(dp49
g6
I8
sg7
I255
s(dp50
g6
I0
sg7
I2
s(dp51
g6
I2
sg7
I2
s(dp52
g6
I0
sg7
I1
s(dp53
g6
I1
sg7
I1
s(dp54
g6
I3
sg7
I1
stp55
sS'vHints'
p56
((I30
I117
t(I372
I59
t(I417
I117
ttp57
sS'hHints'
p58
((I-11
I98
t(I520
I97
t(I705
I76
t(I673
I75
ttp59
ss."
LayerCount: 2
Fore
SplineSet
372 781 m 257
 369 756 357 748 339 748 c 256
 298 748 264 781 221 781 c 256
 159 781 133 721 133 673 c 257
 193 673 l 257
 196 697 208 705 227 705 c 256
 267 705 301 673 344 673 c 256
 406 673 431 732 431 781 c 257
 372 781 l 257
282 617 m 256
 126 617 30 517 30 303 c 256
 30 89 126 -11 282 -11 c 256
 438 -11 534 89 534 303 c 256
 534 517 438 617 282 617 c 256
417 281 m 258
 417 160 372 87 282 87 c 256
 192 87 147 160 147 281 c 258
 147 325 l 258
 147 446 192 520 282 520 c 256
 372 520 417 446 417 325 c 258
 417 281 l 258
EndSplineSet
EndChar

StartChar: P
Encoding: 80 80 90
Width: 484
VWidth: 0
Flags: W
PickledData: "(dp1
S'org.robofab.postScriptHintData'
p2
(dp3
S'vHints'
p4
((I53
I113
t(I343
I117
ttp5
sS'hHints'
p6
((I21
I-21
t(I235
I100
t(I506
I100
ttp7
ss."
LayerCount: 2
Fore
SplineSet
53 0 m 257
 166 0 l 257
 166 235 l 257
 270 235 l 258
 384 235 460 310 460 424 c 256
 460 530 395 606 270 606 c 258
 53 606 l 257
 53 0 l 257
166 335 m 257
 166 506 l 257
 258 506 l 258
 312 506 343 474 343 424 c 256
 343 369 313 335 258 335 c 258
 166 335 l 257
EndSplineSet
EndChar

StartChar: Q
Encoding: 81 81 91
Width: 564
VWidth: 0
Flags: W
PickledData: "(dp1
S'org.robofab.postScriptHintData'
p2
(dp3
S'vHints'
p4
((I30
I117
t(I417
I117
ttp5
sS'hHints'
p6
((I-11
I98
t(I520
I97
ttp7
ss."
LayerCount: 2
Fore
SplineSet
293 -11 m 257
 380 -110 l 257
 519 -110 l 257
 402 15 l 257
 485 57 534 151 534 303 c 256
 534 517 438 617 282 617 c 256
 126 617 30 517 30 303 c 256
 30 89 126 -11 282 -11 c 258
 293 -11 l 257
147 325 m 258
 147 446 192 520 282 520 c 256
 372 520 417 446 417 325 c 258
 417 281 l 258
 417 160 372 87 282 87 c 256
 192 87 147 160 147 281 c 258
 147 325 l 258
EndSplineSet
EndChar

StartChar: R
Encoding: 82 82 92
Width: 523
VWidth: 0
Flags: W
PickledData: "(dp1
S'org.robofab.postScriptHintData'
p2
(dp3
S'vHints'
p4
((I53
I113
t(I370
I122
ttp5
sS'hHints'
p6
((I21
I-21
t(I253
I100
t(I506
I100
ttp7
ss."
AnchorPoint: "top" 262 606 basechar 0
AnchorPoint: "bottom" 262 0 basechar 0
LayerCount: 2
Fore
SplineSet
53 606 m 257
 53 0 l 257
 166 0 l 257
 166 253 l 257
 284 253 l 257
 385 0 l 257
 507 0 l 257
 391 278 l 257
 453 303 492 360 492 433 c 256
 492 533 430 606 307 606 c 258
 53 606 l 257
166 353 m 257
 166 506 l 257
 295 506 l 258
 347 506 370 477 370 433 c 256
 370 383 346 353 291 353 c 258
 166 353 l 257
EndSplineSet
EndChar

StartChar: Racute
Encoding: 340 340 93
Width: 523
VWidth: 0
Flags: W
PickledData: "(dp1
S'org.robofab.postScriptHintData'
p2
(dp3
S'vHints'
p4
((I53
I113
t(I370
I122
ttp5
sS'hHints'
p6
((I21
I-21
t(I253
I100
t(I506
I100
t(I664
I117
ttp7
ss."
LayerCount: 2
Fore
SplineSet
288 664 m 257
 384 778 l 257
 383 781 l 257
 277 781 l 257
 201 664 l 257
 288 664 l 257
53 606 m 257
 53 0 l 257
 166 0 l 257
 166 253 l 257
 284 253 l 257
 385 0 l 257
 507 0 l 257
 391 278 l 257
 453 303 492 360 492 433 c 256
 492 533 430 606 307 606 c 258
 53 606 l 257
166 353 m 257
 166 506 l 257
 295 506 l 258
 347 506 370 477 370 433 c 256
 370 383 346 353 291 353 c 258
 166 353 l 257
EndSplineSet
EndChar

StartChar: Rcaron
Encoding: 344 344 94
Width: 523
VWidth: 0
Flags: W
PickledData: "(dp1
S'org.robofab.postScriptHintData'
p2
(dp3
S'vHints'
p4
((I53
I113
t(I370
I122
ttp5
sS'hHints'
p6
((I21
I-21
t(I253
I100
t(I506
I100
t(I661
I120
ttp7
ss."
LayerCount: 2
Fore
SplineSet
219 661 m 257
 306 661 l 257
 381 781 l 257
 301 781 l 257
 262 720 l 257
 222 781 l 257
 143 781 l 257
 219 661 l 257
53 606 m 257
 53 0 l 257
 166 0 l 257
 166 253 l 257
 284 253 l 257
 385 0 l 257
 507 0 l 257
 391 278 l 257
 453 303 492 360 492 433 c 256
 492 533 430 606 307 606 c 258
 53 606 l 257
166 353 m 257
 166 506 l 257
 295 506 l 258
 347 506 370 477 370 433 c 256
 370 383 346 353 291 353 c 258
 166 353 l 257
EndSplineSet
EndChar

StartChar: Rcommaaccent
Encoding: 342 342 95
Width: 523
VWidth: 0
Flags: W
PickledData: "(dp1
S'org.robofab.postScriptHintData'
p2
(dp3
S'vHints'
p4
((I53
I113
t(I207
I109
t(I370
I122
ttp5
sS'hHints'
p6
((I-157
I108
t(I21
I-21
t(I253
I100
t(I506
I100
ttp7
ss."
LayerCount: 2
Fore
SplineSet
53 606 m 257
 53 0 l 257
 166 0 l 257
 166 253 l 257
 284 253 l 257
 385 0 l 257
 507 0 l 257
 391 278 l 257
 453 303 492 360 492 433 c 256
 492 533 430 606 307 606 c 258
 53 606 l 257
166 353 m 257
 166 506 l 257
 295 506 l 258
 347 506 370 477 370 433 c 256
 370 383 346 353 291 353 c 258
 166 353 l 257
276 -232 m 257
 316 -148 l 257
 316 -49 l 257
 207 -49 l 257
 207 -157 l 257
 250 -157 l 257
 219 -232 l 257
 276 -232 l 257
EndSplineSet
EndChar

StartChar: S
Encoding: 83 83 96
Width: 484
VWidth: 0
Flags: W
PickledData: "(dp1
S'org.robofab.postScriptHintData'
p2
(dp3
S'replaceTable'
p4
((dp5
S'index'
p6
I0
sS'type'
p7
I255
s(dp8
g6
I0
sg7
I2
s(dp9
g6
I1
sg7
I2
s(dp10
g6
I0
sg7
I1
s(dp11
g6
I1
sg7
I1
s(dp12
g6
I5
sg7
I255
s(dp13
g6
I2
sg7
I2
s(dp14
g6
I1
sg7
I2
s(dp15
g6
I0
sg7
I1
s(dp16
g6
I1
sg7
I1
s(dp17
g6
I7
sg7
I255
s(dp18
g6
I2
sg7
I2
s(dp19
g6
I3
sg7
I2
s(dp20
g6
I0
sg7
I1
s(dp21
g6
I1
sg7
I1
s(dp22
g6
I13
sg7
I255
s(dp23
g6
I2
sg7
I2
s(dp24
g6
I1
sg7
I2
s(dp25
g6
I0
sg7
I1
s(dp26
g6
I1
sg7
I1
s(dp27
g6
I15
sg7
I255
s(dp28
g6
I0
sg7
I2
s(dp29
g6
I1
sg7
I2
s(dp30
g6
I0
sg7
I1
s(dp31
g6
I1
sg7
I1
stp32
sS'vHints'
p33
((I27
I117
t(I333
I117
t(I39
I117
t(I323
I115
ttp34
sS'hHints'
p35
((I-11
I98
t(I520
I97
ttp36
ss."
AnchorPoint: "top" 242 606 basechar 0
AnchorPoint: "bottom" 242 0 basechar 0
LayerCount: 2
Fore
SplineSet
145 197 m 257
 27 197 l 257
 27 178 l 258
 27 53 125 -11 236 -11 c 256
 362 -11 450 43 450 182 c 256
 450 405 156 332 156 455 c 256
 156 492 186 520 240 520 c 256
 292 520 323 487 323 436 c 258
 323 428 l 257
 438 428 l 257
 438 438 l 258
 438 563 349 617 241 617 c 256
 134 617 39 562 39 447 c 256
 39 217 333 302 333 158 c 256
 333 123 309 87 241 87 c 256
 179 87 144 126 144 183 c 257
 145 197 l 257
EndSplineSet
EndChar

StartChar: Sacute
Encoding: 346 346 97
Width: 484
VWidth: 0
Flags: W
PickledData: "(dp1
S'org.robofab.postScriptHintData'
p2
(dp3
S'replaceTable'
p4
((dp5
S'index'
p6
I0
sS'type'
p7
I255
s(dp8
g6
I0
sg7
I2
s(dp9
g6
I1
sg7
I2
s(dp10
g6
I0
sg7
I1
s(dp11
g6
I1
sg7
I1
s(dp12
g6
I2
sg7
I1
s(dp13
g6
I5
sg7
I255
s(dp14
g6
I2
sg7
I2
s(dp15
g6
I1
sg7
I2
s(dp16
g6
I0
sg7
I1
s(dp17
g6
I1
sg7
I1
s(dp18
g6
I2
sg7
I1
s(dp19
g6
I10
sg7
I255
s(dp20
g6
I0
sg7
I2
s(dp21
g6
I1
sg7
I2
s(dp22
g6
I0
sg7
I1
s(dp23
g6
I1
sg7
I1
s(dp24
g6
I2
sg7
I1
s(dp25
g6
I12
sg7
I255
s(dp26
g6
I0
sg7
I2
s(dp27
g6
I3
sg7
I2
s(dp28
g6
I0
sg7
I1
s(dp29
g6
I1
sg7
I1
s(dp30
g6
I2
sg7
I1
s(dp31
g6
I18
sg7
I255
s(dp32
g6
I0
sg7
I2
s(dp33
g6
I1
sg7
I2
s(dp34
g6
I0
sg7
I1
s(dp35
g6
I1
sg7
I1
s(dp36
g6
I2
sg7
I1
s(dp37
g6
I20
sg7
I255
s(dp38
g6
I2
sg7
I2
s(dp39
g6
I1
sg7
I2
s(dp40
g6
I0
sg7
I1
s(dp41
g6
I1
sg7
I1
s(dp42
g6
I2
sg7
I1
stp43
sS'vHints'
p44
((I39
I117
t(I333
I117
t(I27
I117
t(I323
I115
ttp45
sS'hHints'
p46
((I-11
I98
t(I520
I97
t(I664
I117
ttp47
ss."
LayerCount: 2
Fore
SplineSet
269 664 m 257
 364 778 l 257
 363 781 l 257
 257 781 l 257
 181 664 l 257
 269 664 l 257
145 197 m 257
 27 197 l 257
 27 178 l 258
 27 53 125 -11 236 -11 c 256
 362 -11 450 43 450 182 c 256
 450 405 156 332 156 455 c 256
 156 492 186 520 240 520 c 256
 292 520 323 487 323 436 c 258
 323 428 l 257
 438 428 l 257
 438 438 l 258
 438 563 349 617 241 617 c 256
 134 617 39 562 39 447 c 256
 39 217 333 302 333 158 c 256
 333 123 309 87 241 87 c 256
 179 87 144 126 144 183 c 257
 145 197 l 257
EndSplineSet
EndChar

StartChar: Scaron
Encoding: 352 352 98
Width: 484
VWidth: 0
Flags: W
PickledData: "(dp1
S'org.robofab.postScriptHintData'
p2
(dp3
S'replaceTable'
p4
((dp5
S'index'
p6
I0
sS'type'
p7
I255
s(dp8
g6
I0
sg7
I2
s(dp9
g6
I1
sg7
I2
s(dp10
g6
I0
sg7
I1
s(dp11
g6
I1
sg7
I1
s(dp12
g6
I2
sg7
I1
s(dp13
g6
I7
sg7
I255
s(dp14
g6
I2
sg7
I2
s(dp15
g6
I1
sg7
I2
s(dp16
g6
I0
sg7
I1
s(dp17
g6
I1
sg7
I1
s(dp18
g6
I2
sg7
I1
s(dp19
g6
I12
sg7
I255
s(dp20
g6
I0
sg7
I2
s(dp21
g6
I1
sg7
I2
s(dp22
g6
I0
sg7
I1
s(dp23
g6
I1
sg7
I1
s(dp24
g6
I2
sg7
I1
s(dp25
g6
I14
sg7
I255
s(dp26
g6
I0
sg7
I2
s(dp27
g6
I3
sg7
I2
s(dp28
g6
I0
sg7
I1
s(dp29
g6
I1
sg7
I1
s(dp30
g6
I2
sg7
I1
s(dp31
g6
I20
sg7
I255
s(dp32
g6
I0
sg7
I2
s(dp33
g6
I1
sg7
I2
s(dp34
g6
I0
sg7
I1
s(dp35
g6
I1
sg7
I1
s(dp36
g6
I2
sg7
I1
s(dp37
g6
I22
sg7
I255
s(dp38
g6
I2
sg7
I2
s(dp39
g6
I1
sg7
I2
s(dp40
g6
I0
sg7
I1
s(dp41
g6
I1
sg7
I1
s(dp42
g6
I2
sg7
I1
stp43
sS'vHints'
p44
((I39
I117
t(I333
I117
t(I27
I117
t(I323
I115
ttp45
sS'hHints'
p46
((I-11
I98
t(I520
I97
t(I661
I120
ttp47
ss."
LayerCount: 2
Fore
SplineSet
123 781 m 257
 199 661 l 257
 286 661 l 257
 361 781 l 257
 281 781 l 257
 242 720 l 257
 202 781 l 257
 123 781 l 257
145 197 m 257
 27 197 l 257
 27 178 l 258
 27 53 125 -11 236 -11 c 256
 362 -11 450 43 450 182 c 256
 450 405 156 332 156 455 c 256
 156 492 186 520 240 520 c 256
 292 520 323 487 323 436 c 258
 323 428 l 257
 438 428 l 257
 438 438 l 258
 438 563 349 617 241 617 c 256
 134 617 39 562 39 447 c 256
 39 217 333 302 333 158 c 256
 333 123 309 87 241 87 c 256
 179 87 144 126 144 183 c 257
 145 197 l 257
EndSplineSet
EndChar

StartChar: Scedilla
Encoding: 350 350 99
Width: 484
VWidth: 0
Flags: W
PickledData: "(dp1
S'org.robofab.postScriptHintData'
p2
(dp3
S'replaceTable'
p4
((dp5
S'index'
p6
I0
sS'type'
p7
I255
s(dp8
g6
I0
sg7
I2
s(dp9
g6
I1
sg7
I2
s(dp10
g6
I0
sg7
I1
s(dp11
g6
I1
sg7
I1
s(dp12
g6
I2
sg7
I1
s(dp13
g6
I4
sg7
I255
s(dp14
g6
I2
sg7
I2
s(dp15
g6
I3
sg7
I2
s(dp16
g6
I1
sg7
I2
s(dp17
g6
I0
sg7
I1
s(dp18
g6
I3
sg7
I1
s(dp19
g6
I1
sg7
I1
s(dp20
g6
I2
sg7
I1
s(dp21
g6
I5
sg7
I255
s(dp22
g6
I2
sg7
I2
s(dp23
g6
I4
sg7
I2
s(dp24
g6
I0
sg7
I1
s(dp25
g6
I3
sg7
I1
s(dp26
g6
I1
sg7
I1
s(dp27
g6
I2
sg7
I1
s(dp28
g6
I9
sg7
I255
s(dp29
g6
I2
sg7
I2
s(dp30
g6
I1
sg7
I2
s(dp31
g6
I4
sg7
I1
s(dp32
g6
I1
sg7
I1
s(dp33
g6
I2
sg7
I1
s(dp34
g6
I10
sg7
I255
s(dp35
g6
I2
sg7
I2
s(dp36
g6
I4
sg7
I2
s(dp37
g6
I0
sg7
I1
s(dp38
g6
I3
sg7
I1
s(dp39
g6
I1
sg7
I1
s(dp40
g6
I2
sg7
I1
s(dp41
g6
I13
sg7
I255
s(dp42
g6
I2
sg7
I2
s(dp43
g6
I3
sg7
I2
s(dp44
g6
I1
sg7
I2
s(dp45
g6
I0
sg7
I1
s(dp46
g6
I5
sg7
I1
s(dp47
g6
I2
sg7
I1
s(dp48
g6
I17
sg7
I255
s(dp49
g6
I2
sg7
I2
s(dp50
g6
I5
sg7
I2
s(dp51
g6
I0
sg7
I1
s(dp52
g6
I1
sg7
I1
s(dp53
g6
I2
sg7
I1
s(dp54
g6
I23
sg7
I255
s(dp55
g6
I2
sg7
I2
s(dp56
g6
I1
sg7
I2
s(dp57
g6
I0
sg7
I1
s(dp58
g6
I3
sg7
I1
s(dp59
g6
I1
sg7
I1
s(dp60
g6
I2
sg7
I1
s(dp61
g6
I25
sg7
I255
s(dp62
g6
I0
sg7
I2
s(dp63
g6
I1
sg7
I2
s(dp64
g6
I0
sg7
I1
s(dp65
g6
I3
sg7
I1
s(dp66
g6
I1
sg7
I1
s(dp67
g6
I2
sg7
I1
stp68
sS'vHints'
p69
((I27
I117
t(I333
I117
t(I39
I117
t(I195
I62
t(I251
I76
t(I323
I115
ttp70
sS'hHints'
p71
((I-161
I50
t(I13
I-21
t(I520
I97
t(I-68
I39
t(I-133
I-21
t(I11
I-21
ttp72
ss."
LayerCount: 2
Fore
SplineSet
145 197 m 257
 27 197 l 257
 27 178 l 258
 27 66 103 4 199 -8 c 257
 192 -68 l 257
 221 -68 l 258
 244 -68 251 -75 251 -89 c 256
 251 -106 239 -111 219 -111 c 258
 156 -111 l 257
 156 -154 l 257
 178 -158 206 -161 231 -161 c 256
 269 -161 327 -149 327 -89 c 256
 327 -49 295 -32 257 -29 c 257
 259 -10 l 257
 372 -3 450 52 450 182 c 256
 450 405 156 332 156 455 c 256
 156 492 186 520 240 520 c 256
 292 520 323 487 323 436 c 258
 323 428 l 257
 438 428 l 257
 438 438 l 258
 438 563 349 617 241 617 c 256
 134 617 39 562 39 447 c 256
 39 217 333 302 333 158 c 256
 333 123 309 87 241 87 c 256
 179 87 144 126 144 183 c 257
 145 197 l 257
EndSplineSet
EndChar

StartChar: Scircumflex
Encoding: 348 348 100
Width: 484
VWidth: 0
Flags: W
PickledData: "(dp1
S'org.robofab.postScriptHintData'
p2
(dp3
S'replaceTable'
p4
((dp5
S'index'
p6
I0
sS'type'
p7
I255
s(dp8
g6
I0
sg7
I2
s(dp9
g6
I1
sg7
I2
s(dp10
g6
I0
sg7
I1
s(dp11
g6
I1
sg7
I1
s(dp12
g6
I2
sg7
I1
s(dp13
g6
I7
sg7
I255
s(dp14
g6
I2
sg7
I2
s(dp15
g6
I1
sg7
I2
s(dp16
g6
I0
sg7
I1
s(dp17
g6
I1
sg7
I1
s(dp18
g6
I2
sg7
I1
s(dp19
g6
I12
sg7
I255
s(dp20
g6
I0
sg7
I2
s(dp21
g6
I1
sg7
I2
s(dp22
g6
I0
sg7
I1
s(dp23
g6
I1
sg7
I1
s(dp24
g6
I2
sg7
I1
s(dp25
g6
I14
sg7
I255
s(dp26
g6
I0
sg7
I2
s(dp27
g6
I3
sg7
I2
s(dp28
g6
I0
sg7
I1
s(dp29
g6
I1
sg7
I1
s(dp30
g6
I2
sg7
I1
s(dp31
g6
I20
sg7
I255
s(dp32
g6
I0
sg7
I2
s(dp33
g6
I1
sg7
I2
s(dp34
g6
I0
sg7
I1
s(dp35
g6
I1
sg7
I1
s(dp36
g6
I2
sg7
I1
s(dp37
g6
I22
sg7
I255
s(dp38
g6
I2
sg7
I2
s(dp39
g6
I1
sg7
I2
s(dp40
g6
I0
sg7
I1
s(dp41
g6
I1
sg7
I1
s(dp42
g6
I2
sg7
I1
stp43
sS'vHints'
p44
((I39
I117
t(I333
I117
t(I27
I117
t(I323
I115
ttp45
sS'hHints'
p46
((I-11
I98
t(I520
I97
t(I661
I120
ttp47
ss."
LayerCount: 2
Fore
SplineSet
242 722 m 257
 281 661 l 257
 361 661 l 257
 286 781 l 257
 199 781 l 257
 123 661 l 257
 202 661 l 257
 242 722 l 257
145 197 m 257
 27 197 l 257
 27 178 l 258
 27 53 125 -11 236 -11 c 256
 362 -11 450 43 450 182 c 256
 450 405 156 332 156 455 c 256
 156 492 186 520 240 520 c 256
 292 520 323 487 323 436 c 258
 323 428 l 257
 438 428 l 257
 438 438 l 258
 438 563 349 617 241 617 c 256
 134 617 39 562 39 447 c 256
 39 217 333 302 333 158 c 256
 333 123 309 87 241 87 c 256
 179 87 144 126 144 183 c 257
 145 197 l 257
EndSplineSet
EndChar

StartChar: Scommaaccent
Encoding: 536 536 101
Width: 484
VWidth: 0
Flags: W
PickledData: "(dp1
S'org.robofab.postScriptHintData'
p2
(dp3
S'replaceTable'
p4
((dp5
S'index'
p6
I0
sS'type'
p7
I255
s(dp8
g6
I0
sg7
I2
s(dp9
g6
I1
sg7
I2
s(dp10
g6
I2
sg7
I2
s(dp11
g6
I0
sg7
I1
s(dp12
g6
I1
sg7
I1
s(dp13
g6
I2
sg7
I1
s(dp14
g6
I5
sg7
I255
s(dp15
g6
I3
sg7
I2
s(dp16
g6
I1
sg7
I2
s(dp17
g6
I2
sg7
I2
s(dp18
g6
I0
sg7
I1
s(dp19
g6
I1
sg7
I1
s(dp20
g6
I2
sg7
I1
s(dp21
g6
I7
sg7
I255
s(dp22
g6
I3
sg7
I2
s(dp23
g6
I1
sg7
I2
s(dp24
g6
I4
sg7
I2
s(dp25
g6
I0
sg7
I1
s(dp26
g6
I1
sg7
I1
s(dp27
g6
I2
sg7
I1
s(dp28
g6
I13
sg7
I255
s(dp29
g6
I3
sg7
I2
s(dp30
g6
I1
sg7
I2
s(dp31
g6
I2
sg7
I2
s(dp32
g6
I0
sg7
I1
s(dp33
g6
I1
sg7
I1
s(dp34
g6
I2
sg7
I1
s(dp35
g6
I15
sg7
I255
s(dp36
g6
I0
sg7
I2
s(dp37
g6
I1
sg7
I2
s(dp38
g6
I2
sg7
I2
s(dp39
g6
I0
sg7
I1
s(dp40
g6
I1
sg7
I1
s(dp41
g6
I2
sg7
I1
stp42
sS'vHints'
p43
((I27
I117
t(I187
I110
t(I333
I117
t(I39
I117
t(I323
I115
ttp44
sS'hHints'
p45
((I-157
I108
t(I-11
I98
t(I520
I97
ttp46
ss."
LayerCount: 2
Fore
SplineSet
145 197 m 257
 27 197 l 257
 27 178 l 258
 27 53 125 -11 236 -11 c 256
 362 -11 450 43 450 182 c 256
 450 405 156 332 156 455 c 256
 156 492 186 520 240 520 c 256
 292 520 323 487 323 436 c 258
 323 428 l 257
 438 428 l 257
 438 438 l 258
 438 563 349 617 241 617 c 256
 134 617 39 562 39 447 c 256
 39 217 333 302 333 158 c 256
 333 123 309 87 241 87 c 256
 179 87 144 126 144 183 c 257
 145 197 l 257
199 -232 m 257
 256 -232 l 257
 297 -148 l 257
 297 -49 l 257
 187 -49 l 257
 187 -157 l 257
 231 -157 l 257
 199 -232 l 257
EndSplineSet
EndChar

StartChar: T
Encoding: 84 84 102
Width: 443
VWidth: 0
Flags: W
PickledData: "(dp1
S'org.robofab.postScriptHintData'
p2
(dp3
S'vHints'
p4
((I165
I113
ttp5
sS'hHints'
p6
((I21
I-21
t(I506
I100
ttp7
ss."
AnchorPoint: "top" 222 606 basechar 0
AnchorPoint: "center" 222 303 basechar 0
AnchorPoint: "bottom" 222 0 basechar 0
LayerCount: 2
Fore
SplineSet
278 506 m 257
 429 506 l 257
 429 606 l 257
 15 606 l 257
 15 506 l 257
 165 506 l 257
 165 0 l 257
 278 0 l 257
 278 506 l 257
EndSplineSet
EndChar

StartChar: Tbar
Encoding: 358 358 103
Width: 443
VWidth: 0
Flags: W
PickledData: "(dp1
S'org.robofab.postScriptHintData'
p2
(dp3
S'vHints'
p4
((I165
I113
ttp5
sS'hHints'
p6
((I21
I-21
t(I271
I76
t(I506
I100
ttp7
ss."
LayerCount: 2
Fore
SplineSet
278 506 m 257
 429 506 l 257
 429 606 l 257
 15 606 l 257
 15 506 l 257
 165 506 l 257
 165 347 l 257
 65 347 l 257
 65 271 l 257
 165 271 l 257
 165 0 l 257
 278 0 l 257
 278 271 l 257
 377 271 l 257
 377 347 l 257
 278 347 l 257
 278 506 l 257
EndSplineSet
EndChar

StartChar: Tcaron
Encoding: 356 356 104
Width: 443
VWidth: 0
Flags: W
PickledData: "(dp1
S'org.robofab.postScriptHintData'
p2
(dp3
S'vHints'
p4
((I165
I113
ttp5
sS'hHints'
p6
((I21
I-21
t(I506
I100
t(I661
I120
ttp7
ss."
LayerCount: 2
Fore
SplineSet
179 661 m 257
 265 661 l 257
 340 781 l 257
 261 781 l 257
 222 720 l 257
 182 781 l 257
 103 781 l 257
 179 661 l 257
278 506 m 257
 429 506 l 257
 429 606 l 257
 15 606 l 257
 15 506 l 257
 165 506 l 257
 165 0 l 257
 278 0 l 257
 278 506 l 257
EndSplineSet
EndChar

StartChar: Tcedilla
Encoding: 354 354 105
Width: 443
VWidth: 0
Flags: W
PickledData: "(dp1
S'org.robofab.postScriptHintData'
p2
(dp3
S'replaceTable'
p4
((dp5
S'index'
p6
I0
sS'type'
p7
I255
s(dp8
g6
I0
sg7
I2
s(dp9
g6
I0
sg7
I1
s(dp10
g6
I1
sg7
I1
s(dp11
g6
I2
sg7
I1
s(dp12
g6
I10
sg7
I255
s(dp13
g6
I0
sg7
I2
s(dp14
g6
I0
sg7
I1
s(dp15
g6
I3
sg7
I1
s(dp16
g6
I1
sg7
I1
s(dp17
g6
I2
sg7
I1
s(dp18
g6
I15
sg7
I255
s(dp19
g6
I0
sg7
I2
s(dp20
g6
I4
sg7
I1
s(dp21
g6
I1
sg7
I1
s(dp22
g6
I2
sg7
I1
s(dp23
g6
I16
sg7
I255
s(dp24
g6
I1
sg7
I2
s(dp25
g6
I0
sg7
I1
s(dp26
g6
I1
sg7
I1
s(dp27
g6
I2
sg7
I1
s(dp28
g6
I18
sg7
I255
s(dp29
g6
I0
sg7
I2
s(dp30
g6
I0
sg7
I1
s(dp31
g6
I3
sg7
I1
s(dp32
g6
I1
sg7
I1
s(dp33
g6
I2
sg7
I1
stp34
sS'vHints'
p35
((I165
I113
t(I230
I76
ttp36
sS'hHints'
p37
((I-161
I50
t(I21
I-21
t(I506
I100
t(I-68
I39
t(I-133
I-21
ttp38
ss."
LayerCount: 2
Fore
SplineSet
240 0 m 257
 278 0 l 257
 278 506 l 257
 429 506 l 257
 429 606 l 257
 15 606 l 257
 15 506 l 257
 165 506 l 257
 165 0 l 257
 180 0 l 257
 171 -68 l 257
 200 -68 l 258
 223 -68 230 -75 230 -89 c 256
 230 -106 218 -111 199 -111 c 258
 136 -111 l 257
 136 -154 l 257
 157 -158 185 -161 210 -161 c 256
 248 -161 306 -149 306 -89 c 256
 306 -49 275 -32 237 -29 c 257
 240 0 l 257
EndSplineSet
EndChar

StartChar: Thorn
Encoding: 222 222 106
Width: 484
VWidth: 0
Flags: W
PickledData: "(dp1
S'org.robofab.postScriptHintData'
p2
(dp3
S'vHints'
p4
((I53
I113
t(I343
I117
ttp5
sS'hHints'
p6
((I21
I-21
t(I127
I100
t(I398
I101
t(I606
I-20
ttp7
ss."
LayerCount: 2
Fore
SplineSet
166 499 m 257
 166 606 l 257
 53 606 l 257
 53 0 l 257
 166 0 l 257
 166 127 l 257
 270 127 l 258
 384 127 460 202 460 316 c 256
 460 422 395 499 270 499 c 258
 166 499 l 257
166 227 m 257
 166 398 l 257
 258 398 l 258
 312 398 343 366 343 316 c 256
 343 261 313 227 258 227 c 258
 166 227 l 257
EndSplineSet
EndChar

StartChar: U
Encoding: 85 85 107
Width: 523
VWidth: 0
Flags: W
PickledData: "(dp1
S'org.robofab.postScriptHintData'
p2
(dp3
S'vHints'
p4
((I54
I113
t(I357
I113
ttp5
sS'hHints'
p6
((I-11
I98
t(I606
I-20
ttp7
ss."
AnchorPoint: "top" 262 606 basechar 0
AnchorPoint: "ogonek" 471 9 basechar 0
LayerCount: 2
Fore
SplineSet
470 606 m 257
 357 606 l 257
 357 194 l 258
 357 124 322 87 262 87 c 256
 202 87 167 124 167 194 c 258
 167 606 l 257
 54 606 l 257
 54 190 l 258
 54 58 132 -11 262 -11 c 256
 392 -11 470 58 470 190 c 258
 470 606 l 257
EndSplineSet
EndChar

StartChar: Uacute
Encoding: 218 218 108
Width: 523
VWidth: 0
Flags: W
PickledData: "(dp1
S'org.robofab.postScriptHintData'
p2
(dp3
S'vHints'
p4
((I54
I113
t(I357
I113
ttp5
sS'hHints'
p6
((I-11
I98
t(I606
I-20
t(I664
I117
ttp7
ss."
LayerCount: 2
Fore
SplineSet
288 664 m 257
 384 778 l 257
 383 781 l 257
 277 781 l 257
 201 664 l 257
 288 664 l 257
470 606 m 257
 357 606 l 257
 357 194 l 258
 357 124 322 87 262 87 c 256
 202 87 167 124 167 194 c 258
 167 606 l 257
 54 606 l 257
 54 190 l 258
 54 58 132 -11 262 -11 c 256
 392 -11 470 58 470 190 c 258
 470 606 l 257
EndSplineSet
EndChar

StartChar: Ubreve
Encoding: 364 364 109
Width: 523
VWidth: 0
Flags: W
PickledData: "(dp1
S'org.robofab.postScriptHintData'
p2
(dp3
S'vHints'
p4
((I54
I113
t(I357
I113
ttp5
sS'hHints'
p6
((I-11
I98
t(I606
I-20
t(I686
I95
ttp7
ss."
LayerCount: 2
Fore
SplineSet
314 781 m 257
 313 768 292 751 261 751 c 256
 232 751 212 768 210 781 c 257
 144 781 l 257
 144 736 188 686 261 686 c 256
 334 686 380 736 380 781 c 257
 314 781 l 257
470 606 m 257
 357 606 l 257
 357 194 l 258
 357 124 322 87 262 87 c 256
 202 87 167 124 167 194 c 258
 167 606 l 257
 54 606 l 257
 54 190 l 258
 54 58 132 -11 262 -11 c 256
 392 -11 470 58 470 190 c 258
 470 606 l 257
EndSplineSet
EndChar

StartChar: Ucircumflex
Encoding: 219 219 110
Width: 523
VWidth: 0
Flags: W
PickledData: "(dp1
S'org.robofab.postScriptHintData'
p2
(dp3
S'vHints'
p4
((I54
I113
t(I357
I113
ttp5
sS'hHints'
p6
((I-11
I98
t(I606
I-20
t(I661
I120
ttp7
ss."
LayerCount: 2
Fore
SplineSet
301 661 m 257
 381 661 l 257
 306 781 l 257
 219 781 l 257
 143 661 l 257
 222 661 l 257
 262 722 l 257
 301 661 l 257
470 606 m 257
 357 606 l 257
 357 194 l 258
 357 124 322 87 262 87 c 256
 202 87 167 124 167 194 c 258
 167 606 l 257
 54 606 l 257
 54 190 l 258
 54 58 132 -11 262 -11 c 256
 392 -11 470 58 470 190 c 258
 470 606 l 257
EndSplineSet
EndChar

StartChar: Udieresis
Encoding: 220 220 111
Width: 523
VWidth: 0
Flags: W
PickledData: "(dp1
S'org.robofab.postScriptHintData'
p2
(dp3
S'replaceTable'
p4
((dp5
S'index'
p6
I0
sS'type'
p7
I255
s(dp8
g6
I0
sg7
I2
s(dp9
g6
I1
sg7
I2
s(dp10
g6
I0
sg7
I1
s(dp11
g6
I1
sg7
I1
s(dp12
g6
I2
sg7
I1
s(dp13
g6
I8
sg7
I255
s(dp14
g6
I2
sg7
I2
s(dp15
g6
I3
sg7
I2
s(dp16
g6
I0
sg7
I1
s(dp17
g6
I1
sg7
I1
s(dp18
g6
I2
sg7
I1
stp19
sS'vHints'
p20
((I141
I88
t(I294
I90
t(I54
I113
t(I357
I113
ttp21
sS'hHints'
p22
((I-11
I98
t(I606
I-20
t(I684
I97
ttp23
ss."
LayerCount: 2
Fore
SplineSet
141 684 m 257
 229 684 l 257
 229 781 l 257
 141 781 l 257
 141 684 l 257
294 684 m 257
 384 684 l 257
 384 781 l 257
 294 781 l 257
 294 684 l 257
470 606 m 257
 357 606 l 257
 357 194 l 258
 357 124 322 87 262 87 c 256
 202 87 167 124 167 194 c 258
 167 606 l 257
 54 606 l 257
 54 190 l 258
 54 58 132 -11 262 -11 c 256
 392 -11 470 58 470 190 c 258
 470 606 l 257
EndSplineSet
EndChar

StartChar: Ugrave
Encoding: 217 217 112
Width: 523
VWidth: 0
Flags: W
PickledData: "(dp1
S'org.robofab.postScriptHintData'
p2
(dp3
S'vHints'
p4
((I54
I113
t(I357
I113
ttp5
sS'hHints'
p6
((I-11
I98
t(I606
I-20
t(I664
I117
ttp7
ss."
LayerCount: 2
Fore
SplineSet
235 664 m 257
 323 664 l 257
 247 781 l 257
 141 781 l 257
 140 778 l 257
 235 664 l 257
470 606 m 257
 357 606 l 257
 357 194 l 258
 357 124 322 87 262 87 c 256
 202 87 167 124 167 194 c 258
 167 606 l 257
 54 606 l 257
 54 190 l 258
 54 58 132 -11 262 -11 c 256
 392 -11 470 58 470 190 c 258
 470 606 l 257
EndSplineSet
EndChar

StartChar: Uhungarumlaut
Encoding: 368 368 113
Width: 523
VWidth: 0
Flags: W
PickledData: "(dp1
S'org.robofab.postScriptHintData'
p2
(dp3
S'vHints'
p4
((I54
I113
t(I357
I113
ttp5
sS'hHints'
p6
((I-11
I98
t(I606
I-20
t(I664
I117
ttp7
ss."
LayerCount: 2
Fore
SplineSet
232 664 m 257
 306 778 l 257
 305 781 l 257
 217 781 l 257
 162 664 l 257
 232 664 l 257
355 664 m 257
 430 778 l 257
 429 781 l 257
 340 781 l 257
 286 664 l 257
 355 664 l 257
470 606 m 257
 357 606 l 257
 357 194 l 258
 357 124 322 87 262 87 c 256
 202 87 167 124 167 194 c 258
 167 606 l 257
 54 606 l 257
 54 190 l 258
 54 58 132 -11 262 -11 c 256
 392 -11 470 58 470 190 c 258
 470 606 l 257
EndSplineSet
EndChar

StartChar: Umacron
Encoding: 362 362 114
Width: 523
VWidth: 0
Flags: W
PickledData: "(dp1
S'org.robofab.postScriptHintData'
p2
(dp3
S'vHints'
p4
((I54
I113
t(I357
I113
ttp5
sS'hHints'
p6
((I-11
I98
t(I606
I-20
t(I671
I77
ttp7
ss."
LayerCount: 2
Fore
SplineSet
149 671 m 257
 375 671 l 257
 375 748 l 257
 149 748 l 257
 149 671 l 257
470 606 m 257
 357 606 l 257
 357 194 l 258
 357 124 322 87 262 87 c 256
 202 87 167 124 167 194 c 258
 167 606 l 257
 54 606 l 257
 54 190 l 258
 54 58 132 -11 262 -11 c 256
 392 -11 470 58 470 190 c 258
 470 606 l 257
EndSplineSet
EndChar

StartChar: Uogonek
Encoding: 370 370 115
Width: 523
VWidth: 0
Flags: W
PickledData: "(dp1
S'org.robofab.postScriptHintData'
p2
(dp3
S'replaceTable'
p4
((dp5
S'index'
p6
I0
sS'type'
p7
I255
s(dp8
g6
I0
sg7
I2
s(dp9
g6
I1
sg7
I2
s(dp10
g6
I0
sg7
I1
s(dp11
g6
I1
sg7
I1
s(dp12
g6
I2
sg7
I1
s(dp13
g6
I10
sg7
I255
s(dp14
g6
I0
sg7
I2
s(dp15
g6
I2
sg7
I2
s(dp16
g6
I0
sg7
I1
s(dp17
g6
I1
sg7
I1
s(dp18
g6
I2
sg7
I1
s(dp19
g6
I17
sg7
I255
s(dp20
g6
I0
sg7
I2
s(dp21
g6
I1
sg7
I2
s(dp22
g6
I0
sg7
I1
s(dp23
g6
I1
sg7
I1
s(dp24
g6
I2
sg7
I1
stp25
sS'vHints'
p26
((I54
I113
t(I357
I113
t(I245
I146
ttp27
sS'hHints'
p28
((I-164
I61
t(I-11
I98
t(I606
I-20
ttp29
ss."
LayerCount: 2
Fore
SplineSet
470 606 m 257
 357 606 l 257
 357 201 l 258
 357 126 322 87 262 87 c 256
 202 87 167 126 167 201 c 258
 167 606 l 257
 54 606 l 257
 54 197 l 258
 54 61 132 -11 262 -11 c 258
 270 -11 l 257
 256 -30 245 -53 245 -84 c 256
 245 -145 292 -164 332 -164 c 256
 352 -164 370 -159 391 -151 c 257
 391 -103 l 257
 371 -103 l 258
 342 -103 331 -80 331 -57 c 256
 331 -33 347 -8 358 4 c 257
 430 32 470 97 470 197 c 258
 470 606 l 257
EndSplineSet
EndChar

StartChar: Uring
Encoding: 366 366 116
Width: 523
VWidth: 0
Flags: W
PickledData: "(dp1
S'org.robofab.postScriptHintData'
p2
(dp3
S'replaceTable'
p4
((dp5
S'index'
p6
I0
sS'type'
p7
I255
s(dp8
g6
I0
sg7
I2
s(dp9
g6
I1
sg7
I2
s(dp10
g6
I2
sg7
I2
s(dp11
g6
I3
sg7
I2
s(dp12
g6
I0
sg7
I1
s(dp13
g6
I1
sg7
I1
s(dp14
g6
I2
sg7
I1
s(dp15
g6
I3
sg7
I1
s(dp16
g6
I10
sg7
I255
s(dp17
g6
I0
sg7
I2
s(dp18
g6
I3
sg7
I2
s(dp19
g6
I0
sg7
I1
s(dp20
g6
I1
sg7
I1
s(dp21
g6
I2
sg7
I1
s(dp22
g6
I3
sg7
I1
stp23
sS'vHints'
p24
((I54
I113
t(I177
I44
t(I302
I45
t(I357
I113
ttp25
sS'hHints'
p26
((I-11
I98
t(I606
I-20
t(I637
I45
t(I763
I44
ttp27
ss."
LayerCount: 2
Fore
SplineSet
262 807 m 256
 215 807 177 769 177 722 c 256
 177 674 216 637 262 637 c 256
 309 637 347 675 347 722 c 256
 347 768 309 807 262 807 c 256
262 763 m 256
 284 763 302 745 302 722 c 256
 302 699 284 682 262 682 c 256
 239 682 221 699 221 722 c 256
 221 745 239 763 262 763 c 256
470 606 m 257
 357 606 l 257
 357 194 l 258
 357 124 322 87 262 87 c 256
 202 87 167 124 167 194 c 258
 167 606 l 257
 54 606 l 257
 54 190 l 258
 54 58 132 -11 262 -11 c 256
 392 -11 470 58 470 190 c 258
 470 606 l 257
EndSplineSet
EndChar

StartChar: Utilde
Encoding: 360 360 117
Width: 523
VWidth: 0
Flags: W
PickledData: "(dp1
S'org.robofab.postScriptHintData'
p2
(dp3
S'replaceTable'
p4
((dp5
S'index'
p6
I0
sS'type'
p7
I255
s(dp8
g6
I0
sg7
I2
s(dp9
g6
I1
sg7
I2
s(dp10
g6
I0
sg7
I1
s(dp11
g6
I1
sg7
I1
s(dp12
g6
I2
sg7
I1
s(dp13
g6
I1
sg7
I255
s(dp14
g6
I0
sg7
I2
s(dp15
g6
I1
sg7
I2
s(dp16
g6
I0
sg7
I1
s(dp17
g6
I1
sg7
I1
s(dp18
g6
I3
sg7
I1
s(dp19
g6
I2
sg7
I255
s(dp20
g6
I0
sg7
I2
s(dp21
g6
I1
sg7
I2
s(dp22
g6
I0
sg7
I1
s(dp23
g6
I1
sg7
I1
s(dp24
g6
I2
sg7
I1
s(dp25
g6
I3
sg7
I255
s(dp26
g6
I0
sg7
I2
s(dp27
g6
I1
sg7
I2
s(dp28
g6
I0
sg7
I1
s(dp29
g6
I1
sg7
I1
s(dp30
g6
I3
sg7
I1
s(dp31
g6
I5
sg7
I255
s(dp32
g6
I0
sg7
I2
s(dp33
g6
I1
sg7
I2
s(dp34
g6
I0
sg7
I1
s(dp35
g6
I1
sg7
I1
s(dp36
g6
I2
sg7
I1
s(dp37
g6
I6
sg7
I255
s(dp38
g6
I0
sg7
I2
s(dp39
g6
I1
sg7
I2
s(dp40
g6
I0
sg7
I1
s(dp41
g6
I1
sg7
I1
s(dp42
g6
I3
sg7
I1
s(dp43
g6
I7
sg7
I255
s(dp44
g6
I0
sg7
I2
s(dp45
g6
I1
sg7
I2
s(dp46
g6
I0
sg7
I1
s(dp47
g6
I1
sg7
I1
s(dp48
g6
I2
sg7
I1
stp49
sS'vHints'
p50
((I54
I113
t(I357
I113
ttp51
sS'hHints'
p52
((I-11
I98
t(I606
I-20
t(I705
I76
t(I673
I75
ttp53
ss."
LayerCount: 2
Fore
SplineSet
352 781 m 257
 348 756 336 748 317 748 c 256
 278 748 243 781 200 781 c 256
 138 781 113 721 113 673 c 257
 171 673 l 257
 175 697 187 705 206 705 c 256
 246 705 280 673 323 673 c 256
 385 673 410 732 410 781 c 257
 352 781 l 257
470 606 m 257
 357 606 l 257
 357 194 l 258
 357 124 322 87 262 87 c 256
 202 87 167 124 167 194 c 258
 167 606 l 257
 54 606 l 257
 54 190 l 258
 54 58 132 -11 262 -11 c 256
 392 -11 470 58 470 190 c 258
 470 606 l 257
EndSplineSet
EndChar

StartChar: V
Encoding: 86 86 118
Width: 484
VWidth: 0
Flags: W
PickledData: "(dp1
S'org.robofab.postScriptHintData'
p2
(dp3
S'replaceTable'
p4
((dp5
S'index'
p6
I0
sS'type'
p7
I255
s(dp8
g6
I0
sg7
I2
s(dp9
g6
I0
sg7
I1
s(dp10
g6
I1
sg7
I1
s(dp11
g6
I5
sg7
I255
s(dp12
g6
I0
sg7
I2
s(dp13
g6
I2
sg7
I1
s(dp14
g6
I1
sg7
I1
stp15
sS'vHints'
p16
((I0
I484
ttp17
sS'hHints'
p18
((I21
I-21
t(I606
I-20
t(I0
I172
ttp19
ss."
LayerCount: 2
Fore
SplineSet
0 606 m 257
 185 0 l 257
 299 0 l 257
 484 606 l 257
 373 606 l 257
 248 172 l 257
 244 172 l 257
 117 606 l 257
 0 606 l 257
EndSplineSet
EndChar

StartChar: W
Encoding: 87 87 119
Width: 684
VWidth: 0
Flags: W
PickledData: "(dp1
S'org.robofab.postScriptHintData'
p2
(dp3
S'replaceTable'
p4
((dp5
S'index'
p6
I0
sS'type'
p7
I255
s(dp8
g6
I0
sg7
I2
s(dp9
g6
I0
sg7
I1
s(dp10
g6
I1
sg7
I1
s(dp11
g6
I4
sg7
I255
s(dp12
g6
I0
sg7
I2
s(dp13
g6
I2
sg7
I1
s(dp14
g6
I1
sg7
I1
s(dp15
g6
I18
sg7
I255
s(dp16
g6
I0
sg7
I2
s(dp17
g6
I0
sg7
I1
s(dp18
g6
I3
sg7
I1
stp19
sS'vHints'
p20
((I0
I683
ttp21
sS'hHints'
p22
((I21
I-21
t(I606
I-20
t(I0
I149
t(I472
I134
ttp23
ss."
AnchorPoint: "top" 342 606 basechar 0
LayerCount: 2
Fore
SplineSet
438 0 m 257
 552 0 l 257
 683 606 l 257
 586 606 l 257
 512 233 l 258
 506 203 500 149 500 149 c 257
 497 149 l 257
 497 149 490 210 485 233 c 258
 413 606 l 257
 285 606 l 257
 211 233 l 258
 206 208 200 149 200 149 c 257
 196 149 l 257
 196 149 190 207 185 233 c 258
 112 606 l 257
 0 606 l 257
 132 0 l 257
 246 0 l 257
 327 386 l 258
 332 412 339 472 339 472 c 257
 343 472 l 257
 343 472 348 417 355 386 c 258
 438 0 l 257
EndSplineSet
EndChar

StartChar: Wacute
Encoding: 7810 7810 120
Width: 684
VWidth: 0
Flags: W
PickledData: "(dp1
S'org.robofab.postScriptHintData'
p2
(dp3
S'replaceTable'
p4
((dp5
S'index'
p6
I0
sS'type'
p7
I255
s(dp8
g6
I0
sg7
I2
s(dp9
g6
I0
sg7
I1
s(dp10
g6
I1
sg7
I1
s(dp11
g6
I2
sg7
I1
s(dp12
g6
I9
sg7
I255
s(dp13
g6
I0
sg7
I2
s(dp14
g6
I3
sg7
I1
s(dp15
g6
I1
sg7
I1
s(dp16
g6
I2
sg7
I1
s(dp17
g6
I23
sg7
I255
s(dp18
g6
I0
sg7
I2
s(dp19
g6
I0
sg7
I1
s(dp20
g6
I4
sg7
I1
s(dp21
g6
I2
sg7
I1
stp22
sS'vHints'
p23
((I0
I683
ttp24
sS'hHints'
p25
((I21
I-21
t(I606
I-20
t(I664
I117
t(I0
I149
t(I472
I134
ttp26
ss."
LayerCount: 2
Fore
SplineSet
369 664 m 257
 464 778 l 257
 463 781 l 257
 357 781 l 257
 281 664 l 257
 369 664 l 257
438 0 m 257
 552 0 l 257
 683 606 l 257
 586 606 l 257
 512 233 l 258
 506 203 500 149 500 149 c 257
 497 149 l 257
 497 149 490 210 485 233 c 258
 413 606 l 257
 285 606 l 257
 211 233 l 258
 206 208 200 149 200 149 c 257
 196 149 l 257
 196 149 190 207 185 233 c 258
 112 606 l 257
 0 606 l 257
 132 0 l 257
 246 0 l 257
 327 386 l 258
 332 412 339 472 339 472 c 257
 343 472 l 257
 343 472 348 417 355 386 c 258
 438 0 l 257
EndSplineSet
EndChar

StartChar: Wcircumflex
Encoding: 372 372 121
Width: 684
VWidth: 0
Flags: W
PickledData: "(dp1
S'org.robofab.postScriptHintData'
p2
(dp3
S'replaceTable'
p4
((dp5
S'index'
p6
I0
sS'type'
p7
I255
s(dp8
g6
I0
sg7
I2
s(dp9
g6
I0
sg7
I1
s(dp10
g6
I1
sg7
I1
s(dp11
g6
I2
sg7
I1
s(dp12
g6
I11
sg7
I255
s(dp13
g6
I0
sg7
I2
s(dp14
g6
I3
sg7
I1
s(dp15
g6
I1
sg7
I1
s(dp16
g6
I2
sg7
I1
s(dp17
g6
I25
sg7
I255
s(dp18
g6
I0
sg7
I2
s(dp19
g6
I0
sg7
I1
s(dp20
g6
I4
sg7
I1
s(dp21
g6
I2
sg7
I1
stp22
sS'vHints'
p23
((I0
I683
ttp24
sS'hHints'
p25
((I21
I-21
t(I606
I-20
t(I661
I120
t(I0
I149
t(I472
I134
ttp26
ss."
LayerCount: 2
Fore
SplineSet
343 722 m 257
 382 661 l 257
 461 661 l 257
 386 781 l 257
 300 781 l 257
 224 661 l 257
 303 661 l 257
 343 722 l 257
438 0 m 257
 552 0 l 257
 683 606 l 257
 586 606 l 257
 512 233 l 258
 506 203 500 149 500 149 c 257
 497 149 l 257
 497 149 490 210 485 233 c 258
 413 606 l 257
 285 606 l 257
 211 233 l 258
 206 208 200 149 200 149 c 257
 196 149 l 257
 196 149 190 207 185 233 c 258
 112 606 l 257
 0 606 l 257
 132 0 l 257
 246 0 l 257
 327 386 l 258
 332 412 339 472 339 472 c 257
 343 472 l 257
 343 472 348 417 355 386 c 258
 438 0 l 257
EndSplineSet
EndChar

StartChar: Wdieresis
Encoding: 7812 7812 122
Width: 684
VWidth: 0
Flags: W
PickledData: "(dp1
S'org.robofab.postScriptHintData'
p2
(dp3
S'replaceTable'
p4
((dp5
S'index'
p6
I0
sS'type'
p7
I255
s(dp8
g6
I0
sg7
I2
s(dp9
g6
I1
sg7
I2
s(dp10
g6
I0
sg7
I1
s(dp11
g6
I1
sg7
I1
s(dp12
g6
I2
sg7
I1
s(dp13
g6
I12
sg7
I255
s(dp14
g6
I0
sg7
I2
s(dp15
g6
I1
sg7
I2
s(dp16
g6
I3
sg7
I1
s(dp17
g6
I1
sg7
I1
s(dp18
g6
I2
sg7
I1
s(dp19
g6
I26
sg7
I255
s(dp20
g6
I0
sg7
I2
s(dp21
g6
I1
sg7
I2
s(dp22
g6
I0
sg7
I1
s(dp23
g6
I4
sg7
I1
s(dp24
g6
I2
sg7
I1
stp25
sS'vHints'
p26
((I221
I88
t(I376
I88
ttp27
sS'hHints'
p28
((I21
I-21
t(I606
I-20
t(I684
I97
t(I0
I149
t(I472
I134
ttp29
ss."
LayerCount: 2
Fore
SplineSet
221 684 m 257
 309 684 l 257
 309 781 l 257
 221 781 l 257
 221 684 l 257
376 684 m 257
 464 684 l 257
 464 781 l 257
 376 781 l 257
 376 684 l 257
438 0 m 257
 552 0 l 257
 683 606 l 257
 586 606 l 257
 512 233 l 258
 506 203 500 149 500 149 c 257
 497 149 l 257
 497 149 490 210 485 233 c 258
 413 606 l 257
 285 606 l 257
 211 233 l 258
 206 208 200 149 200 149 c 257
 196 149 l 257
 196 149 190 207 185 233 c 258
 112 606 l 257
 0 606 l 257
 132 0 l 257
 246 0 l 257
 327 386 l 258
 332 412 339 472 339 472 c 257
 343 472 l 257
 343 472 348 417 355 386 c 258
 438 0 l 257
EndSplineSet
EndChar

StartChar: Wgrave
Encoding: 7808 7808 123
Width: 684
VWidth: 0
Flags: W
PickledData: "(dp1
S'org.robofab.postScriptHintData'
p2
(dp3
S'replaceTable'
p4
((dp5
S'index'
p6
I0
sS'type'
p7
I255
s(dp8
g6
I0
sg7
I2
s(dp9
g6
I0
sg7
I1
s(dp10
g6
I1
sg7
I1
s(dp11
g6
I2
sg7
I1
s(dp12
g6
I9
sg7
I255
s(dp13
g6
I0
sg7
I2
s(dp14
g6
I3
sg7
I1
s(dp15
g6
I1
sg7
I1
s(dp16
g6
I2
sg7
I1
s(dp17
g6
I23
sg7
I255
s(dp18
g6
I0
sg7
I2
s(dp19
g6
I0
sg7
I1
s(dp20
g6
I4
sg7
I1
s(dp21
g6
I2
sg7
I1
stp22
sS'vHints'
p23
((I0
I683
ttp24
sS'hHints'
p25
((I21
I-21
t(I606
I-20
t(I664
I117
t(I0
I149
t(I472
I134
ttp26
ss."
LayerCount: 2
Fore
SplineSet
316 664 m 257
 403 664 l 257
 327 781 l 257
 221 781 l 257
 220 778 l 257
 316 664 l 257
438 0 m 257
 552 0 l 257
 683 606 l 257
 586 606 l 257
 512 233 l 258
 506 203 500 149 500 149 c 257
 497 149 l 257
 497 149 490 210 485 233 c 258
 413 606 l 257
 285 606 l 257
 211 233 l 258
 206 208 200 149 200 149 c 257
 196 149 l 257
 196 149 190 207 185 233 c 258
 112 606 l 257
 0 606 l 257
 132 0 l 257
 246 0 l 257
 327 386 l 258
 332 412 339 472 339 472 c 257
 343 472 l 257
 343 472 348 417 355 386 c 258
 438 0 l 257
EndSplineSet
EndChar

StartChar: X
Encoding: 88 88 124
Width: 484
VWidth: 0
Flags: W
PickledData: "(dp1
S'org.robofab.postScriptHintData'
p2
(dp3
S'vHints'
p4
((I0
I483
ttp5
sS'hHints'
p6
((I21
I-21
t(I606
I-20
ttp7
ss."
LayerCount: 2
Fore
SplineSet
483 0 m 257
 310 320 l 257
 467 606 l 257
 349 606 l 257
 248 408 l 257
 244 408 l 257
 142 606 l 257
 16 606 l 257
 171 318 l 257
 0 0 l 257
 118 0 l 257
 235 229 l 257
 239 229 l 257
 357 0 l 257
 483 0 l 257
EndSplineSet
EndChar

StartChar: Y
Encoding: 89 89 125
Width: 484
VWidth: 0
Flags: W
PickledData: "(dp1
S'org.robofab.postScriptHintData'
p2
(dp3
S'vHints'
p4
((I186
I113
ttp5
sS'hHints'
p6
((I21
I-21
t(I606
I-20
ttp7
ss."
AnchorPoint: "top" 242 606 basechar 0
LayerCount: 2
Fore
SplineSet
186 0 m 257
 299 0 l 257
 299 229 l 257
 484 606 l 257
 370 606 l 257
 247 340 l 257
 243 340 l 257
 119 606 l 257
 0 606 l 257
 186 229 l 257
 186 0 l 257
EndSplineSet
EndChar

StartChar: Yacute
Encoding: 221 221 126
Width: 484
VWidth: 0
Flags: W
PickledData: "(dp1
S'org.robofab.postScriptHintData'
p2
(dp3
S'vHints'
p4
((I186
I113
ttp5
sS'hHints'
p6
((I21
I-21
t(I606
I-20
t(I664
I117
ttp7
ss."
LayerCount: 2
Fore
SplineSet
269 664 m 257
 364 778 l 257
 363 781 l 257
 257 781 l 257
 181 664 l 257
 269 664 l 257
299 0 m 257
 299 229 l 257
 484 606 l 257
 370 606 l 257
 247 340 l 257
 243 340 l 257
 119 606 l 257
 0 606 l 257
 186 229 l 257
 186 0 l 257
 299 0 l 257
EndSplineSet
EndChar

StartChar: Ycircumflex
Encoding: 374 374 127
Width: 484
VWidth: 0
Flags: W
PickledData: "(dp1
S'org.robofab.postScriptHintData'
p2
(dp3
S'vHints'
p4
((I186
I113
ttp5
sS'hHints'
p6
((I21
I-21
t(I606
I-20
t(I661
I120
ttp7
ss."
LayerCount: 2
Fore
SplineSet
242 722 m 257
 281 661 l 257
 361 661 l 257
 286 781 l 257
 199 781 l 257
 123 661 l 257
 202 661 l 257
 242 722 l 257
186 0 m 257
 299 0 l 257
 299 229 l 257
 484 606 l 257
 370 606 l 257
 247 340 l 257
 243 340 l 257
 119 606 l 257
 0 606 l 257
 186 229 l 257
 186 0 l 257
EndSplineSet
EndChar

StartChar: Ydieresis
Encoding: 376 376 128
Width: 484
VWidth: 0
Flags: W
PickledData: "(dp1
S'org.robofab.postScriptHintData'
p2
(dp3
S'replaceTable'
p4
((dp5
S'index'
p6
I0
sS'type'
p7
I255
s(dp8
g6
I0
sg7
I2
s(dp9
g6
I1
sg7
I2
s(dp10
g6
I0
sg7
I1
s(dp11
g6
I1
sg7
I1
s(dp12
g6
I2
sg7
I1
s(dp13
g6
I8
sg7
I255
s(dp14
g6
I2
sg7
I2
s(dp15
g6
I0
sg7
I1
s(dp16
g6
I1
sg7
I1
s(dp17
g6
I2
sg7
I1
stp18
sS'vHints'
p19
((I120
I89
t(I275
I88
t(I186
I113
ttp20
sS'hHints'
p21
((I21
I-21
t(I606
I-20
t(I684
I97
ttp22
ss."
LayerCount: 2
Fore
SplineSet
120 684 m 257
 209 684 l 257
 209 781 l 257
 120 781 l 257
 120 684 l 257
275 684 m 257
 363 684 l 257
 363 781 l 257
 275 781 l 257
 275 684 l 257
299 0 m 257
 299 229 l 257
 484 606 l 257
 370 606 l 257
 247 340 l 257
 243 340 l 257
 119 606 l 257
 0 606 l 257
 186 229 l 257
 186 0 l 257
 299 0 l 257
EndSplineSet
EndChar

StartChar: Ygrave
Encoding: 7922 7922 129
Width: 484
VWidth: 0
Flags: W
PickledData: "(dp1
S'org.robofab.postScriptHintData'
p2
(dp3
S'vHints'
p4
((I186
I113
ttp5
sS'hHints'
p6
((I21
I-21
t(I606
I-20
t(I664
I117
ttp7
ss."
LayerCount: 2
Fore
SplineSet
215 664 m 257
 302 664 l 257
 226 781 l 257
 120 781 l 257
 119 778 l 257
 215 664 l 257
299 0 m 257
 299 229 l 257
 484 606 l 257
 370 606 l 257
 247 340 l 257
 243 340 l 257
 119 606 l 257
 0 606 l 257
 186 229 l 257
 186 0 l 257
 299 0 l 257
EndSplineSet
EndChar

StartChar: Z
Encoding: 90 90 130
Width: 443
VWidth: 0
Flags: W
PickledData: "(dp1
S'org.robofab.postScriptHintData'
p2
(dp3
S'vHints'
p4
((I14
I410
ttp5
sS'hHints'
p6
((I0
I101
t(I506
I100
ttp7
ss."
AnchorPoint: "top" 222 606 basechar 0
LayerCount: 2
Fore
SplineSet
169 101 m 257
 418 562 l 257
 418 606 l 257
 33 606 l 257
 33 506 l 257
 263 506 l 257
 14 43 l 257
 14 0 l 257
 424 0 l 257
 424 101 l 257
 169 101 l 257
EndSplineSet
EndChar

StartChar: Zacute
Encoding: 377 377 131
Width: 443
VWidth: 0
Flags: W
PickledData: "(dp1
S'org.robofab.postScriptHintData'
p2
(dp3
S'vHints'
p4
((I14
I410
ttp5
sS'hHints'
p6
((I0
I101
t(I506
I100
t(I664
I117
ttp7
ss."
LayerCount: 2
Fore
SplineSet
248 664 m 257
 344 778 l 257
 343 781 l 257
 237 781 l 257
 161 664 l 257
 248 664 l 257
169 101 m 257
 418 562 l 257
 418 606 l 257
 33 606 l 257
 33 506 l 257
 263 506 l 257
 14 43 l 257
 14 0 l 257
 424 0 l 257
 424 101 l 257
 169 101 l 257
EndSplineSet
EndChar

StartChar: Zcaron
Encoding: 381 381 132
Width: 443
VWidth: 0
Flags: W
PickledData: "(dp1
S'org.robofab.postScriptHintData'
p2
(dp3
S'vHints'
p4
((I14
I410
ttp5
sS'hHints'
p6
((I0
I101
t(I506
I100
t(I661
I120
ttp7
ss."
LayerCount: 2
Fore
SplineSet
179 661 m 257
 265 661 l 257
 340 781 l 257
 261 781 l 257
 222 720 l 257
 182 781 l 257
 103 781 l 257
 179 661 l 257
169 101 m 257
 418 562 l 257
 418 606 l 257
 33 606 l 257
 33 506 l 257
 263 506 l 257
 14 43 l 257
 14 0 l 257
 424 0 l 257
 424 101 l 257
 169 101 l 257
EndSplineSet
EndChar

StartChar: Zdotaccent
Encoding: 379 379 133
Width: 443
VWidth: 0
Flags: W
PickledData: "(dp1
S'org.robofab.postScriptHintData'
p2
(dp3
S'vHints'
p4
((I174
I95
ttp5
sS'hHints'
p6
((I0
I101
t(I506
I100
t(I679
I102
ttp7
ss."
LayerCount: 2
Fore
SplineSet
174 679 m 257
 269 679 l 257
 269 781 l 257
 174 781 l 257
 174 679 l 257
169 101 m 257
 418 562 l 257
 418 606 l 257
 33 606 l 257
 33 506 l 257
 263 506 l 257
 14 43 l 257
 14 0 l 257
 424 0 l 257
 424 101 l 257
 169 101 l 257
EndSplineSet
EndChar

StartChar: a
Encoding: 97 97 134
Width: 403
VWidth: 0
Flags: W
PickledData: "(dp1
S'org.robofab.postScriptHintData'
p2
(dp3
S'replaceTable'
p4
((dp5
S'index'
p6
I0
sS'type'
p7
I255
s(dp8
g6
I0
sg7
I2
s(dp9
g6
I1
sg7
I2
s(dp10
g6
I0
sg7
I1
s(dp11
g6
I1
sg7
I1
s(dp12
g6
I2
sg7
I1
s(dp13
g6
I5
sg7
I255
s(dp14
g6
I2
sg7
I2
s(dp15
g6
I1
sg7
I2
s(dp16
g6
I0
sg7
I1
s(dp17
g6
I1
sg7
I1
s(dp18
g6
I2
sg7
I1
s(dp19
g6
I16
sg7
I255
s(dp20
g6
I0
sg7
I2
s(dp21
g6
I1
sg7
I2
s(dp22
g6
I0
sg7
I1
s(dp23
g6
I1
sg7
I1
s(dp24
g6
I2
sg7
I1
s(dp25
g6
I20
sg7
I255
s(dp26
g6
I2
sg7
I2
s(dp27
g6
I1
sg7
I2
s(dp28
g6
I0
sg7
I1
s(dp29
g6
I1
sg7
I1
s(dp30
g6
I2
sg7
I1
stp31
sS'vHints'
p32
((I34
I105
t(I243
I107
t(I12
I109
ttp33
sS'hHints'
p34
((I-11
I89
t(I206
I77
t(I389
I87
ttp35
ss."
AnchorPoint: "top" 202 465 basechar 0
AnchorPoint: "ogonek" 362 9 basechar 0
LayerCount: 2
Fore
SplineSet
139 327 m 257
 139 340 l 258
 139 362 151 389 194 389 c 256
 235 389 243 363 243 331 c 258
 243 283 l 257
 108 283 12 246 12 120 c 256
 12 12 86 -11 129 -11 c 256
 191 -11 220 13 247 50 c 257
 251 50 l 257
 262 14 291 -11 333 -11 c 256
 365 -11 385 -3 396 4 c 257
 396 79 l 257
 375 79 l 258
 362 79 350 88 350 110 c 258
 350 339 l 258
 350 425 300 476 192 476 c 256
 96 476 34 424 34 347 c 256
 34 339 34 332 35 327 c 257
 139 327 l 257
243 179 m 258
 243 125 224 78 173 78 c 256
 137 78 121 98 121 130 c 256
 121 190 181 206 243 206 c 257
 243 179 l 258
EndSplineSet
EndChar

StartChar: aacute
Encoding: 225 225 135
Width: 403
VWidth: 0
Flags: W
PickledData: "(dp1
S'org.robofab.postScriptHintData'
p2
(dp3
S'replaceTable'
p4
((dp5
S'index'
p6
I0
sS'type'
p7
I255
s(dp8
g6
I0
sg7
I2
s(dp9
g6
I1
sg7
I2
s(dp10
g6
I0
sg7
I1
s(dp11
g6
I1
sg7
I1
s(dp12
g6
I2
sg7
I1
s(dp13
g6
I3
sg7
I1
s(dp14
g6
I5
sg7
I255
s(dp15
g6
I2
sg7
I2
s(dp16
g6
I1
sg7
I2
s(dp17
g6
I0
sg7
I1
s(dp18
g6
I1
sg7
I1
s(dp19
g6
I2
sg7
I1
s(dp20
g6
I3
sg7
I1
s(dp21
g6
I10
sg7
I255
s(dp22
g6
I0
sg7
I2
s(dp23
g6
I1
sg7
I2
s(dp24
g6
I0
sg7
I1
s(dp25
g6
I1
sg7
I1
s(dp26
g6
I2
sg7
I1
s(dp27
g6
I3
sg7
I1
s(dp28
g6
I21
sg7
I255
s(dp29
g6
I2
sg7
I2
s(dp30
g6
I1
sg7
I2
s(dp31
g6
I0
sg7
I1
s(dp32
g6
I1
sg7
I1
s(dp33
g6
I2
sg7
I1
s(dp34
g6
I3
sg7
I1
s(dp35
g6
I25
sg7
I255
s(dp36
g6
I0
sg7
I2
s(dp37
g6
I1
sg7
I2
s(dp38
g6
I0
sg7
I1
s(dp39
g6
I1
sg7
I1
s(dp40
g6
I2
sg7
I1
s(dp41
g6
I3
sg7
I1
stp42
sS'vHints'
p43
((I12
I109
t(I243
I107
t(I34
I105
ttp44
sS'hHints'
p45
((I-11
I89
t(I206
I77
t(I389
I87
t(I522
I117
ttp46
ss."
LayerCount: 2
Fore
SplineSet
218 522 m 257
 314 636 l 257
 313 639 l 257
 207 639 l 257
 131 522 l 257
 218 522 l 257
139 327 m 257
 139 340 l 258
 139 362 151 389 194 389 c 256
 235 389 243 363 243 331 c 258
 243 283 l 257
 108 283 12 246 12 120 c 256
 12 12 86 -11 129 -11 c 256
 191 -11 220 13 247 50 c 257
 251 50 l 257
 262 14 291 -11 333 -11 c 256
 365 -11 385 -3 396 4 c 257
 396 79 l 257
 375 79 l 258
 362 79 350 88 350 110 c 258
 350 339 l 258
 350 425 300 476 192 476 c 256
 96 476 34 424 34 347 c 256
 34 339 34 332 35 327 c 257
 139 327 l 257
243 179 m 258
 243 125 224 78 173 78 c 256
 137 78 121 98 121 130 c 256
 121 190 181 206 243 206 c 257
 243 179 l 258
EndSplineSet
EndChar

StartChar: aadeva
Encoding: 2310 2310 136
Width: 900
VWidth: 0
Flags: W
PickledData: "(dp1
S'org.robofab.postScriptHintData'
p2
(dp3
S'replaceTable'
p4
((dp5
S'index'
p6
I0
sS'type'
p7
I255
s(dp8
g6
I0
sg7
I2
s(dp9
g6
I1
sg7
I2
s(dp10
g6
I2
sg7
I2
s(dp11
g6
I3
sg7
I2
s(dp12
g6
I0
sg7
I1
s(dp13
g6
I1
sg7
I1
s(dp14
g6
I2
sg7
I1
s(dp15
g6
I3
sg7
I1
s(dp16
g6
I6
sg7
I255
s(dp17
g6
I4
sg7
I2
s(dp18
g6
I2
sg7
I2
s(dp19
g6
I3
sg7
I2
s(dp20
g6
I0
sg7
I1
s(dp21
g6
I1
sg7
I1
s(dp22
g6
I2
sg7
I1
s(dp23
g6
I3
sg7
I1
s(dp24
g6
I9
sg7
I255
s(dp25
g6
I0
sg7
I2
s(dp26
g6
I1
sg7
I2
s(dp27
g6
I2
sg7
I2
s(dp28
g6
I3
sg7
I2
s(dp29
g6
I0
sg7
I1
s(dp30
g6
I1
sg7
I1
s(dp31
g6
I2
sg7
I1
s(dp32
g6
I4
sg7
I1
s(dp33
g6
I12
sg7
I255
s(dp34
g6
I0
sg7
I2
s(dp35
g6
I1
sg7
I2
s(dp36
g6
I2
sg7
I2
s(dp37
g6
I3
sg7
I2
s(dp38
g6
I0
sg7
I1
s(dp39
g6
I1
sg7
I1
s(dp40
g6
I2
sg7
I1
s(dp41
g6
I5
sg7
I1
s(dp42
g6
I14
sg7
I255
s(dp43
g6
I0
sg7
I2
s(dp44
g6
I1
sg7
I2
s(dp45
g6
I2
sg7
I2
s(dp46
g6
I3
sg7
I2
s(dp47
g6
I0
sg7
I1
s(dp48
g6
I1
sg7
I1
s(dp49
g6
I6
sg7
I1
s(dp50
g6
I4
sg7
I1
s(dp51
g6
I18
sg7
I255
s(dp52
g6
I4
sg7
I2
s(dp53
g6
I2
sg7
I2
s(dp54
g6
I3
sg7
I2
s(dp55
g6
I0
sg7
I1
s(dp56
g6
I1
sg7
I1
s(dp57
g6
I6
sg7
I1
s(dp58
g6
I3
sg7
I1
s(dp59
g6
I20
sg7
I255
s(dp60
g6
I5
sg7
I2
s(dp61
g6
I6
sg7
I2
s(dp62
g6
I2
sg7
I2
s(dp63
g6
I3
sg7
I2
s(dp64
g6
I0
sg7
I1
s(dp65
g6
I1
sg7
I1
s(dp66
g6
I6
sg7
I1
s(dp67
g6
I3
sg7
I1
s(dp68
g6
I29
sg7
I255
s(dp69
g6
I0
sg7
I2
s(dp70
g6
I6
sg7
I2
s(dp71
g6
I2
sg7
I2
s(dp72
g6
I3
sg7
I2
s(dp73
g6
I0
sg7
I1
s(dp74
g6
I1
sg7
I1
s(dp75
g6
I2
sg7
I1
s(dp76
g6
I3
sg7
I1
stp77
sS'vHints'
p78
((I33
I110
t(I229
I110
t(I479
I106
t(I724
I106
t(I147
I120
t(I23
I111
t(I237
I111
ttp79
sS'hHints'
p80
((I21
I-21
t(I42
I89
t(I218
I93
t(I513
I93
t(I529
I88
t(I448
I169
t(I290
I88
ttp81
ss."
AnchorPoint: "top" 779 606 basechar 0
AnchorPoint: "bottom" 779 0 basechar 0
LayerCount: 2
Fore
SplineSet
922 513 m 257
 922 606 l 257
 434 606 l 257
 434 513 l 257
 479 513 l 257
 479 311 l 257
 308 311 l 257
 296 323 282 331 267 337 c 257
 267 340 l 257
 310 364 339 401 339 466 c 256
 339 563 278 617 185 617 c 256
 96 617 33 561 33 474 c 258
 33 448 l 257
 143 448 l 257
 143 466 l 258
 143 507 157 529 186 529 c 256
 215 529 229 507 229 463 c 256
 229 405 208 378 177 378 c 258
 147 378 l 257
 147 290 l 257
 176 290 l 258
 208 290 237 273 237 207 c 256
 237 154 217 131 186 131 c 256
 153 131 134 153 134 193 c 258
 134 215 l 257
 23 215 l 257
 23 196 l 258
 23 103 83 42 185 42 c 256
 283 42 348 103 348 202 c 257
 347 218 l 257
 479 218 l 257
 479 0 l 257
 585 0 l 257
 585 513 l 257
 724 513 l 257
 724 0 l 257
 830 0 l 257
 830 513 l 257
 922 513 l 257
EndSplineSet
EndChar

StartChar: abreve
Encoding: 259 259 137
Width: 403
VWidth: 0
Flags: W
PickledData: "(dp1
S'org.robofab.postScriptHintData'
p2
(dp3
S'replaceTable'
p4
((dp5
S'index'
p6
I0
sS'type'
p7
I255
s(dp8
g6
I0
sg7
I2
s(dp9
g6
I1
sg7
I2
s(dp10
g6
I0
sg7
I1
s(dp11
g6
I1
sg7
I1
s(dp12
g6
I2
sg7
I1
s(dp13
g6
I3
sg7
I1
s(dp14
g6
I1
sg7
I255
s(dp15
g6
I0
sg7
I2
s(dp16
g6
I1
sg7
I2
s(dp17
g6
I0
sg7
I1
s(dp18
g6
I1
sg7
I1
s(dp19
g6
I2
sg7
I1
s(dp20
g6
I4
sg7
I1
s(dp21
g6
I2
sg7
I255
s(dp22
g6
I2
sg7
I2
s(dp23
g6
I1
sg7
I2
s(dp24
g6
I0
sg7
I1
s(dp25
g6
I1
sg7
I1
s(dp26
g6
I2
sg7
I1
s(dp27
g6
I3
sg7
I1
s(dp28
g6
I11
sg7
I255
s(dp29
g6
I0
sg7
I2
s(dp30
g6
I1
sg7
I2
s(dp31
g6
I0
sg7
I1
s(dp32
g6
I1
sg7
I1
s(dp33
g6
I2
sg7
I1
s(dp34
g6
I3
sg7
I1
s(dp35
g6
I22
sg7
I255
s(dp36
g6
I2
sg7
I2
s(dp37
g6
I1
sg7
I2
s(dp38
g6
I0
sg7
I1
s(dp39
g6
I1
sg7
I1
s(dp40
g6
I2
sg7
I1
s(dp41
g6
I3
sg7
I1
s(dp42
g6
I26
sg7
I255
s(dp43
g6
I0
sg7
I2
s(dp44
g6
I1
sg7
I2
s(dp45
g6
I0
sg7
I1
s(dp46
g6
I1
sg7
I1
s(dp47
g6
I2
sg7
I1
s(dp48
g6
I3
sg7
I1
stp49
sS'vHints'
p50
((I12
I109
t(I243
I107
t(I34
I105
ttp51
sS'hHints'
p52
((I-11
I89
t(I206
I77
t(I389
I87
t(I545
I94
t(I545
I65
ttp53
ss."
LayerCount: 2
Fore
SplineSet
244 639 m 257
 242 627 221 610 191 610 c 256
 163 610 142 627 140 639 c 257
 73 639 l 257
 73 595 118 545 191 545 c 256
 264 545 310 595 310 639 c 257
 244 639 l 257
139 327 m 257
 139 340 l 258
 139 362 151 389 194 389 c 256
 235 389 243 363 243 331 c 258
 243 283 l 257
 108 283 12 246 12 120 c 256
 12 12 86 -11 129 -11 c 256
 191 -11 220 13 247 50 c 257
 251 50 l 257
 262 14 291 -11 333 -11 c 256
 365 -11 385 -3 396 4 c 257
 396 79 l 257
 375 79 l 258
 362 79 350 88 350 110 c 258
 350 339 l 258
 350 425 300 476 192 476 c 256
 96 476 34 424 34 347 c 256
 34 339 34 332 35 327 c 257
 139 327 l 257
243 179 m 258
 243 125 224 78 173 78 c 256
 137 78 121 98 121 130 c 256
 121 190 181 206 243 206 c 257
 243 179 l 258
EndSplineSet
EndChar

StartChar: acircumflex
Encoding: 226 226 138
Width: 403
VWidth: 0
Flags: W
PickledData: "(dp1
S'org.robofab.postScriptHintData'
p2
(dp3
S'replaceTable'
p4
((dp5
S'index'
p6
I0
sS'type'
p7
I255
s(dp8
g6
I0
sg7
I2
s(dp9
g6
I1
sg7
I2
s(dp10
g6
I0
sg7
I1
s(dp11
g6
I1
sg7
I1
s(dp12
g6
I2
sg7
I1
s(dp13
g6
I3
sg7
I1
s(dp14
g6
I1
sg7
I255
s(dp15
g6
I2
sg7
I2
s(dp16
g6
I1
sg7
I2
s(dp17
g6
I0
sg7
I1
s(dp18
g6
I1
sg7
I1
s(dp19
g6
I2
sg7
I1
s(dp20
g6
I4
sg7
I1
s(dp21
g6
I12
sg7
I255
s(dp22
g6
I0
sg7
I2
s(dp23
g6
I1
sg7
I2
s(dp24
g6
I0
sg7
I1
s(dp25
g6
I1
sg7
I1
s(dp26
g6
I2
sg7
I1
s(dp27
g6
I4
sg7
I1
s(dp28
g6
I23
sg7
I255
s(dp29
g6
I2
sg7
I2
s(dp30
g6
I1
sg7
I2
s(dp31
g6
I0
sg7
I1
s(dp32
g6
I1
sg7
I1
s(dp33
g6
I2
sg7
I1
s(dp34
g6
I4
sg7
I1
s(dp35
g6
I27
sg7
I255
s(dp36
g6
I0
sg7
I2
s(dp37
g6
I1
sg7
I2
s(dp38
g6
I0
sg7
I1
s(dp39
g6
I1
sg7
I1
s(dp40
g6
I2
sg7
I1
s(dp41
g6
I4
sg7
I1
stp42
sS'vHints'
p43
((I12
I109
t(I243
I107
t(I34
I105
ttp44
sS'hHints'
p45
((I-11
I89
t(I206
I77
t(I389
I87
t(I581
I58
t(I520
I119
ttp46
ss."
LayerCount: 2
Fore
SplineSet
192 581 m 257
 232 520 l 257
 311 520 l 257
 236 639 l 257
 149 639 l 257
 73 520 l 257
 152 520 l 257
 192 581 l 257
139 327 m 257
 139 340 l 258
 139 362 151 389 194 389 c 256
 235 389 243 363 243 331 c 258
 243 283 l 257
 108 283 12 246 12 120 c 256
 12 12 86 -11 129 -11 c 256
 191 -11 220 13 247 50 c 257
 251 50 l 257
 262 14 291 -11 333 -11 c 256
 365 -11 385 -3 396 4 c 257
 396 79 l 257
 375 79 l 258
 362 79 350 88 350 110 c 258
 350 339 l 258
 350 425 300 476 192 476 c 256
 96 476 34 424 34 347 c 256
 34 339 34 332 35 327 c 257
 139 327 l 257
243 179 m 258
 243 125 224 78 173 78 c 256
 137 78 121 98 121 130 c 256
 121 190 181 206 243 206 c 257
 243 179 l 258
EndSplineSet
EndChar

StartChar: acute
Encoding: 180 180 139
Width: 241
VWidth: 0
Flags: W
PickledData: "(dp1
S'org.robofab.postScriptHintData'
p2
(dp3
S'vHints'
p4
((I42
I183
ttp5
sS'hHints'
p6
((I522
I117
ttp7
ss."
AnchorPoint: "top" 134 465 mark 0
LayerCount: 2
Fore
SplineSet
42 522 m 257
 130 522 l 257
 225 636 l 257
 225 639 l 257
 118 639 l 257
 42 522 l 257
EndSplineSet
EndChar

StartChar: adeva
Encoding: 2309 2309 140
Width: 654
VWidth: 0
Flags: W
PickledData: "(dp1
S'org.robofab.postScriptHintData'
p2
(dp3
S'replaceTable'
p4
((dp5
S'index'
p6
I0
sS'type'
p7
I255
s(dp8
g6
I0
sg7
I2
s(dp9
g6
I1
sg7
I2
s(dp10
g6
I2
sg7
I2
s(dp11
g6
I0
sg7
I1
s(dp12
g6
I1
sg7
I1
s(dp13
g6
I2
sg7
I1
s(dp14
g6
I3
sg7
I1
s(dp15
g6
I6
sg7
I255
s(dp16
g6
I3
sg7
I2
s(dp17
g6
I2
sg7
I2
s(dp18
g6
I0
sg7
I1
s(dp19
g6
I1
sg7
I1
s(dp20
g6
I2
sg7
I1
s(dp21
g6
I3
sg7
I1
s(dp22
g6
I9
sg7
I255
s(dp23
g6
I0
sg7
I2
s(dp24
g6
I1
sg7
I2
s(dp25
g6
I2
sg7
I2
s(dp26
g6
I0
sg7
I1
s(dp27
g6
I1
sg7
I1
s(dp28
g6
I2
sg7
I1
s(dp29
g6
I4
sg7
I1
s(dp30
g6
I12
sg7
I255
s(dp31
g6
I0
sg7
I2
s(dp32
g6
I1
sg7
I2
s(dp33
g6
I2
sg7
I2
s(dp34
g6
I0
sg7
I1
s(dp35
g6
I1
sg7
I1
s(dp36
g6
I2
sg7
I1
s(dp37
g6
I5
sg7
I1
s(dp38
g6
I14
sg7
I255
s(dp39
g6
I0
sg7
I2
s(dp40
g6
I1
sg7
I2
s(dp41
g6
I2
sg7
I2
s(dp42
g6
I0
sg7
I1
s(dp43
g6
I1
sg7
I1
s(dp44
g6
I6
sg7
I1
s(dp45
g6
I4
sg7
I1
s(dp46
g6
I18
sg7
I255
s(dp47
g6
I3
sg7
I2
s(dp48
g6
I2
sg7
I2
s(dp49
g6
I0
sg7
I1
s(dp50
g6
I1
sg7
I1
s(dp51
g6
I6
sg7
I1
s(dp52
g6
I3
sg7
I1
s(dp53
g6
I20
sg7
I255
s(dp54
g6
I4
sg7
I2
s(dp55
g6
I5
sg7
I2
s(dp56
g6
I2
sg7
I2
s(dp57
g6
I0
sg7
I1
s(dp58
g6
I1
sg7
I1
s(dp59
g6
I6
sg7
I1
s(dp60
g6
I3
sg7
I1
s(dp61
g6
I29
sg7
I255
s(dp62
g6
I0
sg7
I2
s(dp63
g6
I5
sg7
I2
s(dp64
g6
I2
sg7
I2
s(dp65
g6
I0
sg7
I1
s(dp66
g6
I1
sg7
I1
s(dp67
g6
I2
sg7
I1
s(dp68
g6
I3
sg7
I1
stp69
sS'vHints'
p70
((I33
I110
t(I229
I110
t(I479
I106
t(I147
I120
t(I23
I111
t(I237
I111
ttp71
sS'hHints'
p72
((I21
I-21
t(I42
I89
t(I218
I93
t(I513
I93
t(I529
I88
t(I448
I169
t(I290
I88
ttp73
ss."
AnchorPoint: "top" 532 606 basechar 0
AnchorPoint: "bottom" 531 0 basechar 0
LayerCount: 2
Fore
SplineSet
666 513 m 257
 666 606 l 257
 434 606 l 257
 434 513 l 257
 479 513 l 257
 479 311 l 257
 308 311 l 257
 296 323 282 331 267 337 c 257
 267 340 l 257
 310 364 339 401 339 466 c 256
 339 563 278 617 185 617 c 256
 96 617 33 561 33 474 c 258
 33 448 l 257
 143 448 l 257
 143 466 l 258
 143 507 157 529 186 529 c 256
 215 529 229 507 229 463 c 256
 229 405 208 378 177 378 c 258
 147 378 l 257
 147 290 l 257
 176 290 l 258
 208 290 237 273 237 207 c 256
 237 154 217 131 186 131 c 256
 153 131 134 153 134 193 c 258
 134 215 l 257
 23 215 l 257
 23 196 l 258
 23 103 83 42 185 42 c 256
 283 42 348 103 348 202 c 257
 347 218 l 257
 479 218 l 257
 479 0 l 257
 585 0 l 257
 585 513 l 257
 666 513 l 257
EndSplineSet
EndChar

StartChar: adieresis
Encoding: 228 228 141
Width: 403
VWidth: 0
Flags: W
PickledData: "(dp1
S'org.robofab.postScriptHintData'
p2
(dp3
S'replaceTable'
p4
((dp5
S'index'
p6
I0
sS'type'
p7
I255
s(dp8
g6
I0
sg7
I2
s(dp9
g6
I1
sg7
I2
s(dp10
g6
I0
sg7
I1
s(dp11
g6
I1
sg7
I1
s(dp12
g6
I2
sg7
I1
s(dp13
g6
I3
sg7
I1
s(dp14
g6
I4
sg7
I255
s(dp15
g6
I2
sg7
I2
s(dp16
g6
I3
sg7
I2
s(dp17
g6
I0
sg7
I1
s(dp18
g6
I1
sg7
I1
s(dp19
g6
I2
sg7
I1
s(dp20
g6
I3
sg7
I1
s(dp21
g6
I11
sg7
I255
s(dp22
g6
I4
sg7
I2
s(dp23
g6
I1
sg7
I2
s(dp24
g6
I0
sg7
I1
s(dp25
g6
I1
sg7
I1
s(dp26
g6
I2
sg7
I1
s(dp27
g6
I3
sg7
I1
s(dp28
g6
I24
sg7
I255
s(dp29
g6
I2
sg7
I2
s(dp30
g6
I1
sg7
I2
s(dp31
g6
I0
sg7
I1
s(dp32
g6
I1
sg7
I1
s(dp33
g6
I2
sg7
I1
s(dp34
g6
I3
sg7
I1
s(dp35
g6
I28
sg7
I255
s(dp36
g6
I4
sg7
I2
s(dp37
g6
I1
sg7
I2
s(dp38
g6
I0
sg7
I1
s(dp39
g6
I1
sg7
I1
s(dp40
g6
I2
sg7
I1
s(dp41
g6
I3
sg7
I1
stp42
sS'vHints'
p43
((I71
I88
t(I243
I107
t(I34
I105
t(I225
I88
t(I12
I109
ttp44
sS'hHints'
p45
((I-11
I89
t(I206
I77
t(I389
I87
t(I543
I96
ttp46
ss."
LayerCount: 2
Fore
SplineSet
71 543 m 257
 159 543 l 257
 159 639 l 257
 71 639 l 257
 71 543 l 257
225 543 m 257
 313 543 l 257
 313 639 l 257
 225 639 l 257
 225 543 l 257
139 327 m 257
 139 340 l 258
 139 362 151 389 194 389 c 256
 235 389 243 363 243 331 c 258
 243 283 l 257
 108 283 12 246 12 120 c 256
 12 12 86 -11 129 -11 c 256
 191 -11 220 13 247 50 c 257
 251 50 l 257
 262 14 291 -11 333 -11 c 256
 365 -11 385 -3 396 4 c 257
 396 79 l 257
 375 79 l 258
 362 79 350 88 350 110 c 258
 350 339 l 258
 350 425 300 476 192 476 c 256
 96 476 34 424 34 347 c 256
 34 339 34 332 35 327 c 257
 139 327 l 257
243 179 m 258
 243 125 224 78 173 78 c 256
 137 78 121 98 121 130 c 256
 121 190 181 206 243 206 c 257
 243 179 l 258
EndSplineSet
EndChar

StartChar: ae
Encoding: 230 230 142
Width: 644
VWidth: 0
Flags: W
PickledData: "(dp1
S'org.robofab.postScriptHintData'
p2
(dp3
S'replaceTable'
p4
((dp5
S'index'
p6
I0
sS'type'
p7
I255
s(dp8
g6
I0
sg7
I2
s(dp9
g6
I1
sg7
I2
s(dp10
g6
I2
sg7
I2
s(dp11
g6
I0
sg7
I1
s(dp12
g6
I1
sg7
I1
s(dp13
g6
I2
sg7
I1
s(dp14
g6
I5
sg7
I255
s(dp15
g6
I3
sg7
I2
s(dp16
g6
I1
sg7
I2
s(dp17
g6
I2
sg7
I2
s(dp18
g6
I0
sg7
I1
s(dp19
g6
I1
sg7
I1
s(dp20
g6
I2
sg7
I1
s(dp21
g6
I18
sg7
I255
s(dp22
g6
I0
sg7
I2
s(dp23
g6
I1
sg7
I2
s(dp24
g6
I2
sg7
I2
s(dp25
g6
I0
sg7
I1
s(dp26
g6
I1
sg7
I1
s(dp27
g6
I2
sg7
I1
s(dp28
g6
I25
sg7
I255
s(dp29
g6
I3
sg7
I2
s(dp30
g6
I1
sg7
I2
s(dp31
g6
I2
sg7
I2
s(dp32
g6
I0
sg7
I1
s(dp33
g6
I1
sg7
I1
s(dp34
g6
I2
sg7
I1
stp35
sS'vHints'
p36
((I55
I104
t(I263
I111
t(I499
I111
t(I33
I108
ttp37
sS'hHints'
p38
((I-11
I87
t(I206
I77
t(I389
I87
ttp39
ss."
AnchorPoint: "top" 323 465 basechar 0
LayerCount: 2
Fore
SplineSet
159 327 m 257
 159 340 l 258
 159 362 171 389 215 389 c 256
 255 389 263 363 263 331 c 258
 263 283 l 257
 128 283 33 246 33 120 c 256
 33 12 117 -11 167 -11 c 256
 232 -11 273 15 307 52 c 257
 337 10 384 -11 446 -11 c 256
 540 -11 610 45 610 164 c 257
 505 164 l 257
 505 109 482 76 446 76 c 256
 393 76 375 123 374 206 c 257
 610 206 l 257
 610 232 l 258
 610 400 554 476 442 476 c 256
 397 476 360 461 331 431 c 257
 305 460 265 476 212 476 c 256
 117 476 55 424 55 347 c 256
 55 339 55 332 56 327 c 257
 159 327 l 257
375 283 m 257
 378 350 397 389 442 389 c 256
 481 389 499 350 499 283 c 257
 375 283 l 257
263 179 m 258
 263 125 244 78 194 78 c 256
 157 78 141 98 141 130 c 256
 141 190 202 206 263 206 c 257
 263 179 l 258
EndSplineSet
EndChar

StartChar: aeacute
Encoding: 509 509 143
Width: 644
VWidth: 0
Flags: W
PickledData: "(dp1
S'org.robofab.postScriptHintData'
p2
(dp3
S'replaceTable'
p4
((dp5
S'index'
p6
I0
sS'type'
p7
I255
s(dp8
g6
I0
sg7
I2
s(dp9
g6
I1
sg7
I2
s(dp10
g6
I2
sg7
I2
s(dp11
g6
I0
sg7
I1
s(dp12
g6
I1
sg7
I1
s(dp13
g6
I2
sg7
I1
s(dp14
g6
I3
sg7
I1
s(dp15
g6
I5
sg7
I255
s(dp16
g6
I3
sg7
I2
s(dp17
g6
I1
sg7
I2
s(dp18
g6
I2
sg7
I2
s(dp19
g6
I0
sg7
I1
s(dp20
g6
I1
sg7
I1
s(dp21
g6
I2
sg7
I1
s(dp22
g6
I3
sg7
I1
s(dp23
g6
I10
sg7
I255
s(dp24
g6
I0
sg7
I2
s(dp25
g6
I1
sg7
I2
s(dp26
g6
I2
sg7
I2
s(dp27
g6
I0
sg7
I1
s(dp28
g6
I1
sg7
I1
s(dp29
g6
I2
sg7
I1
s(dp30
g6
I3
sg7
I1
s(dp31
g6
I23
sg7
I255
s(dp32
g6
I3
sg7
I2
s(dp33
g6
I1
sg7
I2
s(dp34
g6
I2
sg7
I2
s(dp35
g6
I0
sg7
I1
s(dp36
g6
I1
sg7
I1
s(dp37
g6
I2
sg7
I1
s(dp38
g6
I3
sg7
I1
s(dp39
g6
I30
sg7
I255
s(dp40
g6
I0
sg7
I2
s(dp41
g6
I1
sg7
I2
s(dp42
g6
I2
sg7
I2
s(dp43
g6
I0
sg7
I1
s(dp44
g6
I1
sg7
I1
s(dp45
g6
I2
sg7
I1
s(dp46
g6
I3
sg7
I1
stp47
sS'vHints'
p48
((I33
I108
t(I263
I111
t(I499
I111
t(I55
I104
ttp49
sS'hHints'
p50
((I-11
I87
t(I206
I77
t(I389
I87
t(I522
I117
ttp51
ss."
LayerCount: 2
Fore
SplineSet
349 522 m 257
 445 636 l 257
 444 639 l 257
 338 639 l 257
 262 522 l 257
 349 522 l 257
159 327 m 257
 159 340 l 258
 159 362 171 389 215 389 c 256
 255 389 263 363 263 331 c 258
 263 283 l 257
 128 283 33 246 33 120 c 256
 33 12 117 -11 167 -11 c 256
 232 -11 273 15 307 52 c 257
 337 10 384 -11 446 -11 c 256
 540 -11 610 45 610 164 c 257
 505 164 l 257
 505 109 482 76 446 76 c 256
 393 76 375 123 374 206 c 257
 610 206 l 257
 610 232 l 258
 610 400 554 476 442 476 c 256
 397 476 360 461 331 431 c 257
 305 460 265 476 212 476 c 256
 117 476 55 424 55 347 c 256
 55 339 55 332 56 327 c 257
 159 327 l 257
375 283 m 257
 378 350 397 389 442 389 c 256
 481 389 499 350 499 283 c 257
 375 283 l 257
263 179 m 258
 263 125 244 78 194 78 c 256
 157 78 141 98 141 130 c 256
 141 190 202 206 263 206 c 257
 263 179 l 258
EndSplineSet
EndChar

StartChar: afii00208
Encoding: 8213 8213 144
Width: 725
VWidth: 0
Flags: W
PickledData: "(dp1
S'org.robofab.postScriptHintData'
p2
(dp3
S'vHints'
p4
((I90
I542
ttp5
sS'hHints'
p6
((I197
I84
ttp7
ss."
LayerCount: 2
Fore
SplineSet
90 281 m 257
 90 197 l 257
 632 197 l 257
 632 281 l 257
 90 281 l 257
EndSplineSet
EndChar

StartChar: afii61248
Encoding: 8453 8453 145
Width: 698
VWidth: 0
Flags: W
PickledData: "(dp1
S'org.robofab.postScriptHintData'
p2
(dp3
S'replaceTable'
p4
((dp5
S'index'
p6
I0
sS'type'
p7
I255
s(dp8
g6
I0
sg7
I2
s(dp9
g6
I1
sg7
I2
s(dp10
g6
I2
sg7
I2
s(dp11
g6
I3
sg7
I2
s(dp12
g6
I0
sg7
I1
s(dp13
g6
I1
sg7
I1
s(dp14
g6
I2
sg7
I1
s(dp15
g6
I15
sg7
I255
s(dp16
g6
I0
sg7
I2
s(dp17
g6
I1
sg7
I2
s(dp18
g6
I2
sg7
I2
s(dp19
g6
I3
sg7
I2
s(dp20
g6
I0
sg7
I1
s(dp21
g6
I3
sg7
I1
s(dp22
g6
I2
sg7
I1
stp23
sS'vHints'
p24
((I34
I78
t(I196
I75
t(I378
I78
t(I562
I78
ttp25
sS'hHints'
p26
((I-11
I62
t(I274
I63
t(I554
I63
t(I269
I62
ttp27
ss."
LayerCount: 2
Fore
SplineSet
196 405 m 257
 196 360 186 337 158 337 c 256
 125 337 112 370 112 434 c 258
 112 457 l 258
 112 521 125 554 156 554 c 256
 181 554 194 532 194 486 c 257
 271 486 l 257
 271 578 226 617 156 617 c 256
 75 617 34 563 34 446 c 256
 34 328 73 274 158 274 c 256
 227 274 271 313 271 405 c 257
 196 405 l 257
111 -11 m 257
 179 -11 l 257
 546 617 l 257
 479 617 l 257
 111 -11 l 257
509 331 m 256
 422 331 378 278 378 160 c 256
 378 42 422 -11 509 -11 c 256
 597 -11 640 42 640 160 c 256
 640 278 597 331 509 331 c 256
562 149 m 258
 562 85 548 51 509 51 c 256
 470 51 456 85 456 149 c 258
 456 171 l 258
 456 235 470 269 509 269 c 256
 548 269 562 235 562 171 c 258
 562 149 l 258
EndSplineSet
EndChar

StartChar: afii61289
Encoding: 8467 8467 146
Width: 433
VWidth: 0
Flags: W
PickledData: "(dp1
S'org.robofab.postScriptHintData'
p2
(dp3
S'vHints'
p4
((I95
I107
t(I292
I78
ttp5
sS'hHints'
p6
((I-11
I88
t(I575
I75
ttp7
ss."
LayerCount: 2
Fore
SplineSet
202 240 m 257
 298 332 370 434 370 514 c 256
 370 603 323 650 243 650 c 256
 167 650 95 600 95 449 c 258
 95 232 l 257
 79 218 63 206 49 195 c 257
 49 117 l 257
 64 127 79 139 95 150 c 257
 95 148 l 258
 96 59 143 -11 258 -11 c 256
 297 -11 327 -3 357 12 c 257
 357 103 l 257
 332 88 304 77 270 77 c 256
 232 77 202 103 202 175 c 258
 202 240 l 257
202 449 m 258
 202 544 229 575 255 575 c 256
 280 575 292 553 292 515 c 256
 292 460 252 395 202 337 c 257
 202 449 l 258
EndSplineSet
EndChar

StartChar: afii61352
Encoding: 8470 8470 147
Width: 808
VWidth: 0
Flags: W
PickledData: "(dp1
S'org.robofab.postScriptHintData'
p2
(dp3
S'replaceTable'
p4
((dp5
S'index'
p6
I0
sS'type'
p7
I255
s(dp8
g6
I0
sg7
I2
s(dp9
g6
I1
sg7
I2
s(dp10
g6
I2
sg7
I2
s(dp11
g6
I3
sg7
I2
s(dp12
g6
I0
sg7
I1
s(dp13
g6
I1
sg7
I1
s(dp14
g6
I2
sg7
I1
s(dp15
g6
I3
sg7
I1
s(dp16
g6
I2
sg7
I255
s(dp17
g6
I0
sg7
I2
s(dp18
g6
I1
sg7
I2
s(dp19
g6
I2
sg7
I2
s(dp20
g6
I3
sg7
I2
s(dp21
g6
I0
sg7
I1
s(dp22
g6
I1
sg7
I1
s(dp23
g6
I2
sg7
I1
s(dp24
g6
I4
sg7
I1
s(dp25
g6
I15
sg7
I255
s(dp26
g6
I0
sg7
I2
s(dp27
g6
I1
sg7
I2
s(dp28
g6
I2
sg7
I2
s(dp29
g6
I3
sg7
I2
s(dp30
g6
I0
sg7
I1
s(dp31
g6
I1
sg7
I1
s(dp32
g6
I2
sg7
I1
s(dp33
g6
I3
sg7
I1
s(dp34
g6
I20
sg7
I255
s(dp35
g6
I0
sg7
I2
s(dp36
g6
I1
sg7
I2
s(dp37
g6
I4
sg7
I2
s(dp38
g6
I0
sg7
I1
s(dp39
g6
I1
sg7
I1
s(dp40
g6
I2
sg7
I1
s(dp41
g6
I3
sg7
I1
s(dp42
g6
I24
sg7
I255
s(dp43
g6
I0
sg7
I2
s(dp44
g6
I1
sg7
I2
s(dp45
g6
I2
sg7
I2
s(dp46
g6
I3
sg7
I2
s(dp47
g6
I0
sg7
I1
s(dp48
g6
I1
sg7
I1
s(dp49
g6
I2
sg7
I1
s(dp50
g6
I3
sg7
I1
stp51
sS'vHints'
p52
((I53
I100
t(I370
I100
t(I521
I81
t(I687
I81
t(I536
I218
ttp53
sS'hHints'
p54
((I21
I-21
t(I159
I74
t(I269
I70
t(I546
I71
t(I606
I-20
ttp55
ss."
LayerCount: 2
Fore
SplineSet
370 0 m 257
 470 0 l 257
 470 606 l 257
 370 606 l 257
 370 218 l 257
 368 216 l 257
 368 216 350 257 340 272 c 257
 153 606 l 257
 53 606 l 257
 53 0 l 257
 153 0 l 257
 153 338 l 258
 153 354 151 388 151 388 c 257
 155 391 l 257
 155 391 175 347 182 334 c 258
 370 0 l 257
644 617 m 256
 564 617 521 563 521 443 c 256
 521 323 564 269 644 269 c 256
 725 269 768 323 768 443 c 256
 768 563 725 617 644 617 c 256
536 159 m 257
 754 159 l 257
 754 233 l 257
 536 233 l 257
 536 159 l 257
687 431 m 258
 687 372 674 339 644 339 c 256
 616 339 602 372 602 431 c 258
 602 454 l 258
 602 514 616 546 644 546 c 256
 674 546 687 514 687 454 c 258
 687 431 l 258
EndSplineSet
EndChar

StartChar: agrave
Encoding: 224 224 148
Width: 403
VWidth: 0
Flags: W
PickledData: "(dp1
S'org.robofab.postScriptHintData'
p2
(dp3
S'replaceTable'
p4
((dp5
S'index'
p6
I0
sS'type'
p7
I255
s(dp8
g6
I0
sg7
I2
s(dp9
g6
I1
sg7
I2
s(dp10
g6
I0
sg7
I1
s(dp11
g6
I1
sg7
I1
s(dp12
g6
I2
sg7
I1
s(dp13
g6
I3
sg7
I1
s(dp14
g6
I5
sg7
I255
s(dp15
g6
I2
sg7
I2
s(dp16
g6
I1
sg7
I2
s(dp17
g6
I0
sg7
I1
s(dp18
g6
I1
sg7
I1
s(dp19
g6
I2
sg7
I1
s(dp20
g6
I3
sg7
I1
s(dp21
g6
I10
sg7
I255
s(dp22
g6
I0
sg7
I2
s(dp23
g6
I1
sg7
I2
s(dp24
g6
I0
sg7
I1
s(dp25
g6
I1
sg7
I1
s(dp26
g6
I2
sg7
I1
s(dp27
g6
I3
sg7
I1
s(dp28
g6
I21
sg7
I255
s(dp29
g6
I2
sg7
I2
s(dp30
g6
I1
sg7
I2
s(dp31
g6
I0
sg7
I1
s(dp32
g6
I1
sg7
I1
s(dp33
g6
I2
sg7
I1
s(dp34
g6
I3
sg7
I1
s(dp35
g6
I25
sg7
I255
s(dp36
g6
I0
sg7
I2
s(dp37
g6
I1
sg7
I2
s(dp38
g6
I0
sg7
I1
s(dp39
g6
I1
sg7
I1
s(dp40
g6
I2
sg7
I1
s(dp41
g6
I3
sg7
I1
stp42
sS'vHints'
p43
((I12
I109
t(I243
I107
t(I34
I105
ttp44
sS'hHints'
p45
((I-11
I89
t(I206
I77
t(I389
I87
t(I522
I117
ttp46
ss."
LayerCount: 2
Fore
SplineSet
165 522 m 257
 253 522 l 257
 177 639 l 257
 71 639 l 257
 70 636 l 257
 165 522 l 257
139 327 m 257
 139 340 l 258
 139 362 151 389 194 389 c 256
 235 389 243 363 243 331 c 258
 243 283 l 257
 108 283 12 246 12 120 c 256
 12 12 86 -11 129 -11 c 256
 191 -11 220 13 247 50 c 257
 251 50 l 257
 262 14 291 -11 333 -11 c 256
 365 -11 385 -3 396 4 c 257
 396 79 l 257
 375 79 l 258
 362 79 350 88 350 110 c 258
 350 339 l 258
 350 425 300 476 192 476 c 256
 96 476 34 424 34 347 c 256
 34 339 34 332 35 327 c 257
 139 327 l 257
243 179 m 258
 243 125 224 78 173 78 c 256
 137 78 121 98 121 130 c 256
 121 190 181 206 243 206 c 257
 243 179 l 258
EndSplineSet
EndChar

StartChar: aiMatra_anusvaradeva
Encoding: 65538 -1 149
Width: 0
VWidth: 0
Flags: W
PickledData: "(dp1
S'org.robofab.postScriptHintData'
p2
(dp3
S'replaceTable'
p4
((dp5
S'index'
p6
I0
sS'type'
p7
I255
s(dp8
g6
I0
sg7
I2
s(dp9
g6
I0
sg7
I1
s(dp10
g6
I1
sg7
I1
s(dp11
g6
I7
sg7
I255
s(dp12
g6
I1
sg7
I2
s(dp13
g6
I0
sg7
I1
s(dp14
g6
I1
sg7
I1
s(dp15
g6
I12
sg7
I255
s(dp16
g6
I0
sg7
I2
s(dp17
g6
I0
sg7
I1
s(dp18
g6
I1
sg7
I1
stp19
sS'vHints'
p20
((I-66
I99
t(I-295
I232
ttp21
sS'hHints'
p22
((I513
I93
t(I674
I83
ttp23
ss."
AnchorPoint: "top" -122 606 mark 0
LayerCount: 2
Fore
SplineSet
-73 606 m 257
 -132 821 l 257
 -239 821 l 257
 -171 606 l 257
 -188 606 l 257
 -300 821 l 257
 -407 821 l 257
 -286 606 l 257
 -295 606 l 257
 -295 513 l 257
 -63 513 l 257
 -63 606 l 257
 -73 606 l 257
33 757 m 257
 -66 757 l 257
 -66 674 l 257
 33 674 l 257
 33 757 l 257
EndSplineSet
EndChar

StartChar: aiMatra_reph_anusvaradeva
Encoding: 65539 -1 150
Width: 0
VWidth: 0
Flags: W
PickledData: "(dp1
S'org.robofab.postScriptHintData'
p2
(dp3
S'replaceTable'
p4
((dp5
S'index'
p6
I0
sS'type'
p7
I255
s(dp8
g6
I0
sg7
I2
s(dp9
g6
I1
sg7
I2
s(dp10
g6
I0
sg7
I1
s(dp11
g6
I1
sg7
I1
s(dp12
g6
I11
sg7
I255
s(dp13
g6
I2
sg7
I2
s(dp14
g6
I1
sg7
I2
s(dp15
g6
I0
sg7
I1
s(dp16
g6
I1
sg7
I1
s(dp17
g6
I17
sg7
I255
s(dp18
g6
I0
sg7
I2
s(dp19
g6
I1
sg7
I2
s(dp20
g6
I0
sg7
I1
s(dp21
g6
I1
sg7
I1
s(dp22
g6
I19
sg7
I255
s(dp23
g6
I0
sg7
I2
s(dp24
g6
I1
sg7
I2
s(dp25
g6
I0
sg7
I1
s(dp26
g6
I2
sg7
I1
s(dp27
g6
I1
sg7
I1
stp28
sS'vHints'
p29
((I-134
I44
t(I-50
I99
t(I-301
I231
ttp30
sS'hHints'
p31
((I513
I93
t(I747
I80
t(I634
I83
ttp32
ss."
AnchorPoint: "top" -129 606 mark 0
LayerCount: 2
Fore
SplineSet
10 747 m 257
 10 827 l 257
 -20 827 l 258
 -87 827 -133 791 -134 723 c 257
 -167 821 l 257
 -274 821 l 257
 -213 695 l 257
 -155 606 l 257
 -185 606 l 257
 -326 821 l 257
 -433 821 l 257
 -272 606 l 257
 -301 606 l 257
 -301 513 l 257
 -70 513 l 257
 -70 606 l 257
 -74 606 l 257
 -83 631 -90 654 -90 675 c 256
 -90 725 -63 747 -1 747 c 258
 10 747 l 257
49 717 m 257
 -50 717 l 257
 -50 634 l 257
 49 634 l 257
 49 717 l 257
EndSplineSet
EndChar

StartChar: aiMatra_rephdeva
Encoding: 65540 -1 151
Width: 0
VWidth: 0
Flags: W
PickledData: "(dp1
S'org.robofab.postScriptHintData'
p2
(dp3
S'replaceTable'
p4
((dp5
S'index'
p6
I0
sS'type'
p7
I255
s(dp8
g6
I0
sg7
I2
s(dp9
g6
I0
sg7
I1
s(dp10
g6
I1
sg7
I1
s(dp11
g6
I6
sg7
I255
s(dp12
g6
I1
sg7
I2
s(dp13
g6
I0
sg7
I1
s(dp14
g6
I1
sg7
I1
s(dp15
g6
I12
sg7
I255
s(dp16
g6
I0
sg7
I2
s(dp17
g6
I0
sg7
I1
s(dp18
g6
I1
sg7
I1
stp19
sS'vHints'
p20
((I-111
I151
t(I-301
I231
ttp21
sS'hHints'
p22
((I513
I93
t(I734
I93
ttp23
ss."
AnchorPoint: "top" -129 606 mark 0
LayerCount: 2
Fore
SplineSet
-139 821 m 257
 -246 821 l 257
 -178 606 l 257
 -195 606 l 257
 -307 821 l 257
 -414 821 l 257
 -293 606 l 257
 -301 606 l 257
 -301 513 l 257
 -70 513 l 257
 -70 606 l 257
 -80 606 l 257
 -88 635 l 258
 -90 642 -90 649 -90 655 c 256
 -90 706 -43 734 29 734 c 258
 40 734 l 257
 40 827 l 257
 11 827 l 258
 -66 827 -109 792 -111 719 c 257
 -139 821 l 257
EndSplineSet
EndChar

StartChar: aideva
Encoding: 2320 2320 152
Width: 491
VWidth: 0
Flags: W
PickledData: "(dp1
S'org.robofab.postScriptHintData'
p2
(dp3
S'replaceTable'
p4
((dp5
S'index'
p6
I0
sS'type'
p7
I255
s(dp8
g6
I0
sg7
I2
s(dp9
g6
I1
sg7
I2
s(dp10
g6
I0
sg7
I1
s(dp11
g6
I1
sg7
I1
s(dp12
g6
I11
sg7
I255
s(dp13
g6
I0
sg7
I2
s(dp14
g6
I2
sg7
I2
s(dp15
g6
I0
sg7
I1
s(dp16
g6
I1
sg7
I1
s(dp17
g6
I20
sg7
I255
s(dp18
g6
I0
sg7
I2
s(dp19
g6
I1
sg7
I2
s(dp20
g6
I0
sg7
I1
s(dp21
g6
I1
sg7
I1
stp22
sS'vHints'
p23
((I70
I106
t(I316
I106
t(I300
I103
ttp24
sS'hHints'
p25
((I252
I89
t(I513
I93
ttp26
ss."
AnchorPoint: "top" 246 465 basechar 0
AnchorPoint: "bottom" 246 0 basechar 0
LayerCount: 2
Fore
SplineSet
513 513 m 257
 513 606 l 257
 411 606 l 257
 352 821 l 257
 245 821 l 257
 313 606 l 257
 -22 606 l 257
 -22 513 l 257
 70 513 l 257
 70 287 l 258
 70 248 81 224 105 201 c 258
 275 42 l 258
 294 23 300 7 300 -17 c 256
 300 -26 300 -35 298 -47 c 257
 387 -47 l 257
 397 -24 403 -6 403 14 c 256
 403 40 386 71 342 108 c 257
 190 250 l 258
 180 259 176 273 176 294 c 258
 176 513 l 257
 316 513 l 257
 316 384 l 258
 316 356 303 341 280 341 c 258
 261 341 l 257
 261 263 l 257
 275 257 296 252 316 252 c 256
 400 252 422 315 422 377 c 258
 422 513 l 257
 513 513 l 257
EndSplineSet
EndChar

StartChar: aivowelsigndeva
Encoding: 2376 2376 153
Width: 0
VWidth: 0
Flags: W
PickledData: "(dp1
S'org.robofab.postScriptHintData'
p2
(dp3
S'vHints'
p4
((I-179
I107
ttp5
sS'hHints'
p6
((I513
I93
ttp7
ss."
AnchorPoint: "top" -123 606 mark 0
LayerCount: 2
Fore
SplineSet
-64 606 m 257
 -72 606 l 257
 -72 821 l 257
 -179 821 l 257
 -179 743 l 258
 -179 697 -176 652 -171 606 c 257
 -188 606 l 257
 -247 821 l 257
 -354 821 l 257
 -286 606 l 257
 -295 606 l 257
 -295 513 l 257
 -64 513 l 257
 -64 606 l 257
EndSplineSet
EndChar

StartChar: amacron
Encoding: 257 257 154
Width: 403
VWidth: 0
Flags: W
PickledData: "(dp1
S'org.robofab.postScriptHintData'
p2
(dp3
S'replaceTable'
p4
((dp5
S'index'
p6
I0
sS'type'
p7
I255
s(dp8
g6
I0
sg7
I2
s(dp9
g6
I0
sg7
I1
s(dp10
g6
I1
sg7
I1
s(dp11
g6
I2
sg7
I1
s(dp12
g6
I3
sg7
I1
s(dp13
g6
I4
sg7
I255
s(dp14
g6
I1
sg7
I2
s(dp15
g6
I2
sg7
I2
s(dp16
g6
I0
sg7
I1
s(dp17
g6
I1
sg7
I1
s(dp18
g6
I2
sg7
I1
s(dp19
g6
I3
sg7
I1
s(dp20
g6
I9
sg7
I255
s(dp21
g6
I3
sg7
I2
s(dp22
g6
I2
sg7
I2
s(dp23
g6
I0
sg7
I1
s(dp24
g6
I1
sg7
I1
s(dp25
g6
I2
sg7
I1
s(dp26
g6
I3
sg7
I1
s(dp27
g6
I20
sg7
I255
s(dp28
g6
I1
sg7
I2
s(dp29
g6
I2
sg7
I2
s(dp30
g6
I0
sg7
I1
s(dp31
g6
I1
sg7
I1
s(dp32
g6
I2
sg7
I1
s(dp33
g6
I3
sg7
I1
s(dp34
g6
I24
sg7
I255
s(dp35
g6
I3
sg7
I2
s(dp36
g6
I2
sg7
I2
s(dp37
g6
I0
sg7
I1
s(dp38
g6
I1
sg7
I1
s(dp39
g6
I2
sg7
I1
s(dp40
g6
I3
sg7
I1
stp41
sS'vHints'
p42
((I79
I226
t(I34
I105
t(I243
I107
t(I12
I109
ttp43
sS'hHints'
p44
((I-11
I89
t(I206
I77
t(I389
I87
t(I530
I76
ttp45
ss."
LayerCount: 2
Fore
SplineSet
79 606 m 257
 79 530 l 257
 305 530 l 257
 305 606 l 257
 79 606 l 257
139 327 m 257
 139 340 l 258
 139 362 151 389 194 389 c 256
 235 389 243 363 243 331 c 258
 243 283 l 257
 108 283 12 246 12 120 c 256
 12 12 86 -11 129 -11 c 256
 191 -11 220 13 247 50 c 257
 251 50 l 257
 262 14 291 -11 333 -11 c 256
 365 -11 385 -3 396 4 c 257
 396 79 l 257
 375 79 l 258
 362 79 350 88 350 110 c 258
 350 339 l 258
 350 425 300 476 192 476 c 256
 96 476 34 424 34 347 c 256
 34 339 34 332 35 327 c 257
 139 327 l 257
243 179 m 258
 243 125 224 78 173 78 c 256
 137 78 121 98 121 130 c 256
 121 190 181 206 243 206 c 257
 243 179 l 258
EndSplineSet
EndChar

StartChar: ampersand
Encoding: 38 38 155
Width: 523
VWidth: 0
Flags: W
PickledData: "(dp1
S'org.robofab.postScriptHintData'
p2
(dp3
S'replaceTable'
p4
((dp5
S'index'
p6
I0
sS'type'
p7
I255
s(dp8
g6
I0
sg7
I2
s(dp9
g6
I1
sg7
I2
s(dp10
g6
I0
sg7
I1
s(dp11
g6
I1
sg7
I1
s(dp12
g6
I2
sg7
I1
s(dp13
g6
I1
sg7
I255
s(dp14
g6
I2
sg7
I2
s(dp15
g6
I1
sg7
I2
s(dp16
g6
I0
sg7
I1
s(dp17
g6
I1
sg7
I1
s(dp18
g6
I2
sg7
I1
s(dp19
g6
I12
sg7
I255
s(dp20
g6
I3
sg7
I2
s(dp21
g6
I1
sg7
I2
s(dp22
g6
I0
sg7
I1
s(dp23
g6
I1
sg7
I1
s(dp24
g6
I2
sg7
I1
s(dp25
g6
I14
sg7
I255
s(dp26
g6
I0
sg7
I2
s(dp27
g6
I1
sg7
I2
s(dp28
g6
I0
sg7
I1
s(dp29
g6
I1
sg7
I1
s(dp30
g6
I2
sg7
I1
stp31
sS'vHints'
p32
((I44
I111
t(I334
I106
t(I32
I110
t(I135
I143
ttp33
sS'hHints'
p34
((I-11
I90
t(I263
I90
t(I528
I89
ttp35
ss."
LayerCount: 2
Fore
SplineSet
135 311 m 257
 76 292 32 243 32 163 c 256
 32 55 118 -11 238 -11 c 256
 370 -11 440 61 440 171 c 258
 440 263 l 257
 510 263 l 257
 510 353 l 257
 334 353 l 257
 334 169 l 258
 334 111 303 79 240 79 c 256
 180 79 142 107 142 168 c 256
 142 244 190 263 244 263 c 258
 278 263 l 257
 278 353 l 257
 241 353 l 258
 191 353 155 388 155 446 c 256
 155 497 188 528 245 528 c 256
 303 528 334 499 334 443 c 258
 334 426 l 257
 440 426 l 257
 440 451 l 258
 440 552 361 617 247 617 c 256
 126 617 44 559 44 451 c 256
 44 379 83 340 135 315 c 257
 135 311 l 257
EndSplineSet
EndChar

StartChar: anusvaradeva
Encoding: 65541 -1 156
Width: 0
VWidth: 0
Flags: W
PickledData: "(dp1
S'org.robofab.postScriptHintData'
p2
(dp3
S'vHints'
p4
((I-58
I99
ttp5
sS'hHints'
p6
((I634
I83
ttp7
ss."
AnchorPoint: "top" -114 606 mark 0
AnchorPoint: "anusvara" -9 606 mark 0
LayerCount: 2
Fore
SplineSet
-58 717 m 257
 -58 634 l 257
 41 634 l 257
 41 717 l 257
 -58 717 l 257
EndSplineSet
EndChar

StartChar: aogonek
Encoding: 261 261 157
Width: 403
VWidth: 0
Flags: W
PickledData: "(dp1
S'org.robofab.postScriptHintData'
p2
(dp3
S'replaceTable'
p4
((dp5
S'index'
p6
I0
sS'type'
p7
I255
s(dp8
g6
I0
sg7
I2
s(dp9
g6
I1
sg7
I2
s(dp10
g6
I0
sg7
I1
s(dp11
g6
I1
sg7
I1
s(dp12
g6
I2
sg7
I1
s(dp13
g6
I3
sg7
I1
s(dp14
g6
I5
sg7
I255
s(dp15
g6
I2
sg7
I2
s(dp16
g6
I3
sg7
I2
s(dp17
g6
I4
sg7
I1
s(dp18
g6
I1
sg7
I1
s(dp19
g6
I2
sg7
I1
s(dp20
g6
I3
sg7
I1
s(dp21
g6
I16
sg7
I255
s(dp22
g6
I0
sg7
I2
s(dp23
g6
I1
sg7
I2
s(dp24
g6
I4
sg7
I1
s(dp25
g6
I5
sg7
I1
s(dp26
g6
I2
sg7
I1
s(dp27
g6
I3
sg7
I1
s(dp28
g6
I20
sg7
I255
s(dp29
g6
I0
sg7
I2
s(dp30
g6
I1
sg7
I2
s(dp31
g6
I6
sg7
I1
s(dp32
g6
I1
sg7
I1
s(dp33
g6
I2
sg7
I1
s(dp34
g6
I3
sg7
I1
s(dp35
g6
I23
sg7
I255
s(dp36
g6
I0
sg7
I2
s(dp37
g6
I1
sg7
I2
s(dp38
g6
I4
sg7
I1
s(dp39
g6
I1
sg7
I1
s(dp40
g6
I2
sg7
I1
s(dp41
g6
I3
sg7
I1
s(dp42
g6
I24
sg7
I255
s(dp43
g6
I0
sg7
I2
s(dp44
g6
I3
sg7
I2
s(dp45
g6
I4
sg7
I1
s(dp46
g6
I5
sg7
I1
s(dp47
g6
I2
sg7
I1
s(dp48
g6
I3
sg7
I1
stp49
sS'vHints'
p50
((I12
I109
t(I283
I113
t(I34
I105
t(I243
I107
ttp51
sS'hHints'
p52
((I-152
I49
t(I13
I-21
t(I206
I77
t(I389
I87
t(I-131
I-21
t(I-11
I89
t(I-164
I61
ttp53
ss."
LayerCount: 2
Fore
SplineSet
429 -103 m 257
 409 -103 l 258
 380 -103 370 -81 370 -58 c 256
 370 -34 386 -9 396 4 c 257
 396 79 l 257
 375 79 l 258
 362 79 350 88 350 110 c 258
 350 339 l 258
 350 425 300 476 192 476 c 256
 96 476 34 424 34 347 c 256
 34 339 34 332 35 327 c 257
 139 327 l 257
 139 340 l 258
 139 362 151 389 194 389 c 256
 235 389 243 363 243 331 c 258
 243 283 l 257
 108 283 12 246 12 120 c 256
 12 12 86 -11 129 -11 c 256
 191 -11 220 13 247 50 c 257
 251 50 l 257
 260 21 280 -1 310 -8 c 257
 294 -27 283 -50 283 -85 c 256
 283 -146 331 -164 370 -164 c 256
 390 -164 408 -160 429 -152 c 257
 429 -103 l 257
243 179 m 258
 243 125 224 78 173 78 c 256
 137 78 121 98 121 130 c 256
 121 190 181 206 243 206 c 257
 243 179 l 258
EndSplineSet
EndChar

StartChar: approxequal
Encoding: 8776 8776 158
Width: 485
VWidth: 0
Flags: W
PickledData: "(dp1
S'org.robofab.postScriptHintData'
p2
(dp3
S'replaceTable'
p4
((dp5
S'index'
p6
I0
sS'type'
p7
I255
s(dp8
g6
I0
sg7
I2
s(dp9
g6
I0
sg7
I1
s(dp10
g6
I1
sg7
I1
s(dp11
g6
I2
sg7
I255
s(dp12
g6
I0
sg7
I2
s(dp13
g6
I0
sg7
I1
s(dp14
g6
I2
sg7
I1
s(dp15
g6
I6
sg7
I255
s(dp16
g6
I0
sg7
I2
s(dp17
g6
I3
sg7
I1
s(dp18
g6
I1
sg7
I1
s(dp19
g6
I10
sg7
I255
s(dp20
g6
I0
sg7
I2
s(dp21
g6
I0
sg7
I1
s(dp22
g6
I2
sg7
I1
s(dp23
g6
I14
sg7
I255
s(dp24
g6
I0
sg7
I2
s(dp25
g6
I3
sg7
I1
s(dp26
g6
I2
sg7
I1
stp27
sS'vHints'
p28
((I24
I436
ttp29
sS'hHints'
p30
((I77
I106
t(I210
I106
t(I263
I107
t(I23
I106
ttp31
ss."
LayerCount: 2
Fore
SplineSet
460 380 m 257
 460 380 408 316 333 316 c 256
 266 316 216 370 150 370 c 256
 66 370 24 305 24 305 c 257
 24 199 l 257
 24 199 76 263 150 263 c 256
 217 263 268 210 333 210 c 256
 417 210 460 274 460 274 c 257
 460 380 l 257
460 194 m 257
 460 194 408 129 333 129 c 256
 266 129 216 183 150 183 c 256
 66 183 24 118 24 118 c 257
 24 12 l 257
 24 12 76 77 150 77 c 256
 217 77 268 23 333 23 c 256
 417 23 460 88 460 88 c 257
 460 194 l 257
EndSplineSet
EndChar

StartChar: aring
Encoding: 229 229 159
Width: 403
VWidth: 0
Flags: W
PickledData: "(dp1
S'org.robofab.postScriptHintData'
p2
(dp3
S'replaceTable'
p4
((dp5
S'index'
p6
I0
sS'type'
p7
I255
s(dp8
g6
I0
sg7
I2
s(dp9
g6
I1
sg7
I2
s(dp10
g6
I0
sg7
I1
s(dp11
g6
I1
sg7
I1
s(dp12
g6
I2
sg7
I1
s(dp13
g6
I3
sg7
I1
s(dp14
g6
I4
sg7
I1
s(dp15
g6
I10
sg7
I255
s(dp16
g6
I2
sg7
I2
s(dp17
g6
I3
sg7
I2
s(dp18
g6
I0
sg7
I1
s(dp19
g6
I1
sg7
I1
s(dp20
g6
I2
sg7
I1
s(dp21
g6
I4
sg7
I1
s(dp22
g6
I15
sg7
I255
s(dp23
g6
I4
sg7
I2
s(dp24
g6
I3
sg7
I2
s(dp25
g6
I0
sg7
I1
s(dp26
g6
I1
sg7
I1
s(dp27
g6
I2
sg7
I1
s(dp28
g6
I4
sg7
I1
s(dp29
g6
I26
sg7
I255
s(dp30
g6
I2
sg7
I2
s(dp31
g6
I3
sg7
I2
s(dp32
g6
I0
sg7
I1
s(dp33
g6
I1
sg7
I1
s(dp34
g6
I2
sg7
I1
s(dp35
g6
I4
sg7
I1
s(dp36
g6
I30
sg7
I255
s(dp37
g6
I4
sg7
I2
s(dp38
g6
I3
sg7
I2
s(dp39
g6
I0
sg7
I1
s(dp40
g6
I1
sg7
I1
s(dp41
g6
I2
sg7
I1
s(dp42
g6
I4
sg7
I1
stp43
sS'vHints'
p44
((I107
I44
t(I232
I45
t(I34
I105
t(I243
I107
t(I12
I109
ttp45
sS'hHints'
p46
((I-11
I89
t(I206
I77
t(I389
I87
t(I496
I44
t(I621
I45
ttp47
ss."
LayerCount: 2
Fore
SplineSet
192 666 m 256
 145 666 107 628 107 581 c 256
 107 533 146 496 192 496 c 256
 239 496 277 534 277 581 c 256
 277 627 240 666 192 666 c 256
192 621 m 256
 214 621 232 604 232 581 c 256
 232 558 214 540 192 540 c 256
 169 540 151 558 151 581 c 256
 151 604 169 621 192 621 c 256
139 327 m 257
 139 340 l 258
 139 362 151 389 194 389 c 256
 235 389 243 363 243 331 c 258
 243 283 l 257
 108 283 12 246 12 120 c 256
 12 12 86 -11 129 -11 c 256
 191 -11 220 13 247 50 c 257
 251 50 l 257
 262 14 291 -11 333 -11 c 256
 365 -11 385 -3 396 4 c 257
 396 79 l 257
 375 79 l 258
 362 79 350 88 350 110 c 258
 350 339 l 258
 350 425 300 476 192 476 c 256
 96 476 34 424 34 347 c 256
 34 339 34 332 35 327 c 257
 139 327 l 257
243 179 m 258
 243 125 224 78 173 78 c 256
 137 78 121 98 121 130 c 256
 121 190 181 206 243 206 c 257
 243 179 l 258
EndSplineSet
EndChar

StartChar: aringacute
Encoding: 507 507 160
Width: 442
VWidth: 0
Flags: W
PickledData: "(dp1
S'org.robofab.postScriptHintData'
p2
(dp3
S'replaceTable'
p4
((dp5
S'index'
p6
I0
sS'type'
p7
I255
s(dp8
g6
I0
sg7
I2
s(dp9
g6
I1
sg7
I2
s(dp10
g6
I0
sg7
I1
s(dp11
g6
I1
sg7
I1
s(dp12
g6
I2
sg7
I1
s(dp13
g6
I3
sg7
I1
s(dp14
g6
I5
sg7
I255
s(dp15
g6
I0
sg7
I2
s(dp16
g6
I2
sg7
I2
s(dp17
g6
I0
sg7
I1
s(dp18
g6
I1
sg7
I1
s(dp19
g6
I2
sg7
I1
s(dp20
g6
I4
sg7
I1
s(dp21
g6
I5
sg7
I1
s(dp22
g6
I3
sg7
I1
s(dp23
g6
I15
sg7
I255
s(dp24
g6
I3
sg7
I2
s(dp25
g6
I1
sg7
I2
s(dp26
g6
I0
sg7
I1
s(dp27
g6
I1
sg7
I1
s(dp28
g6
I2
sg7
I1
s(dp29
g6
I3
sg7
I1
s(dp30
g6
I20
sg7
I255
s(dp31
g6
I4
sg7
I2
s(dp32
g6
I1
sg7
I2
s(dp33
g6
I0
sg7
I1
s(dp34
g6
I1
sg7
I1
s(dp35
g6
I2
sg7
I1
s(dp36
g6
I3
sg7
I1
s(dp37
g6
I31
sg7
I255
s(dp38
g6
I3
sg7
I2
s(dp39
g6
I1
sg7
I2
s(dp40
g6
I0
sg7
I1
s(dp41
g6
I1
sg7
I1
s(dp42
g6
I2
sg7
I1
s(dp43
g6
I3
sg7
I1
s(dp44
g6
I35
sg7
I255
s(dp45
g6
I4
sg7
I2
s(dp46
g6
I1
sg7
I2
s(dp47
g6
I0
sg7
I1
s(dp48
g6
I1
sg7
I1
s(dp49
g6
I2
sg7
I1
s(dp50
g6
I3
sg7
I1
stp51
sS'vHints'
p52
((I107
I44
t(I243
I107
t(I232
I45
t(I34
I105
t(I12
I109
ttp53
sS'hHints'
p54
((I-11
I89
t(I206
I77
t(I389
I87
t(I679
I102
t(I496
I42
t(I617
I43
ttp55
ss."
LayerCount: 2
Fore
SplineSet
241 679 m 257
 327 778 l 257
 326 781 l 257
 220 781 l 257
 154 679 l 257
 241 679 l 257
192 660 m 256
 145 660 107 623 107 578 c 256
 107 532 146 496 192 496 c 256
 239 496 277 533 277 578 c 256
 277 622 240 660 192 660 c 256
192 617 m 256
 214 617 232 600 232 578 c 256
 232 555 214 538 192 538 c 256
 169 538 151 555 151 578 c 256
 151 600 169 617 192 617 c 256
139 327 m 257
 139 340 l 258
 139 362 151 389 194 389 c 256
 235 389 243 363 243 331 c 258
 243 283 l 257
 108 283 12 246 12 120 c 256
 12 12 86 -11 129 -11 c 256
 191 -11 220 13 247 50 c 257
 251 50 l 257
 262 14 291 -11 333 -11 c 256
 365 -11 385 -3 396 4 c 257
 396 79 l 257
 375 79 l 258
 362 79 350 88 350 110 c 258
 350 339 l 258
 350 425 300 476 192 476 c 256
 96 476 34 424 34 347 c 256
 34 339 34 332 35 327 c 257
 139 327 l 257
243 179 m 258
 243 125 224 78 173 78 c 256
 137 78 121 98 121 130 c 256
 121 190 181 206 243 206 c 257
 243 179 l 258
EndSplineSet
EndChar

StartChar: arrowboth
Encoding: 8596 8596 161
Width: 884
VWidth: 0
Flags: W
PickledData: "(dp1
S'org.robofab.postScriptHintData'
p2
(dp3
S'vHints'
p4
((I37
I812
ttp5
sS'hHints'
p6
((I175
I96
ttp7
ss."
LayerCount: 2
Fore
SplineSet
674 61 m 257
 849 214 l 257
 849 232 l 257
 674 385 l 257
 629 385 l 257
 675 271 l 257
 210 271 l 257
 257 385 l 257
 211 385 l 257
 37 232 l 257
 37 214 l 257
 211 61 l 257
 257 61 l 257
 210 175 l 257
 675 175 l 257
 629 61 l 257
 674 61 l 257
EndSplineSet
EndChar

StartChar: arrowdown
Encoding: 8595 8595 162
Width: 442
VWidth: 0
Flags: W
PickledData: "(dp1
S'org.robofab.postScriptHintData'
p2
(dp3
S'vHints'
p4
((I175
I96
ttp5
sS'hHints'
p6
((I-183
I812
ttp7
ss."
LayerCount: 2
Fore
SplineSet
385 -9 m 257
 385 37 l 257
 271 -10 l 257
 271 629 l 257
 175 629 l 257
 175 -10 l 257
 60 37 l 257
 60 -9 l 257
 213 -183 l 257
 232 -183 l 257
 385 -9 l 257
EndSplineSet
EndChar

StartChar: arrowleft
Encoding: 8592 8592 163
Width: 884
VWidth: 0
Flags: W
PickledData: "(dp1
S'org.robofab.postScriptHintData'
p2
(dp3
S'vHints'
p4
((I37
I812
ttp5
sS'hHints'
p6
((I175
I96
ttp7
ss."
LayerCount: 2
Fore
SplineSet
849 175 m 257
 849 271 l 257
 210 271 l 257
 257 385 l 257
 211 385 l 257
 37 232 l 257
 37 214 l 257
 211 60 l 257
 257 60 l 257
 210 175 l 257
 849 175 l 257
EndSplineSet
EndChar

StartChar: arrowright
Encoding: 8594 8594 164
Width: 884
VWidth: 0
Flags: W
PickledData: "(dp1
S'org.robofab.postScriptHintData'
p2
(dp3
S'vHints'
p4
((I37
I812
ttp5
sS'hHints'
p6
((I175
I96
ttp7
ss."
LayerCount: 2
Fore
SplineSet
674 60 m 257
 849 213 l 257
 849 232 l 257
 674 385 l 257
 629 385 l 257
 675 271 l 257
 37 271 l 257
 37 175 l 257
 675 175 l 257
 629 60 l 257
 674 60 l 257
EndSplineSet
EndChar

StartChar: arrowup
Encoding: 8593 8593 165
Width: 442
VWidth: 0
Flags: W
PickledData: "(dp1
S'org.robofab.postScriptHintData'
p2
(dp3
S'vHints'
p4
((I174
I97
ttp5
sS'hHints'
p6
((I-183
I812
ttp7
ss."
LayerCount: 2
Fore
SplineSet
271 455 m 257
 385 408 l 257
 385 454 l 257
 232 629 l 257
 213 629 l 257
 60 454 l 257
 60 408 l 257
 174 455 l 257
 174 -183 l 257
 271 -183 l 257
 271 455 l 257
EndSplineSet
EndChar

StartChar: arrowupdn
Encoding: 8597 8597 166
Width: 442
VWidth: 0
Flags: W
PickledData: "(dp1
S'org.robofab.postScriptHintData'
p2
(dp3
S'vHints'
p4
((I172
I96
ttp5
sS'hHints'
p6
((I-183
I812
ttp7
ss."
LayerCount: 2
Fore
SplineSet
268 455 m 257
 383 408 l 257
 383 454 l 257
 230 629 l 257
 211 629 l 257
 57 454 l 257
 57 408 l 257
 172 455 l 257
 172 -10 l 257
 57 37 l 257
 57 -9 l 257
 211 -183 l 257
 230 -183 l 257
 383 -9 l 257
 383 37 l 257
 268 -10 l 257
 268 455 l 257
EndSplineSet
EndChar

StartChar: arrowupdownbase
Encoding: 8616 8616 167
Width: 442
VWidth: 0
Flags: W
PickledData: "(dp1
S'org.robofab.postScriptHintData'
p2
(dp3
S'vHints'
p4
((I172
I96
ttp5
sS'hHints'
p6
((I-206
I76
ttp7
ss."
LayerCount: 2
Fore
SplineSet
268 455 m 257
 383 408 l 257
 383 454 l 257
 230 629 l 257
 211 629 l 257
 57 454 l 257
 57 408 l 257
 172 455 l 257
 172 85 l 257
 57 132 l 257
 57 86 l 257
 211 -88 l 257
 230 -88 l 257
 383 86 l 257
 383 132 l 257
 268 85 l 257
 268 455 l 257
58 -130 m 257
 58 -206 l 257
 383 -206 l 257
 383 -130 l 257
 58 -130 l 257
EndSplineSet
EndChar

StartChar: asciicircum
Encoding: 94 94 168
Width: 423
VWidth: 0
Flags: W
PickledData: "(dp1
S'org.robofab.postScriptHintData'
p2
(dp3
S'replaceTable'
p4
((dp5
S'index'
p6
I0
sS'type'
p7
I255
s(dp8
g6
I0
sg7
I2
s(dp9
g6
I0
sg7
I1
stp10
sS'vHints'
p11
((I28
I372
ttp12
sS'hHints'
p13
((I499
I107
ttp14
ss."
LayerCount: 2
Fore
SplineSet
213 499 m 257
 302 260 l 257
 400 260 l 257
 261 606 l 257
 166 606 l 257
 28 260 l 257
 126 260 l 257
 213 499 l 257
EndSplineSet
EndChar

StartChar: asciitilde
Encoding: 126 126 169
Width: 423
VWidth: 0
Flags: W
PickledData: "(dp1
S'org.robofab.postScriptHintData'
p2
(dp3
S'replaceTable'
p4
((dp5
S'index'
p6
I0
sS'type'
p7
I255
s(dp8
g6
I0
sg7
I2
s(dp9
g6
I0
sg7
I1
s(dp10
g6
I2
sg7
I255
s(dp11
g6
I0
sg7
I2
s(dp12
g6
I1
sg7
I1
s(dp13
g6
I6
sg7
I255
s(dp14
g6
I0
sg7
I2
s(dp15
g6
I0
sg7
I1
stp16
sS'vHints'
p17
((I24
I376
ttp18
sS'hHints'
p19
((I185
I106
t(I239
I106
ttp20
ss."
LayerCount: 2
Fore
SplineSet
400 355 m 257
 400 355 354 291 291 291 c 256
 232 291 189 345 133 345 c 256
 60 345 24 280 24 280 c 257
 24 174 l 257
 24 174 69 239 133 239 c 256
 191 239 234 185 291 185 c 256
 363 185 400 249 400 249 c 257
 400 355 l 257
EndSplineSet
EndChar

StartChar: asterisk
Encoding: 42 42 170
Width: 282
VWidth: 0
Flags: W
PickledData: "(dp1
S'org.robofab.postScriptHintData'
p2
(dp3
S'vHints'
p4
((I111
I60
ttp5
sS'hHints'
p6
((I471
I-20
t(I606
I-20
ttp7
ss."
LayerCount: 2
Fore
SplineSet
276 510 m 257
 241 568 l 257
 167 517 l 257
 176 606 l 257
 107 606 l 257
 116 516 l 257
 42 568 l 257
 7 510 l 257
 89 471 l 257
 7 434 l 257
 42 374 l 257
 116 427 l 257
 107 337 l 257
 176 337 l 257
 167 427 l 257
 241 374 l 257
 276 434 l 257
 194 471 l 257
 276 510 l 257
EndSplineSet
EndChar

StartChar: at
Encoding: 64 64 171
Width: 707
VWidth: 0
Flags: W
PickledData: "(dp1
S'org.robofab.postScriptHintData'
p2
(dp3
S'replaceTable'
p4
((dp5
S'index'
p6
I0
sS'type'
p7
I255
s(dp8
g6
I0
sg7
I2
s(dp9
g6
I1
sg7
I2
s(dp10
g6
I2
sg7
I2
s(dp11
g6
I3
sg7
I2
s(dp12
g6
I0
sg7
I1
s(dp13
g6
I1
sg7
I1
s(dp14
g6
I2
sg7
I1
s(dp15
g6
I3
sg7
I1
s(dp16
g6
I4
sg7
I1
s(dp17
g6
I9
sg7
I255
s(dp18
g6
I0
sg7
I2
s(dp19
g6
I4
sg7
I2
s(dp20
g6
I2
sg7
I2
s(dp21
g6
I3
sg7
I2
s(dp22
g6
I0
sg7
I1
s(dp23
g6
I1
sg7
I1
s(dp24
g6
I2
sg7
I1
s(dp25
g6
I3
sg7
I1
s(dp26
g6
I4
sg7
I1
s(dp27
g6
I16
sg7
I255
s(dp28
g6
I0
sg7
I2
s(dp29
g6
I1
sg7
I2
s(dp30
g6
I2
sg7
I2
s(dp31
g6
I3
sg7
I2
s(dp32
g6
I0
sg7
I1
s(dp33
g6
I1
sg7
I1
s(dp34
g6
I2
sg7
I1
s(dp35
g6
I3
sg7
I1
s(dp36
g6
I4
sg7
I1
s(dp37
g6
I18
sg7
I255
s(dp38
g6
I0
sg7
I2
s(dp39
g6
I1
sg7
I2
s(dp40
g6
I2
sg7
I2
s(dp41
g6
I3
sg7
I2
s(dp42
g6
I0
sg7
I1
s(dp43
g6
I5
sg7
I1
s(dp44
g6
I2
sg7
I1
s(dp45
g6
I3
sg7
I1
s(dp46
g6
I4
sg7
I1
s(dp47
g6
I20
sg7
I255
s(dp48
g6
I0
sg7
I2
s(dp49
g6
I1
sg7
I2
s(dp50
g6
I2
sg7
I2
s(dp51
g6
I3
sg7
I2
s(dp52
g6
I0
sg7
I1
s(dp53
g6
I1
sg7
I1
s(dp54
g6
I2
sg7
I1
s(dp55
g6
I3
sg7
I1
s(dp56
g6
I4
sg7
I1
stp57
sS'vHints'
p58
((I22
I65
t(I202
I99
t(I411
I97
t(I621
I65
t(I222
I94
ttp59
sS'hHints'
p60
((I-135
I61
t(I19
I82
t(I216
I70
t(I382
I79
t(I556
I61
t(I75
I25
ttp61
ss."
LayerCount: 2
Fore
SplineSet
477 -46 m 257
 446 -62 376 -74 336 -74 c 256
 165 -74 87 28 87 231 c 256
 87 450 193 556 363 556 c 256
 515 556 621 476 621 285 c 256
 621 146 575 101 535 101 c 256
 518 101 508 110 508 134 c 258
 508 336 l 258
 508 415 462 461 364 461 c 256
 278 461 222 414 222 344 c 256
 222 336 222 331 223 326 c 257
 316 326 l 257
 316 338 l 258
 316 358 327 382 367 382 c 256
 404 382 411 359 411 330 c 258
 411 286 l 257
 288 286 202 252 202 138 c 256
 202 41 268 19 308 19 c 256
 363 19 390 41 414 75 c 257
 418 75 l 257
 431 42 452 19 510 19 c 256
 583 19 686 83 686 284 c 256
 686 521 549 617 364 617 c 256
 179 617 22 514 22 232 c 256
 22 -24 142 -135 336 -135 c 256
 373 -135 441 -126 477 -111 c 257
 477 -46 l 257
411 192 m 258
 411 142 393 100 347 100 c 256
 315 100 301 118 301 147 c 256
 301 202 354 216 411 216 c 257
 411 192 l 258
EndSplineSet
EndChar

StartChar: atilde
Encoding: 227 227 172
Width: 403
VWidth: 0
Flags: W
PickledData: "(dp1
S'org.robofab.postScriptHintData'
p2
(dp3
S'replaceTable'
p4
((dp5
S'index'
p6
I0
sS'type'
p7
I255
s(dp8
g6
I0
sg7
I2
s(dp9
g6
I1
sg7
I2
s(dp10
g6
I0
sg7
I1
s(dp11
g6
I1
sg7
I1
s(dp12
g6
I2
sg7
I1
s(dp13
g6
I3
sg7
I1
s(dp14
g6
I1
sg7
I255
s(dp15
g6
I0
sg7
I2
s(dp16
g6
I1
sg7
I2
s(dp17
g6
I0
sg7
I1
s(dp18
g6
I1
sg7
I1
s(dp19
g6
I2
sg7
I1
s(dp20
g6
I4
sg7
I1
s(dp21
g6
I5
sg7
I255
s(dp22
g6
I0
sg7
I2
s(dp23
g6
I1
sg7
I2
s(dp24
g6
I0
sg7
I1
s(dp25
g6
I1
sg7
I1
s(dp26
g6
I2
sg7
I1
s(dp27
g6
I3
sg7
I1
s(dp28
g6
I6
sg7
I255
s(dp29
g6
I0
sg7
I2
s(dp30
g6
I1
sg7
I2
s(dp31
g6
I0
sg7
I1
s(dp32
g6
I1
sg7
I1
s(dp33
g6
I2
sg7
I1
s(dp34
g6
I4
sg7
I1
s(dp35
g6
I7
sg7
I255
s(dp36
g6
I2
sg7
I2
s(dp37
g6
I1
sg7
I2
s(dp38
g6
I0
sg7
I1
s(dp39
g6
I1
sg7
I1
s(dp40
g6
I2
sg7
I1
s(dp41
g6
I3
sg7
I1
s(dp42
g6
I13
sg7
I255
s(dp43
g6
I0
sg7
I2
s(dp44
g6
I1
sg7
I2
s(dp45
g6
I0
sg7
I1
s(dp46
g6
I1
sg7
I1
s(dp47
g6
I2
sg7
I1
s(dp48
g6
I4
sg7
I1
s(dp49
g6
I24
sg7
I255
s(dp50
g6
I2
sg7
I2
s(dp51
g6
I1
sg7
I2
s(dp52
g6
I0
sg7
I1
s(dp53
g6
I1
sg7
I1
s(dp54
g6
I2
sg7
I1
s(dp55
g6
I4
sg7
I1
s(dp56
g6
I28
sg7
I255
s(dp57
g6
I0
sg7
I2
s(dp58
g6
I1
sg7
I2
s(dp59
g6
I0
sg7
I1
s(dp60
g6
I1
sg7
I1
s(dp61
g6
I2
sg7
I1
s(dp62
g6
I4
sg7
I1
stp63
sS'vHints'
p64
((I12
I109
t(I243
I107
t(I34
I105
ttp65
sS'hHints'
p66
((I-11
I89
t(I206
I77
t(I389
I87
t(I564
I75
t(I531
I75
ttp67
ss."
LayerCount: 2
Fore
SplineSet
282 639 m 257
 278 614 266 606 248 606 c 256
 208 606 173 639 130 639 c 256
 68 639 43 580 43 531 c 257
 102 531 l 257
 105 555 118 564 136 564 c 256
 176 564 210 531 253 531 c 256
 316 531 340 591 340 639 c 257
 282 639 l 257
139 327 m 257
 139 340 l 258
 139 362 151 389 194 389 c 256
 235 389 243 363 243 331 c 258
 243 283 l 257
 108 283 12 246 12 120 c 256
 12 12 86 -11 129 -11 c 256
 191 -11 220 13 247 50 c 257
 251 50 l 257
 262 14 291 -11 333 -11 c 256
 365 -11 385 -3 396 4 c 257
 396 79 l 257
 375 79 l 258
 362 79 350 88 350 110 c 258
 350 339 l 258
 350 425 300 476 192 476 c 256
 96 476 34 424 34 347 c 256
 34 339 34 332 35 327 c 257
 139 327 l 257
243 179 m 258
 243 125 224 78 173 78 c 256
 137 78 121 98 121 130 c 256
 121 190 181 206 243 206 c 257
 243 179 l 258
EndSplineSet
EndChar

StartChar: auMatra_anusvaradeva
Encoding: 65542 -1 173
Width: 246
VWidth: 0
Flags: W
PickledData: "(dp1
S'org.robofab.postScriptHintData'
p2
(dp3
S'replaceTable'
p4
((dp5
S'index'
p6
I0
sS'type'
p7
I255
s(dp8
g6
I0
sg7
I2
s(dp9
g6
I0
sg7
I1
s(dp10
g6
I1
sg7
I1
s(dp11
g6
I2
sg7
I1
s(dp12
g6
I11
sg7
I255
s(dp13
g6
I1
sg7
I2
s(dp14
g6
I0
sg7
I1
s(dp15
g6
I1
sg7
I1
s(dp16
g6
I2
sg7
I1
s(dp17
g6
I15
sg7
I255
s(dp18
g6
I0
sg7
I2
s(dp19
g6
I0
sg7
I1
s(dp20
g6
I1
sg7
I1
s(dp21
g6
I2
sg7
I1
stp22
sS'vHints'
p23
((I180
I99
t(I70
I106
ttp24
sS'hHints'
p25
((I21
I-21
t(I513
I93
t(I674
I83
ttp26
ss."
LayerCount: 2
Fore
SplineSet
268 606 m 257
 173 606 l 257
 114 821 l 257
 7 821 l 257
 75 606 l 257
 58 606 l 257
 -55 821 l 257
 -162 821 l 257
 -41 606 l 257
 -50 606 l 257
 -50 513 l 257
 70 513 l 257
 70 0 l 257
 176 0 l 257
 176 513 l 257
 268 513 l 257
 268 606 l 257
279 757 m 257
 180 757 l 257
 180 674 l 257
 279 674 l 257
 279 757 l 257
EndSplineSet
EndChar

StartChar: auMatra_reph_anusvaradeva
Encoding: 65543 -1 174
Width: 246
VWidth: 0
Flags: W
PickledData: "(dp1
S'org.robofab.postScriptHintData'
p2
(dp3
S'replaceTable'
p4
((dp5
S'index'
p6
I0
sS'type'
p7
I255
s(dp8
g6
I0
sg7
I2
s(dp9
g6
I1
sg7
I2
s(dp10
g6
I0
sg7
I1
s(dp11
g6
I1
sg7
I1
s(dp12
g6
I2
sg7
I1
s(dp13
g6
I18
sg7
I255
s(dp14
g6
I2
sg7
I2
s(dp15
g6
I0
sg7
I1
s(dp16
g6
I1
sg7
I1
s(dp17
g6
I2
sg7
I1
s(dp18
g6
I22
sg7
I255
s(dp19
g6
I2
sg7
I2
s(dp20
g6
I1
sg7
I2
s(dp21
g6
I0
sg7
I1
s(dp22
g6
I1
sg7
I1
s(dp23
g6
I2
sg7
I1
s(dp24
g6
I23
sg7
I255
s(dp25
g6
I2
sg7
I2
s(dp26
g6
I1
sg7
I2
s(dp27
g6
I0
sg7
I1
s(dp28
g6
I1
sg7
I1
s(dp29
g6
I3
sg7
I1
s(dp30
g6
I2
sg7
I1
stp31
sS'vHints'
p32
((I118
I44
t(I202
I99
t(I70
I106
ttp33
sS'hHints'
p34
((I21
I-21
t(I513
I93
t(I747
I80
t(I634
I83
ttp35
ss."
LayerCount: 2
Fore
SplineSet
268 606 m 257
 178 606 l 257
 169 631 162 654 162 675 c 256
 162 725 189 747 251 747 c 258
 262 747 l 257
 262 827 l 257
 232 827 l 258
 165 827 119 791 118 723 c 257
 85 821 l 257
 -22 821 l 257
 39 695 l 257
 97 606 l 257
 67 606 l 257
 -74 821 l 257
 -181 821 l 257
 -20 606 l 257
 -49 606 l 257
 -49 513 l 257
 70 513 l 257
 70 0 l 257
 176 0 l 257
 176 513 l 257
 268 513 l 257
 268 606 l 257
301 717 m 257
 202 717 l 257
 202 634 l 257
 301 634 l 257
 301 717 l 257
EndSplineSet
EndChar

StartChar: auMatra_rephdeva
Encoding: 65544 -1 175
Width: 246
VWidth: 0
Flags: W
PickledData: "(dp1
S'org.robofab.postScriptHintData'
p2
(dp3
S'replaceTable'
p4
((dp5
S'index'
p6
I0
sS'type'
p7
I255
s(dp8
g6
I0
sg7
I2
s(dp9
g6
I0
sg7
I1
s(dp10
g6
I1
sg7
I1
s(dp11
g6
I2
sg7
I1
s(dp12
g6
I6
sg7
I255
s(dp13
g6
I1
sg7
I2
s(dp14
g6
I0
sg7
I1
s(dp15
g6
I1
sg7
I1
s(dp16
g6
I2
sg7
I1
s(dp17
g6
I9
sg7
I255
s(dp18
g6
I0
sg7
I2
s(dp19
g6
I0
sg7
I1
s(dp20
g6
I1
sg7
I1
s(dp21
g6
I2
sg7
I1
s(dp22
g6
I13
sg7
I255
s(dp23
g6
I2
sg7
I2
s(dp24
g6
I0
sg7
I1
s(dp25
g6
I1
sg7
I1
s(dp26
g6
I2
sg7
I1
s(dp27
g6
I15
sg7
I255
s(dp28
g6
I0
sg7
I2
s(dp29
g6
I0
sg7
I1
s(dp30
g6
I1
sg7
I1
s(dp31
g6
I2
sg7
I1
s(dp32
g6
I20
sg7
I255
s(dp33
g6
I2
sg7
I2
s(dp34
g6
I0
sg7
I1
s(dp35
g6
I1
sg7
I1
s(dp36
g6
I2
sg7
I1
stp37
sS'vHints'
p38
((I70
I106
t(I-49
I211
t(I141
I151
ttp39
sS'hHints'
p40
((I21
I-21
t(I513
I93
t(I734
I93
ttp41
ss."
LayerCount: 2
Fore
SplineSet
113 821 m 257
 6 821 l 257
 74 606 l 257
 57 606 l 257
 -55 821 l 257
 -162 821 l 257
 -41 606 l 257
 -49 606 l 257
 -49 513 l 257
 70 513 l 257
 70 0 l 257
 176 0 l 257
 176 513 l 257
 268 513 l 257
 268 606 l 257
 172 606 l 257
 164 635 l 258
 162 642 162 649 162 655 c 256
 162 706 209 734 281 734 c 258
 292 734 l 257
 292 827 l 257
 263 827 l 258
 186 827 143 792 141 719 c 257
 113 821 l 257
EndSplineSet
EndChar

StartChar: audeva
Encoding: 2324 2324 176
Width: 900
VWidth: 0
Flags: W
PickledData: "(dp1
S'org.robofab.postScriptHintData'
p2
(dp3
S'replaceTable'
p4
((dp5
S'index'
p6
I0
sS'type'
p7
I255
s(dp8
g6
I0
sg7
I2
s(dp9
g6
I1
sg7
I2
s(dp10
g6
I2
sg7
I2
s(dp11
g6
I0
sg7
I1
s(dp12
g6
I1
sg7
I1
s(dp13
g6
I2
sg7
I1
s(dp14
g6
I3
sg7
I1
s(dp15
g6
I17
sg7
I255
s(dp16
g6
I3
sg7
I2
s(dp17
g6
I4
sg7
I2
s(dp18
g6
I1
sg7
I2
s(dp19
g6
I5
sg7
I2
s(dp20
g6
I0
sg7
I1
s(dp21
g6
I1
sg7
I1
s(dp22
g6
I2
sg7
I1
s(dp23
g6
I4
sg7
I1
s(dp24
g6
I20
sg7
I255
s(dp25
g6
I3
sg7
I2
s(dp26
g6
I4
sg7
I2
s(dp27
g6
I1
sg7
I2
s(dp28
g6
I5
sg7
I2
s(dp29
g6
I0
sg7
I1
s(dp30
g6
I1
sg7
I1
s(dp31
g6
I2
sg7
I1
s(dp32
g6
I5
sg7
I1
s(dp33
g6
I22
sg7
I255
s(dp34
g6
I3
sg7
I2
s(dp35
g6
I4
sg7
I2
s(dp36
g6
I1
sg7
I2
s(dp37
g6
I5
sg7
I2
s(dp38
g6
I0
sg7
I1
s(dp39
g6
I1
sg7
I1
s(dp40
g6
I6
sg7
I1
s(dp41
g6
I4
sg7
I1
s(dp42
g6
I26
sg7
I255
s(dp43
g6
I0
sg7
I2
s(dp44
g6
I1
sg7
I2
s(dp45
g6
I5
sg7
I2
s(dp46
g6
I0
sg7
I1
s(dp47
g6
I1
sg7
I1
s(dp48
g6
I6
sg7
I1
s(dp49
g6
I3
sg7
I1
s(dp50
g6
I28
sg7
I255
s(dp51
g6
I6
sg7
I2
s(dp52
g6
I7
sg7
I2
s(dp53
g6
I1
sg7
I2
s(dp54
g6
I5
sg7
I2
s(dp55
g6
I0
sg7
I1
s(dp56
g6
I1
sg7
I1
s(dp57
g6
I6
sg7
I1
s(dp58
g6
I3
sg7
I1
s(dp59
g6
I37
sg7
I255
s(dp60
g6
I3
sg7
I2
s(dp61
g6
I7
sg7
I2
s(dp62
g6
I1
sg7
I2
s(dp63
g6
I5
sg7
I2
s(dp64
g6
I0
sg7
I1
s(dp65
g6
I1
sg7
I1
s(dp66
g6
I2
sg7
I1
s(dp67
g6
I3
sg7
I1
s(dp68
g6
I46
sg7
I255
s(dp69
g6
I3
sg7
I2
s(dp70
g6
I4
sg7
I2
s(dp71
g6
I1
sg7
I2
s(dp72
g6
I2
sg7
I2
s(dp73
g6
I0
sg7
I1
s(dp74
g6
I1
sg7
I1
s(dp75
g6
I2
sg7
I1
s(dp76
g6
I3
sg7
I1
stp77
sS'vHints'
p78
((I147
I120
t(I479
I106
t(I721
I107
t(I33
I110
t(I229
I110
t(I724
I106
t(I23
I111
t(I237
I111
ttp79
sS'hHints'
p80
((I21
I-21
t(I42
I89
t(I218
I93
t(I513
I93
t(I529
I88
t(I448
I169
t(I290
I88
ttp81
ss."
AnchorPoint: "top" 450 465 basechar 0
AnchorPoint: "bottom" 450 0 basechar 0
LayerCount: 2
Fore
SplineSet
922 606 m 257
 828 606 l 257
 828 821 l 257
 721 821 l 257
 721 743 l 258
 721 697 724 652 729 606 c 257
 712 606 l 257
 653 821 l 257
 546 821 l 257
 614 606 l 257
 434 606 l 257
 434 513 l 257
 479 513 l 257
 479 311 l 257
 308 311 l 257
 296 323 282 331 267 337 c 257
 267 340 l 257
 310 364 339 401 339 466 c 256
 339 563 278 617 185 617 c 256
 96 617 33 561 33 474 c 258
 33 448 l 257
 143 448 l 257
 143 466 l 258
 143 507 157 529 186 529 c 256
 215 529 229 507 229 463 c 256
 229 405 208 378 177 378 c 258
 147 378 l 257
 147 290 l 257
 176 290 l 258
 208 290 237 273 237 207 c 256
 237 154 217 131 186 131 c 256
 153 131 134 153 134 193 c 258
 134 215 l 257
 23 215 l 257
 23 196 l 258
 23 103 83 42 185 42 c 256
 283 42 348 103 348 202 c 257
 347 218 l 257
 479 218 l 257
 479 0 l 257
 585 0 l 257
 585 513 l 257
 724 513 l 257
 724 0 l 257
 830 0 l 257
 830 513 l 257
 922 513 l 257
 922 606 l 257
EndSplineSet
EndChar

StartChar: b
Encoding: 98 98 177
Width: 443
VWidth: 0
Flags: W
PickledData: "(dp1
S'org.robofab.postScriptHintData'
p2
(dp3
S'replaceTable'
p4
((dp5
S'index'
p6
I0
sS'type'
p7
I255
s(dp8
g6
I0
sg7
I2
s(dp9
g6
I1
sg7
I2
s(dp10
g6
I0
sg7
I1
s(dp11
g6
I1
sg7
I1
s(dp12
g6
I2
sg7
I1
s(dp13
g6
I3
sg7
I255
s(dp14
g6
I0
sg7
I2
s(dp15
g6
I1
sg7
I2
s(dp16
g6
I3
sg7
I1
s(dp17
g6
I1
sg7
I1
s(dp18
g6
I2
sg7
I1
s(dp19
g6
I5
sg7
I255
s(dp20
g6
I0
sg7
I2
s(dp21
g6
I1
sg7
I2
s(dp22
g6
I4
sg7
I1
s(dp23
g6
I1
sg7
I1
s(dp24
g6
I2
sg7
I1
s(dp25
g6
I7
sg7
I255
s(dp26
g6
I0
sg7
I2
s(dp27
g6
I1
sg7
I2
s(dp28
g6
I0
sg7
I1
s(dp29
g6
I1
sg7
I1
s(dp30
g6
I2
sg7
I1
stp31
sS'vHints'
p32
((I49
I106
t(I296
I111
ttp33
sS'hHints'
p34
((I-11
I97
t(I379
I97
t(I639
I-20
t(I0
I86
t(I57
I29
ttp35
ss."
LayerCount: 2
Fore
SplineSet
155 417 m 257
 155 639 l 257
 49 639 l 257
 49 0 l 257
 137 0 l 257
 148 57 l 257
 152 57 l 257
 175 12 213 -11 257 -11 c 256
 349 -11 407 65 407 233 c 256
 407 402 345 476 263 476 c 256
 216 476 176 454 159 417 c 257
 155 417 l 257
296 216 m 258
 296 132 277 86 225 86 c 256
 174 86 155 132 155 216 c 258
 155 248 l 258
 155 331 174 379 225 379 c 256
 277 379 296 333 296 249 c 258
 296 216 l 258
EndSplineSet
EndChar

StartChar: b_radeva
Encoding: 65545 -1 178
Width: 431
VWidth: 0
Flags: W
PickledData: "(dp1
S'org.robofab.postScriptHintData'
p2
(dp3
S'vHints'
p4
((I30
I110
t(I260
I106
ttp5
sS'hHints'
p6
((I21
I-21
t(I364
I97
t(I513
I93
ttp7
ss."
AnchorPoint: "top" 314 606 basechar 0
AnchorPoint: "bottom" 314 0 basechar 0
LayerCount: 2
Fore
SplineSet
458 513 m 257
 458 606 l 257
 -12 606 l 257
 -12 513 l 257
 260 513 l 257
 260 436 l 257
 256 436 l 257
 238 450 208 461 171 461 c 256
 84 461 30 411 30 297 c 256
 30 197 72 146 140 134 c 257
 22 0 l 257
 138 0 l 257
 260 155 l 257
 260 0 l 257
 366 0 l 257
 366 513 l 257
 458 513 l 257
260 287 m 258
 260 272 258 259 251 250 c 257
 190 364 l 257
 200 364 l 258
 245 364 260 343 260 304 c 258
 260 287 l 258
140 306 m 258
 140 323 143 336 150 345 c 257
 213 230 l 257
 200 229 l 257
 156 229 140 250 140 287 c 258
 140 306 l 258
EndSplineSet
EndChar

StartChar: backslash
Encoding: 92 92 179
Width: 202
VWidth: 0
Flags: W
PickledData: "(dp1
S'org.robofab.postScriptHintData'
p2
(dp3
S'vHints'
p4
((I1
I201
ttp5
sS'hHints'
p6
((I-43
I693
ttp7
ss."
LayerCount: 2
Fore
SplineSet
1 650 m 257
 126 -43 l 257
 202 -43 l 257
 76 650 l 257
 1 650 l 257
EndSplineSet
EndChar

StartChar: bar
Encoding: 124 124 180
Width: 203
VWidth: 0
Flags: W
PickledData: "(dp1
S'org.robofab.postScriptHintData'
p2
(dp3
S'vHints'
p4
((I62
I79
ttp5
sS'hHints'
p6
((I-132
I-21
t(I639
I-20
ttp7
ss."
LayerCount: 2
Fore
SplineSet
62 639 m 257
 62 -153 l 257
 141 -153 l 257
 141 639 l 257
 62 639 l 257
EndSplineSet
EndChar

StartChar: bh_radeva
Encoding: 65546 -1 181
Width: 613
VWidth: 0
Flags: W
PickledData: "(dp1
S'org.robofab.postScriptHintData'
p2
(dp3
S'replaceTable'
p4
((dp5
S'index'
p6
I0
sS'type'
p7
I255
s(dp8
g6
I0
sg7
I2
s(dp9
g6
I1
sg7
I2
s(dp10
g6
I0
sg7
I1
s(dp11
g6
I1
sg7
I1
s(dp12
g6
I2
sg7
I1
s(dp13
g6
I8
sg7
I255
s(dp14
g6
I2
sg7
I2
s(dp15
g6
I0
sg7
I2
s(dp16
g6
I1
sg7
I2
s(dp17
g6
I0
sg7
I1
s(dp18
g6
I1
sg7
I1
s(dp19
g6
I3
sg7
I1
s(dp20
g6
I17
sg7
I255
s(dp21
g6
I3
sg7
I2
s(dp22
g6
I0
sg7
I2
s(dp23
g6
I1
sg7
I2
s(dp24
g6
I0
sg7
I1
s(dp25
g6
I4
sg7
I1
s(dp26
g6
I1
sg7
I1
s(dp27
g6
I2
sg7
I1
stp28
sS'vHints'
p29
((I220
I106
t(I438
I106
t(I40
I104
t(I51
I98
ttp30
sS'hHints'
p31
((I21
I-21
t(I280
I94
t(I513
I93
t(I530
I87
t(I113
I94
ttp32
ss."
AnchorPoint: "top" 492 606 basechar 0
AnchorPoint: "bottom" 492 0 basechar 0
LayerCount: 2
Fore
SplineSet
624 513 m 257
 624 606 l 257
 393 606 l 257
 393 513 l 257
 438 513 l 257
 438 374 l 257
 326 374 l 257
 326 477 l 258
 326 565 276 617 182 617 c 256
 96 617 40 562 40 482 c 256
 40 464 42 445 45 437 c 257
 144 437 l 257
 144 475 l 258
 144 502 154 530 184 530 c 256
 212 530 220 504 220 470 c 258
 220 374 l 257
 184 374 l 258
 105 374 51 322 51 245 c 256
 51 161 97 113 184 113 c 256
 272 113 326 170 326 245 c 258
 326 280 l 257
 438 280 l 257
 438 277 l 257
 211 0 l 257
 325 0 l 257
 438 151 l 257
 438 0 l 257
 544 0 l 257
 544 513 l 257
 624 513 l 257
220 280 m 257
 220 245 l 258
 220 226 207 207 184 207 c 256
 161 207 149 222 149 245 c 256
 149 266 163 280 184 280 c 258
 220 280 l 257
EndSplineSet
EndChar

StartChar: bhadeva
Encoding: 2349 2349 182
Width: 613
VWidth: 0
Flags: W
PickledData: "(dp1
S'org.robofab.postScriptHintData'
p2
(dp3
S'replaceTable'
p4
((dp5
S'index'
p6
I0
sS'type'
p7
I255
s(dp8
g6
I0
sg7
I2
s(dp9
g6
I1
sg7
I2
s(dp10
g6
I0
sg7
I1
s(dp11
g6
I1
sg7
I1
s(dp12
g6
I2
sg7
I1
s(dp13
g6
I8
sg7
I255
s(dp14
g6
I2
sg7
I2
s(dp15
g6
I0
sg7
I2
s(dp16
g6
I1
sg7
I2
s(dp17
g6
I0
sg7
I1
s(dp18
g6
I1
sg7
I1
s(dp19
g6
I3
sg7
I1
s(dp20
g6
I17
sg7
I255
s(dp21
g6
I3
sg7
I2
s(dp22
g6
I0
sg7
I2
s(dp23
g6
I1
sg7
I2
s(dp24
g6
I0
sg7
I1
s(dp25
g6
I4
sg7
I1
s(dp26
g6
I1
sg7
I1
s(dp27
g6
I2
sg7
I1
stp28
sS'vHints'
p29
((I224
I106
t(I438
I106
t(I40
I104
t(I51
I102
ttp30
sS'hHints'
p31
((I21
I-21
t(I226
I94
t(I513
I93
t(I530
I87
t(I45
I94
ttp32
ss."
AnchorPoint: "top" 494 606 basechar 0
AnchorPoint: "bottom" 492 0 basechar 0
LayerCount: 2
Fore
SplineSet
624 513 m 257
 624 606 l 257
 393 606 l 257
 393 513 l 257
 438 513 l 257
 438 320 l 257
 330 320 l 257
 330 477 l 258
 330 565 281 617 184 617 c 256
 96 617 40 562 40 482 c 256
 40 464 42 445 45 437 c 257
 144 437 l 257
 144 475 l 258
 144 502 154 530 186 530 c 256
 217 530 224 504 224 470 c 258
 224 320 l 257
 189 320 l 258
 107 320 51 265 51 183 c 256
 51 98 103 45 189 45 c 256
 275 45 330 102 330 183 c 258
 330 226 l 257
 438 226 l 257
 438 0 l 257
 544 0 l 257
 544 513 l 257
 624 513 l 257
224 226 m 257
 224 183 l 258
 224 158 211 139 189 139 c 256
 168 139 153 157 153 183 c 256
 153 208 167 226 189 226 c 258
 224 226 l 257
EndSplineSet
EndChar

StartChar: braceleft
Encoding: 123 123 183
Width: 282
VWidth: 0
Flags: W
PickledData: "(dp1
S'org.robofab.postScriptHintData'
p2
(dp3
S'replaceTable'
p4
((dp5
S'index'
p6
I0
sS'type'
p7
I255
s(dp8
g6
I0
sg7
I2
s(dp9
g6
I0
sg7
I1
s(dp10
g6
I1
sg7
I1
s(dp11
g6
I2
sg7
I1
s(dp12
g6
I4
sg7
I255
s(dp13
g6
I1
sg7
I2
s(dp14
g6
I0
sg7
I1
s(dp15
g6
I3
sg7
I1
s(dp16
g6
I1
sg7
I1
s(dp17
g6
I2
sg7
I1
s(dp18
g6
I5
sg7
I255
s(dp19
g6
I0
sg7
I2
s(dp20
g6
I0
sg7
I1
s(dp21
g6
I3
sg7
I1
s(dp22
g6
I1
sg7
I1
s(dp23
g6
I2
sg7
I1
s(dp24
g6
I13
sg7
I255
s(dp25
g6
I0
sg7
I2
s(dp26
g6
I0
sg7
I1
s(dp27
g6
I1
sg7
I1
s(dp28
g6
I2
sg7
I1
stp29
sS'vHints'
p30
((I89
I105
t(I21
I71
ttp31
sS'hHints'
p32
((I-141
I69
t(I259
I36
t(I582
I68
t(I214
I36
ttp33
ss."
LayerCount: 2
Fore
SplineSet
263 650 m 257
 172 650 89 630 89 519 c 258
 89 348 l 258
 89 309 53 295 21 295 c 257
 21 214 l 257
 53 214 89 201 89 161 c 258
 89 -10 l 258
 89 -121 172 -141 263 -141 c 257
 263 -72 l 257
 232 -72 194 -64 194 -19 c 256
 194 40 189 95 187 155 c 256
 185 215 161 250 92 250 c 257
 92 259 l 257
 161 259 186 294 187 354 c 256
 189 414 194 469 194 528 c 256
 194 573 232 582 263 582 c 257
 263 650 l 257
EndSplineSet
EndChar

StartChar: braceright
Encoding: 125 125 184
Width: 282
VWidth: 0
Flags: W
PickledData: "(dp1
S'org.robofab.postScriptHintData'
p2
(dp3
S'replaceTable'
p4
((dp5
S'index'
p6
I0
sS'type'
p7
I255
s(dp8
g6
I0
sg7
I2
s(dp9
g6
I0
sg7
I1
s(dp10
g6
I1
sg7
I1
s(dp11
g6
I2
sg7
I1
s(dp12
g6
I5
sg7
I255
s(dp13
g6
I0
sg7
I2
s(dp14
g6
I0
sg7
I1
s(dp15
g6
I3
sg7
I1
s(dp16
g6
I1
sg7
I1
s(dp17
g6
I2
sg7
I1
s(dp18
g6
I12
sg7
I255
s(dp19
g6
I1
sg7
I2
s(dp20
g6
I0
sg7
I1
s(dp21
g6
I1
sg7
I1
s(dp22
g6
I2
sg7
I1
s(dp23
g6
I13
sg7
I255
s(dp24
g6
I0
sg7
I2
s(dp25
g6
I0
sg7
I1
s(dp26
g6
I1
sg7
I1
s(dp27
g6
I2
sg7
I1
stp28
sS'vHints'
p29
((I88
I105
t(I190
I71
ttp30
sS'hHints'
p31
((I-141
I69
t(I259
I36
t(I582
I68
t(I214
I36
ttp32
ss."
LayerCount: 2
Fore
SplineSet
19 582 m 257
 50 582 88 573 88 528 c 256
 88 469 93 414 95 354 c 256
 96 294 121 259 190 259 c 257
 190 250 l 257
 121 250 97 215 95 155 c 256
 93 95 88 40 88 -19 c 256
 88 -64 50 -72 19 -72 c 257
 19 -141 l 257
 110 -141 193 -121 193 -10 c 258
 193 161 l 258
 193 201 229 214 261 214 c 257
 261 295 l 257
 229 295 193 309 193 348 c 258
 193 519 l 258
 193 630 110 650 19 650 c 257
 19 582 l 257
EndSplineSet
EndChar

StartChar: bracketleft
Encoding: 91 91 185
Width: 241
VWidth: 0
Flags: W
PickledData: "(dp1
S'org.robofab.postScriptHintData'
p2
(dp3
S'vHints'
p4
((I43
I103
ttp5
sS'hHints'
p6
((I-142
I84
t(I566
I84
ttp7
ss."
LayerCount: 2
Fore
SplineSet
146 -58 m 257
 146 566 l 257
 219 566 l 257
 219 650 l 257
 43 650 l 257
 43 -142 l 257
 219 -142 l 257
 219 -58 l 257
 146 -58 l 257
EndSplineSet
EndChar

StartChar: bracketright
Encoding: 93 93 186
Width: 241
VWidth: 0
Flags: W
PickledData: "(dp1
S'org.robofab.postScriptHintData'
p2
(dp3
S'vHints'
p4
((I95
I103
ttp5
sS'hHints'
p6
((I-142
I84
t(I566
I84
ttp7
ss."
LayerCount: 2
Fore
SplineSet
22 -58 m 257
 22 -142 l 257
 198 -142 l 257
 198 650 l 257
 22 650 l 257
 22 566 l 257
 95 566 l 257
 95 -58 l 257
 22 -58 l 257
EndSplineSet
EndChar

StartChar: breve
Encoding: 728 728 187
Width: 241
VWidth: 0
Flags: W
PickledData: "(dp1
S'org.robofab.postScriptHintData'
p2
(dp3
S'replaceTable'
p4
((dp5
S'index'
p6
I0
sS'type'
p7
I255
s(dp8
g6
I0
sg7
I2
s(dp9
g6
I0
sg7
I1
s(dp10
g6
I1
sg7
I255
s(dp11
g6
I0
sg7
I2
s(dp12
g6
I1
sg7
I1
s(dp13
g6
I2
sg7
I255
s(dp14
g6
I0
sg7
I2
s(dp15
g6
I0
sg7
I1
stp16
sS'vHints'
p17
((I1
I236
ttp18
sS'hHints'
p19
((I545
I94
t(I545
I65
ttp20
ss."
AnchorPoint: "top" 119 465 mark 0
LayerCount: 2
Fore
SplineSet
171 639 m 257
 170 627 149 610 118 610 c 256
 89 610 69 627 66 639 c 257
 1 639 l 257
 1 595 46 545 118 545 c 256
 192 545 237 595 237 639 c 257
 171 639 l 257
EndSplineSet
EndChar

StartChar: brokenbar
Encoding: 166 166 188
Width: 203
VWidth: 0
Flags: W
PickledData: "(dp1
S'org.robofab.postScriptHintData'
p2
(dp3
S'vHints'
p4
((I62
I79
ttp5
sS'hHints'
p6
((I-132
I-21
t(I639
I-20
ttp7
ss."
LayerCount: 2
Fore
SplineSet
62 639 m 257
 62 310 l 257
 141 310 l 257
 141 639 l 257
 62 639 l 257
62 176 m 257
 62 -153 l 257
 141 -153 l 257
 141 176 l 257
 62 176 l 257
EndSplineSet
EndChar

StartChar: bullet
Encoding: 8226 8226 189
Width: 254
VWidth: 0
Flags: W
PickledData: "(dp1
S'org.robofab.postScriptHintData'
p2
(dp3
S'vHints'
p4
((I20
I213
ttp5
sS'hHints'
p6
((I194
I219
ttp7
ss."
LayerCount: 2
Fore
SplineSet
126 413 m 256
 67 413 20 363 20 304 c 256
 20 245 67 194 126 194 c 256
 186 194 233 245 233 304 c 256
 233 363 186 413 126 413 c 256
EndSplineSet
EndChar

StartChar: bulletoperator
Encoding: 8729 8729 190
Width: 202
VWidth: 0
Flags: W
PickledData: "(dp1
S'org.robofab.postScriptHintData'
p2
(dp3
S'vHints'
p4
((I47
I107
ttp5
sS'hHints'
p6
((I246
I116
ttp7
ss."
LayerCount: 2
Fore
SplineSet
47 362 m 257
 47 246 l 257
 154 246 l 257
 154 362 l 257
 47 362 l 257
EndSplineSet
EndChar

StartChar: c
Encoding: 99 99 191
Width: 403
VWidth: 0
Flags: W
PickledData: "(dp1
S'org.robofab.postScriptHintData'
p2
(dp3
S'vHints'
p4
((I36
I111
t(I266
I105
ttp5
sS'hHints'
p6
((I-11
I90
t(I386
I90
ttp7
ss."
AnchorPoint: "top" 202 465 basechar 0
AnchorPoint: "bottom" 202 0 basechar 0
LayerCount: 2
Fore
SplineSet
266 175 m 257
 266 111 250 79 212 79 c 256
 164 79 147 126 147 216 c 258
 147 249 l 258
 147 339 164 386 209 386 c 256
 245 386 263 355 263 290 c 257
 371 290 l 257
 371 420 308 476 209 476 c 256
 94 476 36 400 36 232 c 256
 36 65 91 -11 212 -11 c 256
 309 -11 371 45 371 175 c 257
 266 175 l 257
EndSplineSet
EndChar

StartChar: cacute
Encoding: 263 263 192
Width: 403
VWidth: 0
Flags: W
PickledData: "(dp1
S'org.robofab.postScriptHintData'
p2
(dp3
S'vHints'
p4
((I36
I111
t(I263
I108
ttp5
sS'hHints'
p6
((I-11
I90
t(I386
I90
t(I522
I117
ttp7
ss."
LayerCount: 2
Fore
SplineSet
237 522 m 257
 331 636 l 257
 331 639 l 257
 225 639 l 257
 149 522 l 257
 237 522 l 257
266 175 m 257
 266 111 250 79 212 79 c 256
 164 79 147 126 147 216 c 258
 147 249 l 258
 147 339 164 386 209 386 c 256
 245 386 263 355 263 290 c 257
 371 290 l 257
 371 420 308 476 209 476 c 256
 94 476 36 400 36 232 c 256
 36 65 91 -11 212 -11 c 256
 309 -11 371 45 371 175 c 257
 266 175 l 257
EndSplineSet
EndChar

StartChar: cadeva
Encoding: 2330 2330 193
Width: 483
VWidth: 0
Flags: W
PickledData: "(dp1
S'org.robofab.postScriptHintData'
p2
(dp3
S'replaceTable'
p4
((dp5
S'index'
p6
I0
sS'type'
p7
I255
s(dp8
g6
I0
sg7
I2
s(dp9
g6
I1
sg7
I2
s(dp10
g6
I0
sg7
I1
s(dp11
g6
I1
sg7
I1
s(dp12
g6
I2
sg7
I1
s(dp13
g6
I19
sg7
I255
s(dp14
g6
I0
sg7
I2
s(dp15
g6
I1
sg7
I2
s(dp16
g6
I3
sg7
I1
s(dp17
g6
I1
sg7
I1
s(dp18
g6
I2
sg7
I1
stp19
sS'vHints'
p20
((I77
I111
t(I307
I106
ttp21
sS'hHints'
p22
((I72
I97
t(I334
I94
t(I513
I93
t(I0
I169
ttp23
ss."
AnchorPoint: "top" 363 606 basechar 0
AnchorPoint: "bottom" 363 0 basechar 0
LayerCount: 2
Fore
SplineSet
505 513 m 257
 505 606 l 257
 -33 606 l 257
 -33 513 l 257
 307 513 l 257
 307 247 l 258
 307 197 292 169 247 169 c 256
 202 169 188 197 188 247 c 258
 188 266 l 258
 188 310 202 334 247 334 c 258
 257 334 l 257
 257 428 l 257
 4 428 l 257
 4 334 l 257
 97 334 l 257
 84 311 77 282 77 245 c 256
 77 126 132 72 218 72 c 256
 255 72 285 83 303 97 c 257
 307 97 l 257
 307 0 l 257
 413 0 l 257
 413 513 l 257
 505 513 l 257
EndSplineSet
EndChar

StartChar: candrabindudeva
Encoding: 2305 2305 194
Width: 0
VWidth: 0
Flags: W
PickledData: "(dp1
S'org.robofab.postScriptHintData'
p2
(dp3
S'replaceTable'
p4
((dp5
S'index'
p6
I0
sS'type'
p7
I255
s(dp8
g6
I0
sg7
I2
s(dp9
g6
I0
sg7
I1
s(dp10
g6
I1
sg7
I1
s(dp11
g6
I4
sg7
I255
s(dp12
g6
I1
sg7
I2
s(dp13
g6
I0
sg7
I2
s(dp14
g6
I2
sg7
I2
s(dp15
g6
I0
sg7
I1
s(dp16
g6
I1
sg7
I1
stp17
sS'vHints'
p18
((I-171
I99
t(I-281
I84
t(I-46
I86
ttp19
sS'hHints'
p20
((I634
I64
t(I744
I49
ttp21
ss."
AnchorPoint: "top" -121 606 mark 0
LayerCount: 2
Fore
SplineSet
-171 827 m 257
 -171 744 l 257
 -72 744 l 257
 -72 827 l 257
 -171 827 l 257
-46 793 m 257
 -46 726 -68 698 -122 698 c 256
 -175 698 -197 726 -197 793 c 257
 -281 793 l 257
 -281 699 -220 634 -122 634 c 256
 -22 634 40 699 40 793 c 257
 -46 793 l 257
EndSplineSet
EndChar

StartChar: caron
Encoding: 711 711 195
Width: 241
VWidth: 0
Flags: W
PickledData: "(dp1
S'org.robofab.postScriptHintData'
p2
(dp3
S'vHints'
p4
((I0
I238
ttp5
sS'hHints'
p6
((I520
I119
ttp7
ss."
AnchorPoint: "top" 119 465 mark 0
LayerCount: 2
Fore
SplineSet
0 639 m 257
 76 520 l 257
 163 520 l 257
 238 639 l 257
 158 639 l 257
 119 578 l 257
 80 639 l 257
 0 639 l 257
EndSplineSet
EndChar

StartChar: ccaron
Encoding: 269 269 196
Width: 403
VWidth: 0
Flags: W
PickledData: "(dp1
S'org.robofab.postScriptHintData'
p2
(dp3
S'vHints'
p4
((I36
I111
t(I263
I108
ttp5
sS'hHints'
p6
((I-11
I90
t(I386
I90
t(I520
I119
ttp7
ss."
LayerCount: 2
Fore
SplineSet
91 639 m 257
 167 520 l 257
 254 520 l 257
 329 639 l 257
 249 639 l 257
 210 578 l 257
 171 639 l 257
 91 639 l 257
266 175 m 257
 266 111 250 79 212 79 c 256
 164 79 147 126 147 216 c 258
 147 249 l 258
 147 339 164 386 209 386 c 256
 245 386 263 355 263 290 c 257
 371 290 l 257
 371 420 308 476 209 476 c 256
 94 476 36 400 36 232 c 256
 36 65 91 -11 212 -11 c 256
 309 -11 371 45 371 175 c 257
 266 175 l 257
EndSplineSet
EndChar

StartChar: ccedilla
Encoding: 231 231 197
Width: 403
VWidth: 0
Flags: W
PickledData: "(dp1
S'org.robofab.postScriptHintData'
p2
(dp3
S'replaceTable'
p4
((dp5
S'index'
p6
I0
sS'type'
p7
I255
s(dp8
g6
I0
sg7
I2
s(dp9
g6
I1
sg7
I2
s(dp10
g6
I2
sg7
I2
s(dp11
g6
I0
sg7
I1
s(dp12
g6
I1
sg7
I1
s(dp13
g6
I2
sg7
I1
s(dp14
g6
I3
sg7
I1
s(dp15
g6
I1
sg7
I255
s(dp16
g6
I0
sg7
I2
s(dp17
g6
I3
sg7
I2
s(dp18
g6
I0
sg7
I1
s(dp19
g6
I1
sg7
I1
s(dp20
g6
I2
sg7
I1
s(dp21
g6
I3
sg7
I1
s(dp22
g6
I5
sg7
I255
s(dp23
g6
I0
sg7
I2
s(dp24
g6
I2
sg7
I2
s(dp25
g6
I4
sg7
I1
s(dp26
g6
I2
sg7
I1
s(dp27
g6
I3
sg7
I1
s(dp28
g6
I6
sg7
I255
s(dp29
g6
I0
sg7
I2
s(dp30
g6
I3
sg7
I2
s(dp31
g6
I0
sg7
I1
s(dp32
g6
I1
sg7
I1
s(dp33
g6
I2
sg7
I1
s(dp34
g6
I3
sg7
I1
s(dp35
g6
I9
sg7
I255
s(dp36
g6
I0
sg7
I2
s(dp37
g6
I1
sg7
I2
s(dp38
g6
I2
sg7
I2
s(dp39
g6
I0
sg7
I1
s(dp40
g6
I5
sg7
I1
s(dp41
g6
I3
sg7
I1
s(dp42
g6
I10
sg7
I255
s(dp43
g6
I0
sg7
I2
s(dp44
g6
I2
sg7
I2
s(dp45
g6
I0
sg7
I1
s(dp46
g6
I1
sg7
I1
s(dp47
g6
I2
sg7
I1
s(dp48
g6
I3
sg7
I1
s(dp49
g6
I20
sg7
I255
s(dp50
g6
I0
sg7
I2
s(dp51
g6
I2
sg7
I2
s(dp52
g6
I0
sg7
I1
s(dp53
g6
I2
sg7
I1
s(dp54
g6
I3
sg7
I1
stp55
sS'vHints'
p56
((I36
I111
t(I168
I62
t(I263
I108
t(I224
I76
ttp57
sS'hHints'
p58
((I-161
I50
t(I-68
I39
t(I14
I-21
t(I386
I90
t(I-133
I-21
t(I11
I-21
ttp59
ss."
LayerCount: 2
Fore
SplineSet
165 -68 m 257
 194 -68 l 258
 217 -68 224 -75 224 -89 c 256
 224 -106 211 -111 192 -111 c 258
 129 -111 l 257
 129 -154 l 257
 150 -158 179 -161 203 -161 c 256
 241 -161 300 -149 300 -89 c 256
 300 -49 268 -32 230 -29 c 257
 232 -10 l 257
 317 -2 371 54 371 175 c 257
 266 175 l 257
 266 111 250 79 212 79 c 256
 164 79 147 126 147 216 c 258
 147 249 l 258
 147 339 164 386 209 386 c 256
 245 386 263 355 263 290 c 257
 371 290 l 257
 371 420 308 476 209 476 c 256
 94 476 36 400 36 232 c 256
 36 85 79 8 172 -7 c 257
 165 -68 l 257
EndSplineSet
EndChar

StartChar: ccircumflex
Encoding: 265 265 198
Width: 403
VWidth: 0
Flags: W
PickledData: "(dp1
S'org.robofab.postScriptHintData'
p2
(dp3
S'replaceTable'
p4
((dp5
S'index'
p6
I0
sS'type'
p7
I255
s(dp8
g6
I0
sg7
I2
s(dp9
g6
I1
sg7
I2
s(dp10
g6
I0
sg7
I1
s(dp11
g6
I1
sg7
I1
s(dp12
g6
I2
sg7
I1
s(dp13
g6
I1
sg7
I255
s(dp14
g6
I0
sg7
I2
s(dp15
g6
I1
sg7
I2
s(dp16
g6
I0
sg7
I1
s(dp17
g6
I1
sg7
I1
s(dp18
g6
I3
sg7
I1
stp19
sS'vHints'
p20
((I36
I111
t(I263
I108
ttp21
sS'hHints'
p22
((I-11
I90
t(I386
I90
t(I581
I58
t(I520
I119
ttp23
ss."
LayerCount: 2
Fore
SplineSet
210 581 m 257
 249 520 l 257
 329 520 l 257
 254 639 l 257
 167 639 l 257
 91 520 l 257
 171 520 l 257
 210 581 l 257
266 175 m 257
 266 111 250 79 212 79 c 256
 164 79 147 126 147 216 c 258
 147 249 l 258
 147 339 164 386 209 386 c 256
 245 386 263 355 263 290 c 257
 371 290 l 257
 371 420 308 476 209 476 c 256
 94 476 36 400 36 232 c 256
 36 65 91 -11 212 -11 c 256
 309 -11 371 45 371 175 c 257
 266 175 l 257
EndSplineSet
EndChar

StartChar: cdotaccent
Encoding: 267 267 199
Width: 403
VWidth: 0
Flags: W
PickledData: "(dp1
S'org.robofab.postScriptHintData'
p2
(dp3
S'replaceTable'
p4
((dp5
S'index'
p6
I0
sS'type'
p7
I255
s(dp8
g6
I0
sg7
I2
s(dp9
g6
I0
sg7
I1
s(dp10
g6
I1
sg7
I1
s(dp11
g6
I2
sg7
I1
s(dp12
g6
I4
sg7
I255
s(dp13
g6
I1
sg7
I2
s(dp14
g6
I2
sg7
I2
s(dp15
g6
I0
sg7
I1
s(dp16
g6
I1
sg7
I1
s(dp17
g6
I2
sg7
I1
stp18
sS'vHints'
p19
((I163
I94
t(I36
I111
t(I263
I108
ttp20
sS'hHints'
p21
((I-11
I90
t(I386
I90
t(I537
I102
ttp22
ss."
LayerCount: 2
Fore
SplineSet
163 639 m 257
 163 537 l 257
 257 537 l 257
 257 639 l 257
 163 639 l 257
266 175 m 257
 266 111 250 79 212 79 c 256
 164 79 147 126 147 216 c 258
 147 249 l 258
 147 339 164 386 209 386 c 256
 245 386 263 355 263 290 c 257
 371 290 l 257
 371 420 308 476 209 476 c 256
 94 476 36 400 36 232 c 256
 36 65 91 -11 212 -11 c 256
 309 -11 371 45 371 175 c 257
 266 175 l 257
EndSplineSet
EndChar

StartChar: cedilla
Encoding: 184 184 200
Width: 241
VWidth: 0
Flags: W
PickledData: "(dp1
S'org.robofab.postScriptHintData'
p2
(dp3
S'replaceTable'
p4
((dp5
S'index'
p6
I0
sS'type'
p7
I255
s(dp8
g6
I0
sg7
I2
s(dp9
g6
I0
sg7
I1
s(dp10
g6
I1
sg7
I1
s(dp11
g6
I3
sg7
I255
s(dp12
g6
I1
sg7
I2
s(dp13
g6
I0
sg7
I1
s(dp14
g6
I1
sg7
I1
s(dp15
g6
I7
sg7
I255
s(dp16
g6
I1
sg7
I2
s(dp17
g6
I2
sg7
I1
s(dp18
g6
I1
sg7
I1
s(dp19
g6
I8
sg7
I255
s(dp20
g6
I1
sg7
I2
s(dp21
g6
I0
sg7
I1
s(dp22
g6
I1
sg7
I1
stp23
sS'vHints'
p24
((I72
I63
t(I126
I76
ttp25
sS'hHints'
p26
((I-161
I50
t(I-68
I78
t(I-133
I-21
ttp27
ss."
AnchorPoint: "bottom" 118 0 mark 0
LayerCount: 2
Fore
SplineSet
137 10 m 257
 77 10 l 257
 67 -68 l 257
 96 -68 l 258
 119 -68 126 -75 126 -89 c 256
 126 -106 114 -111 95 -111 c 258
 32 -111 l 257
 32 -154 l 257
 53 -158 81 -161 106 -161 c 256
 144 -161 202 -149 202 -89 c 256
 202 -49 171 -32 133 -29 c 257
 137 10 l 257
EndSplineSet
EndChar

StartChar: cent
Encoding: 162 162 201
Width: 403
VWidth: 0
Flags: W
PickledData: "(dp1
S'org.robofab.postScriptHintData'
p2
(dp3
S'replaceTable'
p4
((dp5
S'index'
p6
I0
sS'type'
p7
I255
s(dp8
g6
I0
sg7
I2
s(dp9
g6
I1
sg7
I2
s(dp10
g6
I2
sg7
I2
s(dp11
g6
I0
sg7
I1
s(dp12
g6
I12
sg7
I255
s(dp13
g6
I0
sg7
I2
s(dp14
g6
I1
sg7
I2
s(dp15
g6
I3
sg7
I2
s(dp16
g6
I0
sg7
I1
stp17
sS'vHints'
p18
((I36
I100
t(I183
I49
t(I277
I94
t(I273
I98
ttp19
sS'hHints'
p20
((I639
I-20
ttp21
ss."
LayerCount: 2
Fore
SplineSet
232 639 m 257
 183 639 l 257
 183 545 l 257
 85 534 36 457 36 303 c 256
 36 150 82 73 183 62 c 257
 183 -43 l 257
 232 -43 l 257
 232 61 l 257
 317 68 371 125 371 246 c 257
 277 246 l 257
 277 190 263 157 232 149 c 257
 232 456 l 257
 259 446 273 415 273 361 c 257
 371 361 l 257
 371 480 317 537 232 545 c 257
 232 639 l 257
183 152 m 257
 150 167 136 213 136 286 c 258
 136 320 l 258
 136 394 149 441 183 455 c 257
 183 152 l 257
EndSplineSet
EndChar

StartChar: chadeva
Encoding: 2331 2331 202
Width: 555
VWidth: 0
Flags: W
PickledData: "(dp1
S'org.robofab.postScriptHintData'
p2
(dp3
S'replaceTable'
p4
((dp5
S'index'
p6
I0
sS'type'
p7
I255
s(dp8
g6
I0
sg7
I2
s(dp9
g6
I1
sg7
I2
s(dp10
g6
I0
sg7
I1
s(dp11
g6
I1
sg7
I1
s(dp12
g6
I10
sg7
I255
s(dp13
g6
I0
sg7
I2
s(dp14
g6
I2
sg7
I2
s(dp15
g6
I0
sg7
I1
s(dp16
g6
I1
sg7
I1
s(dp17
g6
I11
sg7
I255
s(dp18
g6
I0
sg7
I2
s(dp19
g6
I1
sg7
I2
s(dp20
g6
I0
sg7
I1
s(dp21
g6
I1
sg7
I1
s(dp22
g6
I12
sg7
I255
s(dp23
g6
I0
sg7
I2
s(dp24
g6
I2
sg7
I2
s(dp25
g6
I0
sg7
I1
s(dp26
g6
I2
sg7
I1
s(dp27
g6
I1
sg7
I1
s(dp28
g6
I21
sg7
I255
s(dp29
g6
I0
sg7
I2
s(dp30
g6
I1
sg7
I2
s(dp31
g6
I0
sg7
I1
s(dp32
g6
I1
sg7
I1
s(dp33
g6
I23
sg7
I255
s(dp34
g6
I0
sg7
I2
s(dp35
g6
I3
sg7
I2
s(dp36
g6
I2
sg7
I2
s(dp37
g6
I0
sg7
I1
s(dp38
g6
I2
sg7
I1
s(dp39
g6
I1
sg7
I1
stp40
sS'vHints'
p41
((I40
I111
t(I338
I106
t(I422
I103
t(I254
I94
ttp42
sS'hHints'
p43
((I42
I87
t(I513
I93
t(I285
I82
ttp44
ss."
AnchorPoint: "top" 392 606 basechar 0
AnchorPoint: "bottom" 278 0 basechar 0
LayerCount: 2
Fore
SplineSet
444 513 m 257
 577 513 l 257
 577 606 l 257
 -22 606 l 257
 -22 513 l 257
 58 513 l 257
 46 494 40 472 40 446 c 256
 40 385 76 343 116 328 c 257
 75 312 40 267 40 209 c 256
 40 112 137 42 276 42 c 256
 431 42 525 128 525 267 c 256
 525 345 494 390 444 408 c 257
 444 513 l 257
422 257 m 258
 422 187 383 129 278 129 c 256
 196 129 151 164 151 223 c 256
 151 260 169 280 196 280 c 258
 206 280 l 257
 206 367 l 257
 195 367 l 258
 168 367 151 393 151 445 c 256
 151 478 158 513 189 513 c 258
 338 513 l 257
 338 412 l 257
 283 399 254 363 254 317 c 256
 254 302 257 290 258 285 c 257
 348 285 l 257
 348 307 l 258
 348 329 360 340 383 340 c 256
 413 340 422 320 422 281 c 258
 422 257 l 258
EndSplineSet
EndChar

StartChar: circumflex
Encoding: 710 710 203
Width: 241
VWidth: 0
Flags: W
PickledData: "(dp1
S'org.robofab.postScriptHintData'
p2
(dp3
S'replaceTable'
p4
((dp5
S'index'
p6
I0
sS'type'
p7
I255
s(dp8
g6
I0
sg7
I2
s(dp9
g6
I0
sg7
I1
s(dp10
g6
I1
sg7
I255
s(dp11
g6
I0
sg7
I2
s(dp12
g6
I1
sg7
I1
stp13
sS'vHints'
p14
((I0
I238
ttp15
sS'hHints'
p16
((I581
I58
t(I520
I119
ttp17
ss."
AnchorPoint: "top" 119 465 mark 0
LayerCount: 2
Fore
SplineSet
119 581 m 257
 158 520 l 257
 238 520 l 257
 163 639 l 257
 76 639 l 257
 0 520 l 257
 80 520 l 257
 119 581 l 257
EndSplineSet
EndChar

StartChar: colon
Encoding: 58 58 204
Width: 241
VWidth: 0
Flags: W
PickledData: "(dp1
S'org.robofab.postScriptHintData'
p2
(dp3
S'vHints'
p4
((I49
I122
ttp5
sS'hHints'
p6
((I0
I121
t(I344
I121
ttp7
ss."
LayerCount: 2
Fore
SplineSet
49 465 m 257
 49 344 l 257
 171 344 l 257
 171 465 l 257
 49 465 l 257
49 121 m 257
 49 0 l 257
 171 0 l 257
 171 121 l 257
 49 121 l 257
EndSplineSet
EndChar

StartChar: comma
Encoding: 44 44 205
Width: 202
VWidth: 0
Flags: W
PickledData: "(dp1
S'org.robofab.postScriptHintData'
p2
(dp3
S'vHints'
p4
((I40
I122
ttp5
sS'hHints'
p6
((I0
I121
ttp7
ss."
LayerCount: 2
Fore
SplineSet
40 -138 m 257
 103 -138 l 257
 162 11 l 257
 162 121 l 257
 40 121 l 257
 40 0 l 257
 88 0 l 257
 40 -138 l 257
EndSplineSet
EndChar

StartChar: commaaccentcomb
Encoding: 806 806 206
Width: 0
VWidth: 0
Flags: W
PickledData: "(dp1
S'org.robofab.postScriptHintData'
p2
(dp3
S'vHints'
p4
((I-177
I110
ttp5
sS'hHints'
p6
((I-157
I108
ttp7
ss."
AnchorPoint: "bottom" -122 0 mark 0
LayerCount: 2
Fore
SplineSet
-165 -232 m 257
 -108 -232 l 257
 -67 -148 l 257
 -67 -49 l 257
 -177 -49 l 257
 -177 -157 l 257
 -133 -157 l 257
 -165 -232 l 257
EndSplineSet
EndChar

StartChar: copyright
Encoding: 169 169 207
Width: 534
VWidth: 0
Flags: W
PickledData: "(dp1
S'org.robofab.postScriptHintData'
p2
(dp3
S'vHints'
p4
((I14
I50
t(I126
I78
t(I324
I76
t(I470
I50
ttp5
sS'hHints'
p6
((I-11
I49
t(I118
I67
t(I423
I66
t(I568
I49
ttp7
ss."
LayerCount: 2
Fore
SplineSet
267 617 m 256
 110 617 14 494 14 303 c 256
 14 112 110 -11 267 -11 c 256
 424 -11 520 112 520 303 c 256
 520 494 424 617 267 617 c 256
267 568 m 256
 393 568 470 465 470 303 c 256
 470 141 393 38 267 38 c 256
 141 38 64 141 64 303 c 256
 64 465 141 568 267 568 c 256
326 257 m 257
 326 208 304 185 271 185 c 256
 226 185 204 225 204 291 c 258
 204 316 l 258
 204 383 225 423 269 423 c 256
 301 423 324 399 324 349 c 257
 400 349 l 257
 400 446 344 489 269 489 c 256
 179 489 126 430 126 303 c 256
 126 177 179 118 269 118 c 256
 345 118 400 164 400 257 c 257
 326 257 l 257
EndSplineSet
EndChar

StartChar: currency
Encoding: 164 164 208
Width: 403
VWidth: 0
Flags: W
PickledData: "(dp1
S'org.robofab.postScriptHintData'
p2
(dp3
S'vHints'
p4
((I19
I75
t(I309
I75
ttp5
sS'hHints'
p6
((I95
I80
t(I431
I79
ttp7
ss."
LayerCount: 2
Fore
SplineSet
53 504 m 257
 0 449 l 257
 43 405 l 257
 27 374 19 339 19 302 c 256
 19 264 28 228 44 198 c 257
 0 154 l 257
 54 100 l 257
 91 137 l 257
 122 111 160 95 202 95 c 256
 242 95 280 111 311 137 c 257
 348 100 l 257
 402 154 l 257
 358 197 l 257
 374 228 384 263 384 302 c 256
 384 340 375 375 359 406 c 257
 402 449 l 257
 349 504 l 257
 312 467 l 257
 281 493 242 510 202 510 c 256
 159 510 121 493 90 467 c 257
 53 504 l 257
202 431 m 256
 260 431 309 374 309 302 c 256
 309 232 260 175 202 175 c 256
 142 175 94 232 94 302 c 256
 94 374 142 431 202 431 c 256
EndSplineSet
EndChar

StartChar: d
Encoding: 100 100 209
Width: 443
VWidth: 0
Flags: W
PickledData: "(dp1
S'org.robofab.postScriptHintData'
p2
(dp3
S'replaceTable'
p4
((dp5
S'index'
p6
I0
sS'type'
p7
I255
s(dp8
g6
I0
sg7
I2
s(dp9
g6
I1
sg7
I2
s(dp10
g6
I0
sg7
I1
s(dp11
g6
I1
sg7
I1
s(dp12
g6
I2
sg7
I1
s(dp13
g6
I1
sg7
I255
s(dp14
g6
I0
sg7
I2
s(dp15
g6
I1
sg7
I2
s(dp16
g6
I3
sg7
I1
s(dp17
g6
I4
sg7
I1
s(dp18
g6
I2
sg7
I1
s(dp19
g6
I7
sg7
I255
s(dp20
g6
I0
sg7
I2
s(dp21
g6
I1
sg7
I2
s(dp22
g6
I0
sg7
I1
s(dp23
g6
I1
sg7
I1
s(dp24
g6
I2
sg7
I1
stp25
sS'vHints'
p26
((I36
I111
t(I288
I106
ttp27
sS'hHints'
p28
((I-11
I97
t(I379
I97
t(I639
I-20
t(I0
I86
t(I379
I38
ttp29
ss."
AnchorPoint: "center" 222 232 basechar 0
LayerCount: 2
Fore
SplineSet
295 57 m 257
 306 0 l 257
 394 0 l 257
 394 639 l 257
 288 639 l 257
 288 417 l 257
 284 417 l 257
 267 454 227 476 180 476 c 256
 98 476 36 402 36 233 c 256
 36 65 94 -11 186 -11 c 256
 230 -11 268 12 291 57 c 257
 295 57 l 257
288 216 m 258
 288 132 269 86 217 86 c 256
 166 86 147 132 147 216 c 258
 147 249 l 258
 147 333 166 379 217 379 c 256
 269 379 288 331 288 248 c 258
 288 216 l 258
EndSplineSet
EndChar

StartChar: dadeva
Encoding: 2342 2342 210
Width: 391
VWidth: 0
Flags: W
PickledData: "(dp1
S'org.robofab.postScriptHintData'
p2
(dp3
S'replaceTable'
p4
((dp5
S'index'
p6
I0
sS'type'
p7
I255
s(dp8
g6
I0
sg7
I2
s(dp9
g6
I1
sg7
I2
s(dp10
g6
I0
sg7
I1
s(dp11
g6
I1
sg7
I1
s(dp12
g6
I2
sg7
I1
s(dp13
g6
I11
sg7
I255
s(dp14
g6
I0
sg7
I2
s(dp15
g6
I2
sg7
I2
s(dp16
g6
I0
sg7
I1
s(dp17
g6
I1
sg7
I1
s(dp18
g6
I2
sg7
I1
s(dp19
g6
I12
sg7
I255
s(dp20
g6
I0
sg7
I2
s(dp21
g6
I2
sg7
I2
s(dp22
g6
I3
sg7
I1
s(dp23
g6
I1
sg7
I1
s(dp24
g6
I2
sg7
I1
s(dp25
g6
I16
sg7
I255
s(dp26
g6
I0
sg7
I2
s(dp27
g6
I2
sg7
I2
s(dp28
g6
I4
sg7
I1
s(dp29
g6
I1
sg7
I1
s(dp30
g6
I2
sg7
I1
stp31
sS'vHints'
p32
((I30
I109
t(I221
I106
t(I230
I106
ttp33
sS'hHints'
p34
((I69
I140
t(I340
I94
t(I513
I93
t(I0
I209
t(I0
I156
ttp35
ss."
AnchorPoint: "top" 275 606 basechar 0
AnchorPoint: "bottom" 216 0 basechar 0
LayerCount: 2
Fore
SplineSet
327 340 m 257
 327 513 l 257
 407 513 l 257
 407 606 l 257
 -8 606 l 257
 -8 513 l 257
 221 513 l 257
 221 434 l 257
 208 434 l 258
 100 434 30 371 30 251 c 256
 30 126 89 69 163 69 c 256
 189 69 212 76 230 87 c 257
 230 0 l 257
 336 0 l 257
 336 209 l 257
 230 209 l 257
 230 175 l 257
 220 163 208 156 190 156 c 256
 162 156 139 187 139 251 c 256
 139 309 168 340 211 340 c 258
 327 340 l 257
EndSplineSet
EndChar

StartChar: dagger
Encoding: 8224 8224 211
Width: 403
VWidth: 0
Flags: W
PickledData: "(dp1
S'org.robofab.postScriptHintData'
p2
(dp3
S'vHints'
p4
((I159
I83
ttp5
sS'hHints'
p6
((I-132
I-21
t(I606
I-20
ttp7
ss."
LayerCount: 2
Fore
SplineSet
380 360 m 257
 380 460 l 257
 233 445 l 257
 248 606 l 257
 153 606 l 257
 168 445 l 257
 22 460 l 257
 22 360 l 257
 168 376 l 257
 150 -153 l 257
 251 -153 l 257
 233 376 l 257
 380 360 l 257
EndSplineSet
EndChar

StartChar: daggerdbl
Encoding: 8225 8225 212
Width: 403
VWidth: 0
Flags: W
PickledData: "(dp1
S'org.robofab.postScriptHintData'
p2
(dp3
S'vHints'
p4
((I160
I80
ttp5
sS'hHints'
p6
((I-132
I-21
t(I17
I-21
t(I606
I-20
ttp7
ss."
LayerCount: 2
Fore
SplineSet
380 360 m 257
 380 460 l 257
 233 445 l 257
 248 606 l 257
 153 606 l 257
 168 445 l 257
 22 460 l 257
 22 360 l 257
 168 376 l 257
 150 230 l 257
 168 80 l 257
 22 96 l 257
 22 -4 l 257
 168 11 l 257
 153 -153 l 257
 248 -153 l 257
 233 11 l 257
 380 -4 l 257
 380 96 l 257
 233 80 l 257
 251 230 l 257
 233 376 l 257
 380 360 l 257
EndSplineSet
EndChar

StartChar: dcaron
Encoding: 271 271 213
Width: 521
VWidth: 0
Flags: W
PickledData: "(dp1
S'org.robofab.postScriptHintData'
p2
(dp3
S'replaceTable'
p4
((dp5
S'index'
p6
I0
sS'type'
p7
I255
s(dp8
g6
I0
sg7
I2
s(dp9
g6
I1
sg7
I2
s(dp10
g6
I0
sg7
I1
s(dp11
g6
I1
sg7
I1
s(dp12
g6
I2
sg7
I1
s(dp13
g6
I1
sg7
I255
s(dp14
g6
I0
sg7
I2
s(dp15
g6
I1
sg7
I2
s(dp16
g6
I3
sg7
I1
s(dp17
g6
I1
sg7
I1
s(dp18
g6
I4
sg7
I1
s(dp19
g6
I7
sg7
I255
s(dp20
g6
I0
sg7
I2
s(dp21
g6
I1
sg7
I2
s(dp22
g6
I0
sg7
I1
s(dp23
g6
I5
sg7
I1
s(dp24
g6
I2
sg7
I1
s(dp25
g6
I10
sg7
I255
s(dp26
g6
I0
sg7
I2
s(dp27
g6
I1
sg7
I2
s(dp28
g6
I0
sg7
I1
s(dp29
g6
I1
sg7
I1
s(dp30
g6
I2
sg7
I1
s(dp31
g6
I12
sg7
I255
s(dp32
g6
I0
sg7
I2
s(dp33
g6
I1
sg7
I2
s(dp34
g6
I2
sg7
I2
s(dp35
g6
I0
sg7
I1
s(dp36
g6
I1
sg7
I1
s(dp37
g6
I2
sg7
I1
s(dp38
g6
I18
sg7
I255
s(dp39
g6
I0
sg7
I2
s(dp40
g6
I1
sg7
I2
s(dp41
g6
I0
sg7
I1
s(dp42
g6
I5
sg7
I1
s(dp43
g6
I2
sg7
I1
stp44
sS'vHints'
p45
((I36
I111
t(I288
I106
t(I422
I122
ttp46
sS'hHints'
p47
((I-11
I97
t(I379
I38
t(I485
I121
t(I0
I86
t(I485
I154
t(I379
I97
ttp48
ss."
LayerCount: 2
Fore
SplineSet
295 57 m 257
 306 0 l 257
 394 0 l 257
 394 639 l 257
 288 639 l 257
 288 417 l 257
 284 417 l 257
 267 454 227 476 180 476 c 256
 98 476 36 402 36 233 c 256
 36 65 94 -11 186 -11 c 256
 230 -11 268 12 291 57 c 257
 295 57 l 257
422 347 m 257
 485 347 l 257
 544 496 l 257
 544 606 l 257
 422 606 l 257
 422 485 l 257
 470 485 l 257
 422 347 l 257
288 216 m 258
 288 132 269 86 217 86 c 256
 166 86 147 132 147 216 c 258
 147 249 l 258
 147 333 166 379 217 379 c 256
 269 379 288 331 288 248 c 258
 288 216 l 258
EndSplineSet
EndChar

